<svg width="34" height="39" viewBox="0 0 34 39" fill="none" xmlns="http://www.w3.org/2000/svg">
<path fill-rule="evenodd" clip-rule="evenodd" d="M31.4407 33.4613C32.6391 31.7064 33.086 30.8094 34 28.8399C27.2565 26.383 26.1799 17.1597 32.8422 13.6302C30.811 11.1733 27.9471 9.74981 25.2456 9.74981C23.2956 9.74981 21.9551 10.2373 20.7567 10.6858C19.7411 11.0563 18.827 11.3878 17.6896 11.3878C16.4708 11.3878 15.3943 11.0173 14.2569 10.6273C13.0178 10.1983 11.7179 9.74981 10.0929 9.74981C7.06645 9.74981 3.83686 11.5243 1.78536 14.5662C-1.09893 18.8561 -0.591129 26.89 4.06029 33.7538C5.72586 36.2108 7.96017 38.9602 10.8648 38.9992C12.0835 39.0187 12.8756 38.6677 13.7491 38.2972C14.7443 37.8682 15.8209 37.4003 17.7099 37.4003C19.5989 37.3808 20.6551 37.8682 21.6504 38.2972C22.5035 38.6677 23.2753 39.0187 24.4737 38.9992C27.419 38.9602 29.7751 35.9183 31.4407 33.4613ZM24.819 0C25.144 2.14496 24.23 4.27041 23.0316 5.75239C21.7519 7.35135 19.5176 8.59933 17.3646 8.52133C16.9786 6.45437 17.9739 4.32891 19.1926 2.90544C20.5535 1.34547 22.8488 0.136497 24.819 0Z" fill="#976D00"/>
</svg>
