<svg width="580" height="108" viewBox="0 0 580 108" fill="none" xmlns="http://www.w3.org/2000/svg">
<g filter="url(#filter0_d_858_193)">
<path d="M57.1637 76H46.5637L21.2637 41.9L13.9637 48.3V76H4.96367V4.6H13.9637V39.8C15.9637 37.5333 17.997 35.2667 20.0637 33C22.1303 30.7333 24.197 28.4667 26.2637 26.2L45.5637 4.6H56.0637L27.7637 35.7L57.1637 76ZM85.9777 21.5C92.5111 21.5 97.3444 22.9333 100.478 25.8C103.611 28.6667 105.178 33.2333 105.178 39.5V76H98.7777L97.0777 68.4H96.6777C95.1444 70.3333 93.5444 71.9667 91.8777 73.3C90.2777 74.5667 88.4111 75.5 86.2777 76.1C84.2111 76.7 81.6777 77 78.6777 77C75.4777 77 72.5777 76.4333 69.9777 75.3C67.4444 74.1667 65.4444 72.4333 63.9777 70.1C62.5111 67.7 61.7777 64.7 61.7777 61.1C61.7777 55.7667 63.8777 51.6667 68.0777 48.8C72.2777 45.8667 78.7444 44.2667 87.4777 44L96.5777 43.7V40.5C96.5777 36.0333 95.6111 32.9333 93.6777 31.2C91.7444 29.4667 89.0111 28.6 85.4777 28.6C82.6777 28.6 80.0111 29.0333 77.4777 29.9C74.9444 30.7 72.5777 31.6333 70.3777 32.7L67.6777 26.1C70.0111 24.8333 72.7777 23.7667 75.9777 22.9C79.1777 21.9667 82.5111 21.5 85.9777 21.5ZM88.5777 50.1C81.9111 50.3667 77.2777 51.4333 74.6777 53.3C72.1444 55.1667 70.8777 57.8 70.8777 61.2C70.8777 64.2 71.7777 66.4 73.5777 67.8C75.4444 69.2 77.8111 69.9 80.6777 69.9C85.2111 69.9 88.9777 68.6667 91.9777 66.2C94.9777 63.6667 96.4777 59.8 96.4777 54.6V49.8L88.5777 50.1ZM140.732 21.4C144.266 21.4 147.432 22.0667 150.232 23.4C153.099 24.7333 155.532 26.7667 157.532 29.5H158.032L159.232 22.4H166.232V76.9C166.232 81.9667 165.366 86.2 163.632 89.6C161.899 93.0667 159.266 95.6667 155.732 97.4C152.199 99.1333 147.699 100 142.232 100C138.366 100 134.799 99.7 131.532 99.1C128.332 98.5667 125.466 97.7333 122.932 96.6V88.5C124.666 89.3667 126.566 90.1 128.632 90.7C130.699 91.3667 132.932 91.8667 135.332 92.2C137.732 92.5333 140.199 92.7 142.732 92.7C147.332 92.7 150.932 91.3333 153.532 88.6C156.199 85.9333 157.532 82.2667 157.532 77.6V75.5C157.532 74.7 157.566 73.5667 157.632 72.1C157.699 70.5667 157.766 69.5 157.832 68.9H157.432C155.566 71.6333 153.232 73.6667 150.432 75C147.699 76.3333 144.499 77 140.832 77C133.899 77 128.466 74.5667 124.532 69.7C120.666 64.8333 118.732 58.0333 118.732 49.3C118.732 43.5667 119.599 38.6333 121.332 34.5C123.132 30.3 125.666 27.0667 128.932 24.8C132.199 22.5333 136.132 21.4 140.732 21.4ZM141.932 28.8C138.932 28.8 136.366 29.6 134.232 31.2C132.166 32.8 130.566 35.1333 129.432 38.2C128.366 41.2667 127.832 45 127.832 49.4C127.832 56 129.032 61.0667 131.432 64.6C133.899 68.0667 137.466 69.8 142.132 69.8C144.866 69.8 147.199 69.4667 149.132 68.8C151.066 68.0667 152.666 66.9667 153.932 65.5C155.199 63.9667 156.132 62.0333 156.732 59.7C157.332 57.3667 157.632 54.6 157.632 51.4V49.3C157.632 44.4333 157.066 40.5 155.932 37.5C154.866 34.5 153.166 32.3 150.832 30.9C148.499 29.5 145.532 28.8 141.932 28.8ZM202.256 21.4C205.789 21.4 208.956 22.0667 211.756 23.4C214.623 24.7333 217.056 26.7667 219.056 29.5H219.556L220.756 22.4H227.756V76.9C227.756 81.9667 226.889 86.2 225.156 89.6C223.423 93.0667 220.789 95.6667 217.256 97.4C213.723 99.1333 209.223 100 203.756 100C199.889 100 196.323 99.7 193.056 99.1C189.856 98.5667 186.989 97.7333 184.456 96.6V88.5C186.189 89.3667 188.089 90.1 190.156 90.7C192.223 91.3667 194.456 91.8667 196.856 92.2C199.256 92.5333 201.723 92.7 204.256 92.7C208.856 92.7 212.456 91.3333 215.056 88.6C217.723 85.9333 219.056 82.2667 219.056 77.6V75.5C219.056 74.7 219.089 73.5667 219.156 72.1C219.223 70.5667 219.289 69.5 219.356 68.9H218.956C217.089 71.6333 214.756 73.6667 211.956 75C209.223 76.3333 206.023 77 202.356 77C195.423 77 189.989 74.5667 186.056 69.7C182.189 64.8333 180.256 58.0333 180.256 49.3C180.256 43.5667 181.123 38.6333 182.856 34.5C184.656 30.3 187.189 27.0667 190.456 24.8C193.723 22.5333 197.656 21.4 202.256 21.4ZM203.456 28.8C200.456 28.8 197.889 29.6 195.756 31.2C193.689 32.8 192.089 35.1333 190.956 38.2C189.889 41.2667 189.356 45 189.356 49.4C189.356 56 190.556 61.0667 192.956 64.6C195.423 68.0667 198.989 69.8 203.656 69.8C206.389 69.8 208.723 69.4667 210.656 68.8C212.589 68.0667 214.189 66.9667 215.456 65.5C216.723 63.9667 217.656 62.0333 218.256 59.7C218.856 57.3667 219.156 54.6 219.156 51.4V49.3C219.156 44.4333 218.589 40.5 217.456 37.5C216.389 34.5 214.689 32.3 212.356 30.9C210.023 29.5 207.056 28.8 203.456 28.8ZM253.579 76H244.779V-5.00679e-06H253.579V76ZM291.261 21.4C295.861 21.4 299.794 22.4 303.061 24.4C306.394 26.4 308.927 29.2333 310.661 32.9C312.461 36.5 313.361 40.7333 313.361 45.6V50.9H276.661C276.794 56.9667 278.327 61.6 281.261 64.8C284.261 67.9333 288.427 69.5 293.761 69.5C297.161 69.5 300.161 69.2 302.761 68.6C305.427 67.9333 308.161 67 310.961 65.8V73.5C308.227 74.7 305.527 75.5667 302.861 76.1C300.194 76.7 297.027 77 293.361 77C288.294 77 283.794 75.9667 279.861 73.9C275.994 71.8333 272.961 68.7667 270.761 64.7C268.627 60.5667 267.561 55.5333 267.561 49.6C267.561 43.7333 268.527 38.7 270.461 34.5C272.461 30.3 275.227 27.0667 278.761 24.8C282.361 22.5333 286.527 21.4 291.261 21.4ZM291.161 28.6C286.961 28.6 283.627 29.9667 281.161 32.7C278.761 35.3667 277.327 39.1 276.861 43.9H304.161C304.161 40.8333 303.694 38.1667 302.761 35.9C301.827 33.6333 300.394 31.8667 298.461 30.6C296.594 29.2667 294.161 28.6 291.161 28.6ZM435.206 4.6L416.206 76H407.106L393.206 29.2C392.806 27.8 392.406 26.3667 392.006 24.9C391.606 23.4333 391.239 22.0333 390.906 20.7C390.573 19.3667 390.273 18.2333 390.006 17.3C389.806 16.3 389.673 15.5667 389.606 15.1C389.539 15.5667 389.406 16.3 389.206 17.3C389.073 18.2333 388.839 19.3667 388.506 20.7C388.173 22.0333 387.806 23.4667 387.406 25C387.073 26.4667 386.673 27.9667 386.206 29.5L372.706 76H363.606L344.706 4.6H354.106L365.206 48.2C365.606 49.7333 365.973 51.2667 366.306 52.8C366.639 54.2667 366.939 55.7333 367.206 57.2C367.539 58.6 367.806 59.9667 368.006 61.3C368.206 62.6333 368.406 63.9333 368.606 65.2C368.806 63.8667 369.006 62.5 369.206 61.1C369.473 59.7 369.773 58.2667 370.106 56.8C370.439 55.2667 370.806 53.7333 371.206 52.2C371.606 50.6667 372.006 49.1667 372.406 47.7L385.006 4.6H394.306L407.406 48C407.873 49.5333 408.306 51.1 408.706 52.7C409.106 54.2333 409.473 55.7333 409.806 57.2C410.139 58.6667 410.406 60.1 410.606 61.5C410.873 62.8333 411.106 64.0667 411.306 65.2C411.506 63.5333 411.773 61.8 412.106 60C412.439 58.1333 412.839 56.2 413.306 54.2C413.773 52.2 414.273 50.1667 414.806 48.1L425.806 4.6H435.206ZM463.321 21.5C469.855 21.5 474.688 22.9333 477.821 25.8C480.955 28.6667 482.521 33.2333 482.521 39.5V76H476.121L474.421 68.4H474.021C472.488 70.3333 470.888 71.9667 469.221 73.3C467.621 74.5667 465.755 75.5 463.621 76.1C461.555 76.7 459.021 77 456.021 77C452.821 77 449.921 76.4333 447.321 75.3C444.788 74.1667 442.788 72.4333 441.321 70.1C439.855 67.7 439.121 64.7 439.121 61.1C439.121 55.7667 441.221 51.6667 445.421 48.8C449.621 45.8667 456.088 44.2667 464.821 44L473.921 43.7V40.5C473.921 36.0333 472.955 32.9333 471.021 31.2C469.088 29.4667 466.355 28.6 462.821 28.6C460.021 28.6 457.355 29.0333 454.821 29.9C452.288 30.7 449.921 31.6333 447.721 32.7L445.021 26.1C447.355 24.8333 450.121 23.7667 453.321 22.9C456.521 21.9667 459.855 21.5 463.321 21.5ZM465.921 50.1C459.255 50.3667 454.621 51.4333 452.021 53.3C449.488 55.1667 448.221 57.8 448.221 61.2C448.221 64.2 449.121 66.4 450.921 67.8C452.788 69.2 455.155 69.9 458.021 69.9C462.555 69.9 466.321 68.6667 469.321 66.2C472.321 63.6667 473.821 59.8 473.821 54.6V49.8L465.921 50.1ZM524.076 21.4C525.076 21.4 526.143 21.4667 527.276 21.6C528.476 21.6667 529.51 21.8 530.376 22L529.276 30.1C528.41 29.9 527.443 29.7333 526.376 29.6C525.376 29.4667 524.41 29.4 523.476 29.4C521.41 29.4 519.443 29.8333 517.576 30.7C515.71 31.5667 514.043 32.8 512.576 34.4C511.11 35.9333 509.943 37.8 509.076 40C508.276 42.2 507.876 44.6667 507.876 47.4V76H499.076V22.4H506.276L507.276 32.2H507.676C508.81 30.2 510.176 28.4 511.776 26.8C513.376 25.1333 515.21 23.8333 517.276 22.9C519.343 21.9 521.61 21.4 524.076 21.4ZM575.285 61.2C575.285 64.6667 574.418 67.5667 572.685 69.9C570.951 72.2333 568.485 74 565.285 75.2C562.085 76.4 558.285 77 553.885 77C550.151 77 546.918 76.7 544.185 76.1C541.518 75.5 539.151 74.6667 537.085 73.6V65.6C539.218 66.6667 541.785 67.6667 544.785 68.6C547.851 69.4667 550.951 69.9 554.085 69.9C558.551 69.9 561.785 69.2 563.785 67.8C565.785 66.3333 566.785 64.4 566.785 62C566.785 60.6667 566.418 59.4667 565.685 58.4C564.951 57.3333 563.618 56.2667 561.685 55.2C559.818 54.1333 557.118 52.9333 553.585 51.6C550.118 50.2667 547.151 48.9333 544.685 47.6C542.218 46.2667 540.318 44.6667 538.985 42.8C537.651 40.9333 536.985 38.5333 536.985 35.6C536.985 31.0667 538.818 27.5667 542.485 25.1C546.218 22.6333 551.085 21.4 557.085 21.4C560.351 21.4 563.385 21.7333 566.185 22.4C569.051 23 571.718 23.8667 574.185 25L571.185 32C569.718 31.3333 568.151 30.7667 566.485 30.3C564.885 29.7667 563.251 29.3667 561.585 29.1C559.918 28.7667 558.218 28.6 556.485 28.6C552.885 28.6 550.118 29.2 548.185 30.4C546.318 31.5333 545.385 33.1 545.385 35.1C545.385 36.5667 545.818 37.8333 546.685 38.9C547.551 39.9 548.985 40.9 550.985 41.9C553.051 42.8333 555.785 43.9667 559.185 45.3C562.585 46.5667 565.485 47.8667 567.885 49.2C570.285 50.5333 572.118 52.1667 573.385 54.1C574.651 55.9667 575.285 58.3333 575.285 61.2Z" fill="#AD820F"/>
<path d="M57.1637 76V77H59.131L57.9715 75.4106L57.1637 76ZM46.5637 76L45.7606 76.5958L46.0604 77H46.5637V76ZM21.2637 41.9L22.0668 41.3042L21.4203 40.4328L20.6044 41.1481L21.2637 41.9ZM13.9637 48.3L13.3044 47.5481L12.9637 47.8468V48.3H13.9637ZM13.9637 76V77H14.9637V76H13.9637ZM4.96367 76H3.96367V77H4.96367V76ZM4.96367 4.6V3.6H3.96367V4.6H4.96367ZM13.9637 4.6H14.9637V3.6H13.9637V4.6ZM13.9637 39.8H12.9637V42.4448L14.7135 40.4616L13.9637 39.8ZM20.0637 33L20.8026 33.6738L20.8026 33.6738L20.0637 33ZM26.2637 26.2L27.0027 26.8738L27.0094 26.8663L26.2637 26.2ZM45.5637 4.6V3.6H45.1162L44.818 3.93371L45.5637 4.6ZM56.0637 4.6L56.8033 5.27302L58.3257 3.6H56.0637V4.6ZM27.7637 35.7L27.0241 35.027L26.475 35.6303L26.9558 36.2894L27.7637 35.7ZM57.1637 75H46.5637V77H57.1637V75ZM47.3668 75.4042L22.0668 41.3042L20.4606 42.4958L45.7606 76.5958L47.3668 75.4042ZM20.6044 41.1481L13.3044 47.5481L14.6229 49.0519L21.9229 42.6519L20.6044 41.1481ZM12.9637 48.3V76H14.9637V48.3H12.9637ZM13.9637 75H4.96367V77H13.9637V75ZM5.96367 76V4.6H3.96367V76H5.96367ZM4.96367 5.6H13.9637V3.6H4.96367V5.6ZM12.9637 4.6V39.8H14.9637V4.6H12.9637ZM14.7135 40.4616C16.7099 38.1991 18.7396 35.9365 20.8026 33.6738L19.3247 32.3262C17.2544 34.5969 15.2175 36.8676 13.2138 39.1384L14.7135 40.4616ZM20.8026 33.6738C22.8693 31.4071 24.936 29.1404 27.0026 26.8738L25.5247 25.5262C23.4581 27.7929 21.3914 30.0596 19.3247 32.3262L20.8026 33.6738ZM27.0094 26.8663L46.3094 5.26629L44.818 3.93371L25.518 25.5337L27.0094 26.8663ZM45.5637 5.6H56.0637V3.6H45.5637V5.6ZM55.3241 3.92697L27.0241 35.027L28.5033 36.373L56.8033 5.27302L55.3241 3.92697ZM26.9558 36.2894L56.3558 76.5894L57.9715 75.4106L28.5715 35.1106L26.9558 36.2894ZM100.478 25.8L101.153 25.0622L101.153 25.0622L100.478 25.8ZM105.178 76V77H106.178V76H105.178ZM98.7777 76L97.8019 76.2183L97.9767 77H98.7777V76ZM97.0777 68.4L98.0536 68.1817L97.8788 67.4H97.0777V68.4ZM96.6777 68.4V67.4H96.1945L95.8942 67.7786L96.6777 68.4ZM91.8777 73.3L92.4984 74.0841L92.5024 74.0809L91.8777 73.3ZM86.2777 76.1L86.007 75.1373L85.9989 75.1397L86.2777 76.1ZM69.9777 75.3L69.5694 76.2129L69.5781 76.2167L69.9777 75.3ZM63.9777 70.1L63.1244 70.6215L63.1311 70.6322L63.9777 70.1ZM68.0777 48.8L68.6415 49.626L68.6503 49.6198L68.0777 48.8ZM87.4777 44L87.5083 44.9995L87.5107 44.9995L87.4777 44ZM96.5777 43.7L96.6107 44.6995L97.5777 44.6676V43.7H96.5777ZM93.6777 31.2L93.0102 31.9446L93.0102 31.9446L93.6777 31.2ZM77.4777 29.9L77.7789 30.8536L77.7902 30.85L77.8014 30.8462L77.4777 29.9ZM70.3777 32.7L69.4522 33.0786L69.8555 34.0645L70.814 33.5998L70.3777 32.7ZM67.6777 26.1L67.2006 25.2211L66.4127 25.6489L66.7522 26.4786L67.6777 26.1ZM75.9777 22.9L76.2392 23.8652L76.2485 23.8627L76.2577 23.86L75.9777 22.9ZM88.5777 50.1L88.5398 49.1007L88.5378 49.1008L88.5777 50.1ZM74.6777 53.3L74.0945 52.4876L74.0845 52.4949L74.6777 53.3ZM73.5777 67.8L72.9638 68.5894L72.9707 68.5947L72.9777 68.6L73.5777 67.8ZM91.9777 66.2L92.6129 66.9725L92.6229 66.964L91.9777 66.2ZM96.4777 49.8H97.4777V48.7613L96.4398 48.8007L96.4777 49.8ZM85.9777 22.5C92.3911 22.5 96.9312 23.9107 99.8027 26.5378L101.153 25.0622C97.7576 21.956 92.631 20.5 85.9777 20.5V22.5ZM99.8027 26.5378C102.647 29.1401 104.178 33.3793 104.178 39.5H106.178C106.178 33.0873 104.575 28.1933 101.153 25.0622L99.8027 26.5378ZM104.178 39.5V76H106.178V39.5H104.178ZM105.178 75H98.7777V77H105.178V75ZM99.7536 75.7817L98.0536 68.1817L96.1019 68.6183L97.8019 76.2183L99.7536 75.7817ZM97.0777 67.4H96.6777V69.4H97.0777V67.4ZM95.8942 67.7786C94.4006 69.6619 92.8527 71.2394 91.253 72.5191L92.5024 74.0809C94.2361 72.6939 95.8882 71.0048 97.4612 69.0214L95.8942 67.7786ZM91.257 72.516C89.7693 73.6937 88.024 74.5701 86.007 75.1373L86.5485 77.0627C88.7981 76.4299 90.7861 75.4396 92.4984 74.084L91.257 72.516ZM85.9989 75.1397C84.0506 75.7053 81.6175 76 78.6777 76V78C81.738 78 84.3715 77.6947 86.5565 77.0603L85.9989 75.1397ZM78.6777 76C75.5976 76 72.8361 75.4551 70.3773 74.3833L69.5781 76.2167C72.3194 77.4116 75.3579 78 78.6777 78V76ZM70.3861 74.3872C68.0319 73.334 66.185 71.7325 64.8244 69.5678L63.1311 70.6322C64.7038 73.1342 66.8569 74.9993 69.5694 76.2128L70.3861 74.3872ZM64.831 69.5785C63.4837 67.3739 62.7777 64.5667 62.7777 61.1H60.7777C60.7777 64.8332 61.5384 68.0261 63.1245 70.6214L64.831 69.5785ZM62.7777 61.1C62.7777 56.078 64.7299 52.2957 68.6415 49.6259L67.514 47.974C63.0255 51.0376 60.7777 55.4554 60.7777 61.1H62.7777ZM68.6503 49.6198C72.6141 46.8515 78.8475 45.264 87.5083 44.9995L87.4472 43.0005C78.6413 43.2693 71.9414 44.8818 67.5051 47.9802L68.6503 49.6198ZM87.5107 44.9995L96.6107 44.6995L96.5448 42.7005L87.4448 43.0005L87.5107 44.9995ZM97.5777 43.7V40.5H95.5777V43.7H97.5777ZM97.5777 40.5C97.5777 35.9432 96.601 32.4778 94.3453 30.4554L93.0102 31.9446C94.6212 33.3889 95.5777 36.1234 95.5777 40.5H97.5777ZM94.3453 30.4554C92.1712 28.5062 89.1678 27.6 85.4777 27.6V29.6C88.8544 29.6 91.3176 30.4271 93.0102 31.9446L94.3453 30.4554ZM85.4777 27.6C82.5727 27.6 79.7963 28.0499 77.154 28.9538L77.8014 30.8462C80.2259 30.0167 82.7828 29.6 85.4777 29.6V27.6ZM77.1766 28.9464C74.6009 29.7598 72.1887 30.7106 69.9415 31.8002L70.814 33.5998C72.9668 32.5561 75.2879 31.6402 77.7789 30.8536L77.1766 28.9464ZM71.3033 32.3214L68.6033 25.7214L66.7522 26.4786L69.4522 33.0786L71.3033 32.3214ZM68.1548 26.9789C70.4055 25.7571 73.0965 24.7164 76.2392 23.8652L75.7163 21.9348C72.459 22.817 69.6167 23.9096 67.2006 25.2211L68.1548 26.9789ZM76.2577 23.86C79.3632 22.9542 82.602 22.5 85.9777 22.5V20.5C82.4201 20.5 78.9923 20.9791 75.6977 21.94L76.2577 23.86ZM88.5378 49.1008C81.8471 49.3684 76.9512 50.4367 74.0945 52.4877L75.2609 54.1123C77.6043 52.4299 81.9751 51.3649 88.6177 51.0992L88.5378 49.1008ZM74.0845 52.4949C71.2724 54.5671 69.8777 57.512 69.8777 61.2H71.8777C71.8777 58.088 73.0164 55.7663 75.2709 54.1051L74.0845 52.4949ZM69.8777 61.2C69.8777 64.4032 70.8476 66.9434 72.9638 68.5894L74.1917 67.0106C72.7079 65.8566 71.8777 63.9968 71.8777 61.2H69.8777ZM72.9777 68.6C75.0539 70.1572 77.6452 70.9 80.6777 70.9V68.9C77.977 68.9 75.8349 68.2428 74.1777 67L72.9777 68.6ZM80.6777 70.9C85.4021 70.9 89.4048 69.6101 92.6128 66.9724L91.3426 65.4276C88.5506 67.7232 85.0201 68.9 80.6777 68.9V70.9ZM92.6229 66.964C95.9155 64.1836 97.4777 59.9928 97.4777 54.6H95.4777C95.4777 59.6072 94.04 63.1497 91.3326 65.436L92.6229 66.964ZM97.4777 54.6V49.8H95.4777V54.6H97.4777ZM96.4398 48.8007L88.5398 49.1007L88.6157 51.0993L96.5157 50.7993L96.4398 48.8007ZM150.232 23.4L149.802 24.3029L149.811 24.3067L150.232 23.4ZM157.532 29.5L156.725 30.0905L157.025 30.5H157.532V29.5ZM158.032 29.5V30.5H158.878L159.018 29.6666L158.032 29.5ZM159.232 22.4V21.4H158.387L158.246 22.2333L159.232 22.4ZM166.232 22.4H167.232V21.4H166.232V22.4ZM163.632 89.6L162.741 89.1458L162.738 89.1528L163.632 89.6ZM155.732 97.4L156.173 98.2978L156.173 98.2978L155.732 97.4ZM131.532 99.1L131.713 98.1165L131.705 98.115L131.697 98.1136L131.532 99.1ZM122.932 96.6H121.932V97.2481L122.524 97.5128L122.932 96.6ZM122.932 88.5L123.38 87.6056L121.932 86.882V88.5H122.932ZM128.632 90.7L128.939 89.7483L128.925 89.7438L128.911 89.7397L128.632 90.7ZM135.332 92.2L135.47 91.2095L135.47 91.2095L135.332 92.2ZM153.532 88.6L152.825 87.8929L152.816 87.9017L152.808 87.9108L153.532 88.6ZM157.632 72.1L158.631 72.1454L158.631 72.1434L157.632 72.1ZM157.832 68.9L158.826 69.0104L158.95 67.9H157.832V68.9ZM157.432 68.9V67.9H156.904L156.607 68.336L157.432 68.9ZM150.432 75L150.002 74.0971L149.994 74.1012L150.432 75ZM124.532 69.7L123.749 70.3221L123.755 70.3286L124.532 69.7ZM121.332 34.5L120.413 34.1061L120.41 34.1133L121.332 34.5ZM128.932 24.8L128.362 23.9784L128.362 23.9784L128.932 24.8ZM134.232 31.2L133.632 30.4L133.626 30.4046L133.62 30.4093L134.232 31.2ZM129.432 38.2L128.494 37.8533L128.491 37.8624L128.488 37.8715L129.432 38.2ZM131.432 64.6L130.605 65.1619L130.611 65.1709L130.618 65.1798L131.432 64.6ZM149.132 68.8L149.458 69.7454L149.473 69.7404L149.487 69.735L149.132 68.8ZM153.932 65.5L154.689 66.1536L154.696 66.1453L154.703 66.1369L153.932 65.5ZM156.732 59.7L157.701 59.949L157.701 59.949L156.732 59.7ZM155.932 37.5L154.99 37.835L154.993 37.8442L154.997 37.8534L155.932 37.5ZM150.832 30.9L151.347 30.0425L151.347 30.0425L150.832 30.9ZM140.732 22.4C144.138 22.4 147.154 23.0418 149.802 24.3029L150.662 22.4971C147.71 21.0915 144.394 20.4 140.732 20.4V22.4ZM149.811 24.3067C152.513 25.5638 154.818 27.4834 156.725 30.0905L158.339 28.9095C156.247 26.0499 153.685 23.9029 150.654 22.4933L149.811 24.3067ZM157.532 30.5H158.032V28.5H157.532V30.5ZM159.018 29.6666L160.218 22.5666L158.246 22.2333L157.046 29.3333L159.018 29.6666ZM159.232 23.4H166.232V21.4H159.232V23.4ZM165.232 22.4V76.9H167.232V22.4H165.232ZM165.232 76.9C165.232 81.8584 164.384 85.9248 162.742 89.1458L164.523 90.0542C166.348 86.4752 167.232 82.075 167.232 76.9H165.232ZM162.738 89.1528C161.104 92.4204 158.632 94.8637 155.292 96.5022L156.173 98.2978C159.899 96.4696 162.694 93.713 164.527 90.0472L162.738 89.1528ZM155.292 96.5022C151.938 98.1474 147.602 99 142.232 99V101C147.796 101 152.46 100.119 156.173 98.2978L155.292 96.5022ZM142.232 99C138.417 99 134.911 98.7039 131.713 98.1165L131.352 100.084C134.687 100.696 138.315 101 142.232 101V99ZM131.697 98.1136C128.567 97.592 125.784 96.7804 123.341 95.6872L122.524 97.5128C125.147 98.6863 128.098 99.5413 131.368 100.086L131.697 98.1136ZM123.932 96.6V88.5H121.932V96.6H123.932ZM122.485 89.3944C124.278 90.2909 126.235 91.0453 128.354 91.6603L128.911 89.7397C126.896 89.1547 125.053 88.4425 123.38 87.6056L122.485 89.3944ZM128.325 91.6517C130.453 92.3381 132.744 92.8501 135.195 93.1905L135.47 91.2095C133.121 90.8833 130.945 90.3952 128.939 89.7483L128.325 91.6517ZM135.195 93.1905C137.642 93.5304 140.155 93.7 142.732 93.7V91.7C140.243 91.7 137.822 91.5362 135.47 91.2095L135.195 93.1905ZM142.732 93.7C147.542 93.7 151.428 92.2633 154.257 89.2892L152.808 87.9108C150.437 90.4033 147.123 91.7 142.732 91.7V93.7ZM154.24 89.3071C157.136 86.4105 158.532 82.4651 158.532 77.6H156.532C156.532 82.0682 155.262 85.4562 152.825 87.8929L154.24 89.3071ZM158.532 77.6V75.5H156.532V77.6H158.532ZM158.532 75.5C158.532 74.7228 158.565 73.6072 158.631 72.1454L156.633 72.0546C156.567 73.5262 156.532 74.6772 156.532 75.5H158.532ZM158.631 72.1434C158.698 70.6087 158.764 69.573 158.826 69.0104L156.839 68.7896C156.768 69.427 156.7 70.5246 156.633 72.0566L158.631 72.1434ZM157.832 67.9H157.432V69.9H157.832V67.9ZM156.607 68.336C154.833 70.9336 152.632 72.8449 150.002 74.0971L150.862 75.9029C153.833 74.4884 156.299 72.3331 158.258 69.464L156.607 68.336ZM149.994 74.1012C147.422 75.3556 144.378 76 140.832 76V78C144.62 78 147.976 77.311 150.871 75.8988L149.994 74.1012ZM140.832 76C134.164 76 129.032 73.6758 125.31 69.0714L123.755 70.3286C127.9 75.4575 133.634 78 140.832 78V76ZM125.315 69.0779C121.636 64.4475 119.732 57.8972 119.732 49.3H117.732C117.732 58.1695 119.695 65.2191 123.749 70.3221L125.315 69.0779ZM119.732 49.3C119.732 43.6639 120.585 38.8686 122.255 34.8867L120.41 34.1133C118.613 38.3981 117.732 43.4694 117.732 49.3H119.732ZM122.252 34.8939C123.989 30.8401 126.412 27.7661 129.503 25.6216L128.362 23.9784C124.92 26.3673 122.276 29.7599 120.413 34.1061L122.252 34.8939ZM129.503 25.6216C132.577 23.4886 136.303 22.4 140.732 22.4V20.4C135.962 20.4 131.822 21.5781 128.362 23.9784L129.503 25.6216ZM141.932 27.8C138.744 27.8 135.96 28.6541 133.632 30.4L134.832 32C136.771 30.5459 139.12 29.8 141.932 29.8V27.8ZM133.62 30.4093C131.372 32.1495 129.676 34.6549 128.494 37.8533L130.37 38.5466C131.455 35.6118 132.959 33.4505 134.845 31.9907L133.62 30.4093ZM128.488 37.8715C127.374 41.0739 126.832 44.9252 126.832 49.4H128.832C128.832 45.0748 129.357 41.4595 130.377 38.5285L128.488 37.8715ZM126.832 49.4C126.832 56.0989 128.047 61.3951 130.605 65.1619L132.26 64.0381C130.018 60.7383 128.832 55.9011 128.832 49.4H126.832ZM130.618 65.1798C133.292 68.9385 137.179 70.8 142.132 70.8V68.8C137.753 68.8 134.506 67.1948 132.247 64.0202L130.618 65.1798ZM142.132 70.8C144.942 70.8 147.392 70.4581 149.458 69.7454L148.806 67.8546C147.007 68.4753 144.79 68.8 142.132 68.8V70.8ZM149.487 69.735C151.565 68.9468 153.307 67.7544 154.689 66.1536L153.176 64.8464C152.025 66.1789 150.566 67.1865 148.778 67.865L149.487 69.735ZM154.703 66.1369C156.081 64.469 157.072 62.3951 157.701 59.949L155.764 59.451C155.193 61.6716 154.317 63.4644 153.161 64.8631L154.703 66.1369ZM157.701 59.949C158.327 57.5128 158.632 54.6584 158.632 51.4H156.632C156.632 54.5416 156.337 57.2206 155.764 59.451L157.701 59.949ZM158.632 51.4V49.3H156.632V51.4H158.632ZM158.632 49.3C158.632 44.3687 158.06 40.3022 156.868 37.1466L154.997 37.8534C156.071 40.6978 156.632 44.498 156.632 49.3H158.632ZM156.875 37.165C155.744 33.9855 153.912 31.5815 151.347 30.0425L150.318 31.7575C152.42 33.0185 153.987 35.0145 154.99 37.835L156.875 37.165ZM151.347 30.0425C148.816 28.5238 145.657 27.8 141.932 27.8V29.8C145.408 29.8 148.182 30.4762 150.318 31.7575L151.347 30.0425ZM211.756 23.4L211.326 24.3029L211.334 24.3067L211.756 23.4ZM219.056 29.5L218.249 30.0905L218.548 30.5H219.056V29.5ZM219.556 29.5V30.5H220.401L220.542 29.6666L219.556 29.5ZM220.756 22.4V21.4H219.911L219.77 22.2333L220.756 22.4ZM227.756 22.4H228.756V21.4H227.756V22.4ZM225.156 89.6L224.265 89.1458L224.261 89.1528L225.156 89.6ZM217.256 97.4L217.696 98.2978L217.696 98.2978L217.256 97.4ZM193.056 99.1L193.237 98.1165L193.228 98.115L193.22 98.1136L193.056 99.1ZM184.456 96.6H183.456V97.2481L184.047 97.5128L184.456 96.6ZM184.456 88.5L184.903 87.6056L183.456 86.882V88.5H184.456ZM190.156 90.7L190.463 89.7483L190.449 89.7438L190.435 89.7397L190.156 90.7ZM196.856 92.2L196.993 91.2095L196.993 91.2095L196.856 92.2ZM215.056 88.6L214.349 87.8929L214.34 87.9017L214.331 87.9108L215.056 88.6ZM219.156 72.1L220.155 72.1454L220.155 72.1434L219.156 72.1ZM219.356 68.9L220.35 69.0104L220.473 67.9H219.356V68.9ZM218.956 68.9V67.9H218.428L218.13 68.336L218.956 68.9ZM211.956 75L211.526 74.0971L211.517 74.1012L211.956 75ZM186.056 69.7L185.273 70.3221L185.278 70.3286L186.056 69.7ZM182.856 34.5L181.937 34.1061L181.934 34.1133L182.856 34.5ZM190.456 24.8L189.886 23.9784L189.886 23.9784L190.456 24.8ZM195.756 31.2L195.156 30.4L195.15 30.4046L195.144 30.4093L195.756 31.2ZM190.956 38.2L190.018 37.8533L190.015 37.8624L190.011 37.8715L190.956 38.2ZM192.956 64.6L192.129 65.1619L192.135 65.1709L192.141 65.1798L192.956 64.6ZM210.656 68.8L210.982 69.7454L210.996 69.7404L211.011 69.735L210.656 68.8ZM215.456 65.5L216.213 66.1536L216.22 66.1453L216.227 66.1369L215.456 65.5ZM218.256 59.7L219.224 59.949L219.224 59.949L218.256 59.7ZM217.456 37.5L216.514 37.835L216.517 37.8442L216.52 37.8534L217.456 37.5ZM212.356 30.9L212.87 30.0425L212.87 30.0425L212.356 30.9ZM202.256 22.4C205.661 22.4 208.678 23.0418 211.326 24.3029L212.186 22.4971C209.234 21.0915 205.917 20.4 202.256 20.4V22.4ZM211.334 24.3067C214.037 25.5638 216.341 27.4834 218.249 30.0905L219.863 28.9095C217.771 26.0499 215.208 23.9029 212.178 22.4933L211.334 24.3067ZM219.056 30.5H219.556V28.5H219.056V30.5ZM220.542 29.6666L221.742 22.5666L219.77 22.2333L218.57 29.3333L220.542 29.6666ZM220.756 23.4H227.756V21.4H220.756V23.4ZM226.756 22.4V76.9H228.756V22.4H226.756ZM226.756 76.9C226.756 81.8584 225.907 85.9248 224.265 89.1458L226.047 90.0542C227.871 86.4752 228.756 82.075 228.756 76.9H226.756ZM224.261 89.1528C222.628 92.4204 220.155 94.8637 216.815 96.5022L217.696 98.2978C221.423 96.4696 224.217 93.713 226.05 90.0472L224.261 89.1528ZM216.815 96.5022C213.462 98.1474 209.126 99 203.756 99V101C209.319 101 213.983 100.119 217.696 98.2978L216.815 96.5022ZM203.756 99C199.94 99 196.435 98.7039 193.237 98.1165L192.875 100.084C196.21 100.696 199.838 101 203.756 101V99ZM193.22 98.1136C190.091 97.592 187.308 96.7804 184.864 95.6872L184.047 97.5128C186.67 98.6863 189.621 99.5413 192.891 100.086L193.22 98.1136ZM185.456 96.6V88.5H183.456V96.6H185.456ZM184.009 89.3944C185.802 90.2909 187.759 91.0453 189.877 91.6603L190.435 89.7397C188.42 89.1547 186.577 88.4425 184.903 87.6056L184.009 89.3944ZM189.849 91.6517C191.977 92.3381 194.267 92.8501 196.718 93.1905L196.993 91.2095C194.644 90.8833 192.468 90.3952 190.463 89.7483L189.849 91.6517ZM196.718 93.1905C199.166 93.5304 201.679 93.7 204.256 93.7V91.7C201.766 91.7 199.346 91.5362 196.993 91.2095L196.718 93.1905ZM204.256 93.7C209.065 93.7 212.951 92.2633 215.78 89.2892L214.331 87.9108C211.96 90.4033 208.646 91.7 204.256 91.7V93.7ZM215.763 89.3071C218.66 86.4105 220.056 82.4651 220.056 77.6H218.056C218.056 82.0682 216.785 85.4562 214.349 87.8929L215.763 89.3071ZM220.056 77.6V75.5H218.056V77.6H220.056ZM220.056 75.5C220.056 74.7228 220.088 73.6072 220.155 72.1454L218.157 72.0546C218.09 73.5262 218.056 74.6772 218.056 75.5H220.056ZM220.155 72.1434C220.222 70.6087 220.287 69.573 220.35 69.0104L218.362 68.7896C218.291 69.427 218.223 70.5246 218.157 72.0566L220.155 72.1434ZM219.356 67.9H218.956V69.9H219.356V67.9ZM218.13 68.336C216.356 70.9336 214.156 72.8449 211.526 74.0971L212.386 75.9029C215.356 74.4884 217.822 72.3331 219.782 69.464L218.13 68.336ZM211.517 74.1012C208.946 75.3556 205.901 76 202.356 76V78C206.144 78 209.499 77.311 212.394 75.8988L211.517 74.1012ZM202.356 76C195.687 76 190.555 73.6758 186.834 69.0714L185.278 70.3286C189.423 75.4575 195.158 78 202.356 78V76ZM186.839 69.0779C183.16 64.4475 181.256 57.8972 181.256 49.3H179.256C179.256 58.1695 181.219 65.2191 185.273 70.3221L186.839 69.0779ZM181.256 49.3C181.256 43.6639 182.108 38.8686 183.778 34.8867L181.934 34.1133C180.137 38.3981 179.256 43.4694 179.256 49.3H181.256ZM183.775 34.8939C185.512 30.8401 187.935 27.7661 191.026 25.6216L189.886 23.9784C186.443 26.3673 183.799 29.7599 181.937 34.1061L183.775 34.8939ZM191.026 25.6216C194.1 23.4886 197.827 22.4 202.256 22.4V20.4C197.485 20.4 193.345 21.5781 189.886 23.9784L191.026 25.6216ZM203.456 27.8C200.268 27.8 197.484 28.6541 195.156 30.4L196.356 32C198.295 30.5459 200.644 29.8 203.456 29.8V27.8ZM195.144 30.4093C192.896 32.1495 191.2 34.6549 190.018 37.8533L191.894 38.5466C192.978 35.6118 194.482 33.4505 196.368 31.9907L195.144 30.4093ZM190.011 37.8715C188.897 41.0739 188.356 44.9252 188.356 49.4H190.356C190.356 45.0748 190.881 41.4595 191.9 38.5285L190.011 37.8715ZM188.356 49.4C188.356 56.0989 189.57 61.3951 192.129 65.1619L193.783 64.0381C191.542 60.7383 190.356 55.9011 190.356 49.4H188.356ZM192.141 65.1798C194.816 68.9385 198.702 70.8 203.656 70.8V68.8C199.276 68.8 196.029 67.1948 193.771 64.0202L192.141 65.1798ZM203.656 70.8C206.465 70.8 208.915 70.4581 210.982 69.7454L210.33 67.8546C208.53 68.4753 206.313 68.8 203.656 68.8V70.8ZM211.011 69.735C213.088 68.9468 214.83 67.7544 216.213 66.1536L214.699 64.8464C213.548 66.1789 212.09 67.1865 210.301 67.865L211.011 69.735ZM216.227 66.1369C217.605 64.469 218.595 62.3951 219.224 59.949L217.287 59.451C216.716 61.6716 215.84 63.4644 214.685 64.8631L216.227 66.1369ZM219.224 59.949C219.851 57.5128 220.156 54.6584 220.156 51.4H218.156C218.156 54.5416 217.861 57.2206 217.287 59.451L219.224 59.949ZM220.156 51.4V49.3H218.156V51.4H220.156ZM220.156 49.3C220.156 44.3687 219.583 40.3022 218.391 37.1466L216.52 37.8534C217.595 40.6978 218.156 44.498 218.156 49.3H220.156ZM218.398 37.165C217.268 33.9855 215.435 31.5815 212.87 30.0425L211.841 31.7575C213.943 33.0185 215.511 35.0145 216.514 37.835L218.398 37.165ZM212.87 30.0425C210.339 28.5238 207.18 27.8 203.456 27.8V29.8C206.932 29.8 209.706 30.4762 211.841 31.7575L212.87 30.0425ZM253.579 76V77H254.579V76H253.579ZM244.779 76H243.779V77H244.779V76ZM244.779 -5.00679e-06V-1.00001H243.779V-5.00679e-06H244.779ZM253.579 -5.00679e-06H254.579V-1.00001H253.579V-5.00679e-06ZM253.579 75H244.779V77H253.579V75ZM245.779 76V-5.00679e-06H243.779V76H245.779ZM244.779 0.999995H253.579V-1.00001H244.779V0.999995ZM252.579 -5.00679e-06V76H254.579V-5.00679e-06H252.579ZM303.061 24.4L302.538 25.2529L302.546 25.2575L303.061 24.4ZM310.661 32.9L309.756 33.3274L309.761 33.3373L309.766 33.3472L310.661 32.9ZM313.361 50.9V51.9H314.361V50.9H313.361ZM276.661 50.9V49.9H275.638L275.661 50.922L276.661 50.9ZM281.261 64.8L280.523 65.4757L280.531 65.4837L280.538 65.4916L281.261 64.8ZM302.761 68.6L302.985 69.5744L302.994 69.5723L303.003 69.5701L302.761 68.6ZM310.961 65.8H311.961V64.2835L310.567 64.8809L310.961 65.8ZM310.961 73.5L311.363 74.4156L311.961 74.1531V73.5H310.961ZM302.861 76.1L302.664 75.1194L302.653 75.1218L302.641 75.1244L302.861 76.1ZM279.861 73.9L279.389 74.782L279.395 74.7852L279.861 73.9ZM270.761 64.7L269.872 65.1586L269.876 65.1673L269.881 65.1758L270.761 64.7ZM270.461 34.5L269.558 34.07L269.552 34.0819L270.461 34.5ZM278.761 24.8L278.228 23.9537L278.221 23.9583L278.761 24.8ZM281.161 32.7L280.418 32.03L280.417 32.031L281.161 32.7ZM276.861 43.9L275.865 43.8032L275.759 44.9H276.861V43.9ZM304.161 43.9V44.9H305.161V43.9H304.161ZM302.761 35.9L301.836 36.2807L301.836 36.2807L302.761 35.9ZM298.461 30.6L297.879 31.4137L297.896 31.4254L297.913 31.4365L298.461 30.6ZM291.261 22.4C295.714 22.4 299.458 23.3668 302.538 25.2528L303.583 23.5471C300.13 21.4332 296.008 20.4 291.261 20.4V22.4ZM302.546 25.2575C305.702 27.1512 308.104 29.8313 309.756 33.3274L311.565 32.4726C309.751 28.6354 307.085 25.6488 303.575 23.5425L302.546 25.2575ZM309.766 33.3472C311.484 36.7823 312.361 40.8565 312.361 45.6H314.361C314.361 40.6101 313.437 36.2177 311.555 32.4528L309.766 33.3472ZM312.361 45.6V50.9H314.361V45.6H312.361ZM313.361 49.9H276.661V51.9H313.361V49.9ZM275.661 50.922C275.797 57.1351 277.371 62.0368 280.523 65.4757L281.998 64.1243C279.283 61.1632 277.79 56.7983 277.66 50.878L275.661 50.922ZM280.538 65.4916C283.769 68.8655 288.221 70.5 293.761 70.5V68.5C288.633 68.5 284.752 67.0011 281.983 64.1084L280.538 65.4916ZM293.761 70.5C297.217 70.5 300.295 70.1953 302.985 69.5744L302.536 67.6256C300.026 68.2047 297.104 68.5 293.761 68.5V70.5ZM303.003 69.5701C305.727 68.8892 308.511 67.9379 311.354 66.7191L310.567 64.8809C307.81 66.0621 305.128 66.9774 302.518 67.6299L303.003 69.5701ZM309.961 65.8V73.5H311.961V65.8H309.961ZM310.559 72.5844C307.885 73.7581 305.254 74.6015 302.664 75.1194L303.057 77.0806C305.801 76.5318 308.569 75.6419 311.363 74.4156L310.559 72.5844ZM302.641 75.1244C300.066 75.7038 296.977 76 293.361 76V78C297.078 78 300.322 77.6962 303.08 77.0756L302.641 75.1244ZM293.361 76C288.433 76 284.097 74.9961 280.326 73.0148L279.395 74.7852C283.491 76.9373 288.155 78 293.361 78V76ZM280.332 73.0181C276.648 71.049 273.752 68.1283 271.64 64.2242L269.881 65.1758C272.169 69.405 275.34 72.6177 279.389 74.7819L280.332 73.0181ZM271.649 64.2414C269.606 60.2835 268.561 55.4165 268.561 49.6H266.561C266.561 55.6501 267.648 60.8498 269.872 65.1586L271.649 64.2414ZM268.561 49.6C268.561 43.8402 269.51 38.9567 271.369 34.9181L269.552 34.0819C267.545 38.4433 266.561 43.6265 266.561 49.6H268.561ZM271.363 34.9299C273.292 30.8796 275.941 27.797 279.301 25.6417L278.221 23.9583C274.514 26.3364 271.629 29.7204 269.558 34.0701L271.363 34.9299ZM279.293 25.6462C282.716 23.4911 286.694 22.4 291.261 22.4V20.4C286.361 20.4 282.005 21.5756 278.228 23.9538L279.293 25.6462ZM291.161 27.6C286.722 27.6 283.102 29.056 280.418 32.03L281.903 33.37C284.152 30.8773 287.2 29.6 291.161 29.6V27.6ZM280.417 32.031C277.832 34.9033 276.346 38.8629 275.865 43.8032L277.856 43.9968C278.309 39.3371 279.689 35.8301 281.904 33.369L280.417 32.031ZM276.861 44.9H304.161V42.9H276.861V44.9ZM305.161 43.9C305.161 40.7344 304.679 37.9329 303.685 35.5192L301.836 36.2807C302.709 38.4005 303.161 40.9323 303.161 43.9H305.161ZM303.685 35.5192C302.68 33.0781 301.121 31.1475 299.009 29.7635L297.913 31.4365C299.667 32.5858 300.974 34.1886 301.836 36.2807L303.685 35.5192ZM299.042 29.7863C296.96 28.2994 294.305 27.6 291.161 27.6V29.6C294.016 29.6 296.228 30.234 297.879 31.4137L299.042 29.7863ZM435.206 4.6L436.172 4.85715L436.507 3.6H435.206V4.6ZM416.206 76V77H416.975L417.172 76.2572L416.206 76ZM407.106 76L406.147 76.2847L406.36 77H407.106V76ZM393.206 29.2L392.244 29.4747L392.247 29.4847L393.206 29.2ZM392.006 24.9L391.041 25.1631L391.041 25.1631L392.006 24.9ZM390.906 20.7L391.876 20.4575L391.876 20.4575L390.906 20.7ZM390.006 17.3L389.025 17.4961L389.033 17.5358L389.044 17.5747L390.006 17.3ZM389.606 15.1L390.596 14.9586L388.616 14.9586L389.606 15.1ZM389.206 17.3L388.225 17.1039L388.22 17.1311L388.216 17.1586L389.206 17.3ZM387.406 25L386.438 24.7476L386.434 24.7629L386.431 24.7784L387.406 25ZM386.206 29.5L385.249 29.2088L385.246 29.2212L386.206 29.5ZM372.706 76V77H373.457L373.666 76.2788L372.706 76ZM363.606 76L362.639 76.2559L362.836 77H363.606V76ZM344.706 4.6V3.6H343.407L343.739 4.85589L344.706 4.6ZM354.106 4.6L355.075 4.35328L354.883 3.6H354.106V4.6ZM365.206 48.2L364.237 48.4467L364.238 48.4524L365.206 48.2ZM366.306 52.8L365.329 53.0124L365.331 53.0216L366.306 52.8ZM367.206 57.2L366.222 57.3789L366.227 57.4054L366.233 57.4316L367.206 57.2ZM368.006 61.3L367.017 61.4483L367.017 61.4483L368.006 61.3ZM368.606 65.2L367.618 65.356L369.595 65.3483L368.606 65.2ZM369.206 61.1L368.224 60.9129L368.219 60.9356L368.216 60.9586L369.206 61.1ZM370.106 56.8L371.081 57.0216L371.083 57.0124L370.106 56.8ZM371.206 52.2L370.238 51.9476L370.238 51.9476L371.206 52.2ZM372.406 47.7L371.446 47.4194L371.443 47.4281L371.441 47.4369L372.406 47.7ZM385.006 4.6V3.6H384.256L384.046 4.3194L385.006 4.6ZM394.306 4.6L395.263 4.31103L395.049 3.6H394.306V4.6ZM407.406 48L406.449 48.289L406.449 48.2912L407.406 48ZM408.706 52.7L407.736 52.9425L407.738 52.9524L408.706 52.7ZM410.606 61.5L409.616 61.6414L409.62 61.6689L409.625 61.6961L410.606 61.5ZM411.306 65.2L410.321 65.3738L412.299 65.3191L411.306 65.2ZM412.106 60L413.089 60.1821L413.09 60.1758L412.106 60ZM413.306 54.2L412.332 53.9728L412.332 53.9728L413.306 54.2ZM414.806 48.1L415.774 48.3499L415.775 48.3452L414.806 48.1ZM425.806 4.6V3.6H425.027L424.836 4.35484L425.806 4.6ZM434.239 4.34284L415.239 75.7428L417.172 76.2572L436.172 4.85715L434.239 4.34284ZM416.206 75H407.106V77H416.206V75ZM408.064 75.7153L394.164 28.9153L392.247 29.4847L406.147 76.2847L408.064 75.7153ZM394.167 28.9253C393.769 27.5293 393.37 26.0998 392.971 24.6369L391.041 25.1631C391.442 26.6335 391.843 28.0707 392.244 29.4747L394.167 28.9253ZM392.971 24.6369C392.572 23.1763 392.207 21.7832 391.876 20.4575L389.936 20.9425C390.271 22.2834 390.639 23.6903 391.041 25.1631L392.971 24.6369ZM391.876 20.4575C391.541 19.1174 391.238 17.9727 390.967 17.0253L389.044 17.5747C389.307 18.494 389.604 19.6159 389.936 20.9425L391.876 20.4575ZM390.986 17.1039C390.787 16.1062 390.658 15.3959 390.596 14.9586L388.616 15.2414C388.687 15.7374 388.825 16.4938 389.025 17.4961L390.986 17.1039ZM388.616 14.9586C388.553 15.3959 388.425 16.1062 388.225 17.1039L390.186 17.4961C390.387 16.4938 390.525 15.7374 390.596 15.2414L388.616 14.9586ZM388.216 17.1586C388.089 18.0464 387.864 19.1439 387.536 20.4575L389.476 20.9425C389.814 19.5895 390.056 18.4203 390.196 17.4414L388.216 17.1586ZM387.536 20.4575C387.203 21.787 386.838 23.217 386.438 24.7476L388.373 25.2524C388.774 23.7163 389.142 22.2796 389.476 20.9425L387.536 20.4575ZM386.431 24.7784C386.103 26.2202 385.709 27.697 385.249 29.2088L387.163 29.7912C387.636 28.2364 388.042 26.7131 388.381 25.2216L386.431 24.7784ZM385.246 29.2212L371.746 75.7212L373.666 76.2788L387.166 29.7788L385.246 29.2212ZM372.706 75H363.606V77H372.706V75ZM364.573 75.7441L345.673 4.3441L343.739 4.85589L362.639 76.2559L364.573 75.7441ZM344.706 5.6H354.106V3.6H344.706V5.6ZM353.137 4.84671L364.237 48.4467L366.175 47.9533L355.075 4.35328L353.137 4.84671ZM364.238 48.4524C364.635 49.9726 364.998 51.4926 365.329 53.0124L367.283 52.5876C366.947 51.0407 366.577 49.494 366.173 47.9476L364.238 48.4524ZM365.331 53.0216C365.661 54.4742 365.958 55.9267 366.222 57.3789L368.19 57.0211C367.92 55.54 367.618 54.0591 367.281 52.5784L365.331 53.0216ZM366.233 57.4316C366.56 58.8059 366.821 60.1448 367.017 61.4483L368.995 61.1517C368.79 59.7886 368.518 58.3941 368.179 56.9684L366.233 57.4316ZM367.017 61.4483C367.217 62.7841 367.418 64.0866 367.618 65.356L369.594 65.044C369.394 63.78 369.194 62.4826 368.995 61.1517L367.017 61.4483ZM369.595 65.3483C369.795 64.0126 369.995 62.6436 370.196 61.2414L368.216 60.9586C368.016 62.3564 367.817 63.7207 367.617 65.0517L369.595 65.3483ZM370.188 61.2871C370.453 59.8993 370.75 58.4775 371.081 57.0216L369.131 56.5784C368.795 58.0559 368.493 59.5007 368.224 60.9129L370.188 61.2871ZM371.083 57.0124C371.413 55.4926 371.777 53.9726 372.173 52.4524L370.238 51.9476C369.835 53.494 369.465 55.0407 369.129 56.5876L371.083 57.0124ZM372.173 52.4524C372.573 50.9225 372.972 49.4261 373.371 47.9631L371.441 47.4369C371.04 48.9073 370.639 50.4108 370.238 51.9476L372.173 52.4524ZM373.366 47.9806L385.966 4.88059L384.046 4.3194L371.446 47.4194L373.366 47.9806ZM385.006 5.6H394.306V3.6H385.006V5.6ZM393.349 4.88896L406.449 48.289L408.363 47.711L395.263 4.31103L393.349 4.88896ZM406.449 48.2912C406.911 49.8079 407.34 51.3584 407.736 52.9425L409.676 52.4575C409.272 50.8416 408.834 49.2587 408.363 47.7088L406.449 48.2912ZM407.738 52.9524C408.136 54.4761 408.5 55.9658 408.831 57.4216L410.781 56.9784C410.445 55.5009 410.076 53.9906 409.673 52.4476L407.738 52.9524ZM408.831 57.4216C409.158 58.8634 409.42 60.27 409.616 61.6414L411.596 61.3586C411.392 59.93 411.12 58.4699 410.781 56.9784L408.831 57.4216ZM409.625 61.6961C409.891 63.0233 410.123 64.2491 410.321 65.3738L412.291 65.0262C412.089 63.8842 411.854 62.6434 411.586 61.3039L409.625 61.6961ZM412.299 65.3191C412.496 63.6753 412.759 61.9631 413.089 60.1821L411.123 59.8179C410.786 61.6369 410.516 63.3913 410.313 65.0809L412.299 65.3191ZM413.09 60.1758C413.42 58.3277 413.817 56.4116 414.28 54.4272L412.332 53.9728C411.862 55.9884 411.458 57.939 411.121 59.8242L413.09 60.1758ZM414.28 54.4272C414.745 52.4351 415.243 50.4093 415.774 48.3499L413.838 47.8501C413.302 49.924 412.801 51.9649 412.332 53.9728L414.28 54.4272ZM415.775 48.3452L426.775 4.84515L424.836 4.35484L413.836 47.8548L415.775 48.3452ZM425.806 5.6H435.206V3.6H425.806V5.6ZM477.821 25.8L478.497 25.0622L478.497 25.0622L477.821 25.8ZM482.521 76V77H483.521V76H482.521ZM476.121 76L475.146 76.2183L475.32 77H476.121V76ZM474.421 68.4L475.397 68.1817L475.223 67.4H474.421V68.4ZM474.021 68.4V67.4H473.538L473.238 67.7786L474.021 68.4ZM469.221 73.3L469.842 74.0841L469.846 74.0809L469.221 73.3ZM463.621 76.1L463.351 75.1373L463.343 75.1397L463.621 76.1ZM447.321 75.3L446.913 76.2129L446.922 76.2167L447.321 75.3ZM441.321 70.1L440.468 70.6215L440.475 70.6322L441.321 70.1ZM445.421 48.8L445.985 49.626L445.994 49.6198L445.421 48.8ZM464.821 44L464.852 44.9995L464.854 44.9995L464.821 44ZM473.921 43.7L473.954 44.6995L474.921 44.6676V43.7H473.921ZM471.021 31.2L470.354 31.9446L470.354 31.9446L471.021 31.2ZM454.821 29.9L455.123 30.8536L455.134 30.85L455.145 30.8462L454.821 29.9ZM447.721 32.7L446.796 33.0786L447.199 34.0645L448.158 33.5998L447.721 32.7ZM445.021 26.1L444.544 25.2211L443.756 25.6489L444.096 26.4786L445.021 26.1ZM453.321 22.9L453.583 23.8652L453.592 23.8627L453.601 23.86L453.321 22.9ZM465.921 50.1L465.884 49.1007L465.882 49.1008L465.921 50.1ZM452.021 53.3L451.438 52.4876L451.428 52.4949L452.021 53.3ZM450.921 67.8L450.308 68.5894L450.314 68.5947L450.321 68.6L450.921 67.8ZM469.321 66.2L469.957 66.9725L469.967 66.964L469.321 66.2ZM473.821 49.8H474.821V48.7613L473.784 48.8007L473.821 49.8ZM463.321 22.5C469.735 22.5 474.275 23.9107 477.146 26.5378L478.497 25.0622C475.101 21.956 469.975 20.5 463.321 20.5V22.5ZM477.146 26.5378C479.991 29.1401 481.521 33.3793 481.521 39.5H483.521C483.521 33.0873 481.919 28.1933 478.497 25.0622L477.146 26.5378ZM481.521 39.5V76H483.521V39.5H481.521ZM482.521 75H476.121V77H482.521V75ZM477.097 75.7817L475.397 68.1817L473.446 68.6183L475.146 76.2183L477.097 75.7817ZM474.421 67.4H474.021V69.4H474.421V67.4ZM473.238 67.7786C471.744 69.6619 470.196 71.2394 468.597 72.5191L469.846 74.0809C471.58 72.6939 473.232 71.0048 474.805 69.0214L473.238 67.7786ZM468.601 72.516C467.113 73.6937 465.368 74.5701 463.351 75.1373L463.892 77.0627C466.142 76.4299 468.13 75.4396 469.842 74.084L468.601 72.516ZM463.343 75.1397C461.394 75.7053 458.961 76 456.021 76V78C459.082 78 461.715 77.6947 463.9 77.0603L463.343 75.1397ZM456.021 76C452.941 76 450.18 75.4551 447.721 74.3833L446.922 76.2167C449.663 77.4116 452.702 78 456.021 78V76ZM447.73 74.3872C445.376 73.334 443.529 71.7325 442.168 69.5678L440.475 70.6322C442.048 73.1342 444.201 74.9993 446.913 76.2128L447.73 74.3872ZM442.175 69.5785C440.827 67.3739 440.121 64.5667 440.121 61.1H438.121C438.121 64.8332 438.882 68.0261 440.468 70.6214L442.175 69.5785ZM440.121 61.1C440.121 56.078 442.074 52.2957 445.985 49.6259L444.858 47.974C440.369 51.0376 438.121 55.4554 438.121 61.1H440.121ZM445.994 49.6198C449.958 46.8515 456.191 45.264 464.852 44.9995L464.791 43.0005C455.985 43.2693 449.285 44.8818 444.849 47.9802L445.994 49.6198ZM464.854 44.9995L473.954 44.6995L473.889 42.7005L464.789 43.0005L464.854 44.9995ZM474.921 43.7V40.5H472.921V43.7H474.921ZM474.921 40.5C474.921 35.9432 473.945 32.4778 471.689 30.4554L470.354 31.9446C471.965 33.3889 472.921 36.1234 472.921 40.5H474.921ZM471.689 30.4554C469.515 28.5062 466.512 27.6 462.821 27.6V29.6C466.198 29.6 468.661 30.4271 470.354 31.9446L471.689 30.4554ZM462.821 27.6C459.916 27.6 457.14 28.0499 454.498 28.9538L455.145 30.8462C457.57 30.0167 460.127 29.6 462.821 29.6V27.6ZM454.52 28.9464C451.945 29.7598 449.532 30.7106 447.285 31.8002L448.158 33.5998C450.311 32.5561 452.632 31.6402 455.123 30.8536L454.52 28.9464ZM448.647 32.3214L445.947 25.7214L444.096 26.4786L446.796 33.0786L448.647 32.3214ZM445.499 26.9789C447.749 25.7571 450.44 24.7164 453.583 23.8652L453.06 21.9348C449.803 22.817 446.96 23.9096 444.544 25.2211L445.499 26.9789ZM453.601 23.86C456.707 22.9542 459.946 22.5 463.321 22.5V20.5C459.764 20.5 456.336 20.9791 453.041 21.94L453.601 23.86ZM465.882 49.1008C459.191 49.3684 454.295 50.4367 451.438 52.4877L452.605 54.1123C454.948 52.4299 459.319 51.3649 465.961 51.0992L465.882 49.1008ZM451.428 52.4949C448.616 54.5671 447.221 57.512 447.221 61.2H449.221C449.221 58.088 450.36 55.7663 452.615 54.1051L451.428 52.4949ZM447.221 61.2C447.221 64.4032 448.191 66.9434 450.308 68.5894L451.535 67.0106C450.052 65.8566 449.221 63.9968 449.221 61.2H447.221ZM450.321 68.6C452.398 70.1572 454.989 70.9 458.021 70.9V68.9C455.321 68.9 453.179 68.2428 451.521 67L450.321 68.6ZM458.021 70.9C462.746 70.9 466.749 69.6101 469.957 66.9724L468.686 65.4276C465.894 67.7232 462.364 68.9 458.021 68.9V70.9ZM469.967 66.964C473.259 64.1836 474.821 59.9928 474.821 54.6H472.821C472.821 59.6072 471.384 63.1497 468.676 65.436L469.967 66.964ZM474.821 54.6V49.8H472.821V54.6H474.821ZM473.784 48.8007L465.884 49.1007L465.959 51.0993L473.859 50.7993L473.784 48.8007ZM527.276 21.6L527.159 22.5931L527.19 22.5967L527.221 22.5985L527.276 21.6ZM530.376 22L531.367 22.1346L531.49 21.2307L530.601 21.0256L530.376 22ZM529.276 30.1L529.051 31.0744L530.12 31.3209L530.267 30.2346L529.276 30.1ZM526.376 29.6L526.244 30.5913L526.252 30.5923L526.376 29.6ZM517.576 30.7L517.997 31.607L517.997 31.607L517.576 30.7ZM512.576 34.4L513.299 35.0912L513.306 35.0835L513.313 35.0757L512.576 34.4ZM509.076 40L508.146 39.6335L508.141 39.6458L508.136 39.6583L509.076 40ZM507.876 76V77H508.876V76H507.876ZM499.076 76H498.076V77H499.076V76ZM499.076 22.4V21.4H498.076V22.4H499.076ZM506.276 22.4L507.271 22.2985L507.179 21.4H506.276V22.4ZM507.276 32.2L506.281 32.3015L506.373 33.2H507.276V32.2ZM507.676 32.2V33.2H508.259L508.546 32.693L507.676 32.2ZM511.776 26.8L512.483 27.5071L512.49 27.4999L512.498 27.4925L511.776 26.8ZM517.276 22.9L517.688 23.8114L517.7 23.8059L517.712 23.8002L517.276 22.9ZM524.076 22.4C525.032 22.4 526.059 22.4638 527.159 22.5931L527.393 20.6068C526.226 20.4696 525.12 20.4 524.076 20.4V22.4ZM527.221 22.5985C528.382 22.663 529.356 22.7908 530.151 22.9744L530.601 21.0256C529.663 20.8092 528.57 20.6703 527.332 20.6015L527.221 22.5985ZM529.385 21.8654L528.285 29.9654L530.267 30.2346L531.367 22.1346L529.385 21.8654ZM529.501 29.1256C528.595 28.9165 527.594 28.7445 526.5 28.6077L526.252 30.5923C527.292 30.7222 528.224 30.8835 529.051 31.0744L529.501 29.1256ZM526.508 28.6088C525.468 28.4701 524.457 28.4 523.476 28.4V30.4C524.362 30.4 525.284 30.4633 526.244 30.5912L526.508 28.6088ZM523.476 28.4C521.265 28.4 519.154 28.8648 517.155 29.793L517.997 31.607C519.731 30.8019 521.554 30.4 523.476 30.4V28.4ZM517.155 29.793C515.162 30.7182 513.39 32.0325 511.839 33.7243L513.313 35.0757C514.696 33.5675 516.257 32.4152 517.997 31.607L517.155 29.793ZM511.854 33.7088C510.287 35.346 509.055 37.3266 508.146 39.6335L510.007 40.3665C510.831 38.2734 511.932 36.5207 513.299 35.0912L511.854 33.7088ZM508.136 39.6583C507.29 41.9845 506.876 44.5693 506.876 47.4H508.876C508.876 44.7641 509.262 42.4155 510.016 40.3417L508.136 39.6583ZM506.876 47.4V76H508.876V47.4H506.876ZM507.876 75H499.076V77H507.876V75ZM500.076 76V22.4H498.076V76H500.076ZM499.076 23.4H506.276V21.4H499.076V23.4ZM505.281 22.5015L506.281 32.3015L508.271 32.0985L507.271 22.2985L505.281 22.5015ZM507.276 33.2H507.676V31.2H507.276V33.2ZM508.546 32.693C509.636 30.7701 510.948 29.0424 512.483 27.5071L511.069 26.0929C509.404 27.7576 507.983 29.6299 506.806 31.707L508.546 32.693ZM512.498 27.4925C514.011 25.9161 515.74 24.6912 517.688 23.8114L516.865 21.9886C514.679 22.9755 512.741 24.3505 511.055 26.1075L512.498 27.4925ZM517.712 23.8002C519.633 22.8707 521.749 22.4 524.076 22.4V20.4C521.47 20.4 519.053 20.9293 516.841 21.9998L517.712 23.8002ZM572.685 69.9L571.882 69.3037L571.882 69.3037L572.685 69.9ZM565.285 75.2L564.934 74.2637L565.285 75.2ZM544.185 76.1L543.965 77.0756L543.97 77.0767L544.185 76.1ZM537.085 73.6H536.085V74.2092L536.626 74.4886L537.085 73.6ZM537.085 65.6L537.532 64.7056L536.085 63.982V65.6H537.085ZM544.785 68.6L544.488 69.5549L544.5 69.5587L544.513 69.5623L544.785 68.6ZM563.785 67.8L564.358 68.6192L564.367 68.6129L564.376 68.6064L563.785 67.8ZM565.685 58.4L566.509 57.8335L566.509 57.8335L565.685 58.4ZM561.685 55.2L561.189 56.0682L561.195 56.072L561.202 56.0756L561.685 55.2ZM553.585 51.6L553.226 52.5334L553.232 52.5356L553.585 51.6ZM538.985 42.8L538.171 43.3812L538.171 43.3812L538.985 42.8ZM542.485 25.1L541.933 24.2656L541.927 24.2703L542.485 25.1ZM566.185 22.4L565.953 23.3728L565.966 23.376L565.98 23.3788L566.185 22.4ZM574.185 25L575.104 25.3939L575.488 24.4982L574.602 24.0913L574.185 25ZM571.185 32L570.771 32.9104L571.701 33.3333L572.104 32.3939L571.185 32ZM566.485 30.3L566.169 31.2487L566.192 31.2564L566.215 31.263L566.485 30.3ZM561.585 29.1L561.389 30.0806L561.408 30.0844L561.427 30.0874L561.585 29.1ZM548.185 30.4L548.704 31.2548L548.712 31.2496L548.185 30.4ZM546.685 38.9L545.909 39.5306L545.919 39.5429L545.929 39.5549L546.685 38.9ZM550.985 41.9L550.538 42.7944L550.555 42.8032L550.573 42.8114L550.985 41.9ZM559.185 45.3L558.82 46.231L558.828 46.2341L558.836 46.2371L559.185 45.3ZM567.885 49.2L567.399 50.0742L567.399 50.0742L567.885 49.2ZM573.385 54.1L572.548 54.648L572.553 54.6548L572.557 54.6615L573.385 54.1ZM574.285 61.2C574.285 64.4945 573.464 67.1741 571.882 69.3037L573.488 70.4963C575.372 67.9592 576.285 64.8389 576.285 61.2H574.285ZM571.882 69.3037C570.282 71.4571 567.986 73.1191 564.934 74.2637L565.636 76.1363C568.984 74.8809 571.621 73.0096 573.488 70.4963L571.882 69.3037ZM564.934 74.2637C561.873 75.4114 558.198 76 553.885 76V78C558.372 78 562.297 77.3886 565.636 76.1363L564.934 74.2637ZM553.885 76C550.201 76 547.043 75.7037 544.399 75.1233L543.97 77.0767C546.793 77.6963 550.102 78 553.885 78V76ZM544.404 75.1244C541.807 74.5399 539.523 73.7329 537.543 72.7114L536.626 74.4886C538.78 75.6005 541.23 76.4601 543.965 77.0756L544.404 75.1244ZM538.085 73.6V65.6H536.085V73.6H538.085ZM536.638 66.4944C538.832 67.5915 541.451 68.6102 544.488 69.5549L545.082 67.6451C542.118 66.7231 539.605 65.7419 537.532 64.7056L536.638 66.4944ZM544.513 69.5623C547.666 70.4536 550.858 70.9 554.085 70.9V68.9C551.045 68.9 548.036 68.4798 545.057 67.6377L544.513 69.5623ZM554.085 70.9C558.609 70.9 562.1 70.1999 564.358 68.6192L563.211 66.9808C561.469 68.2001 558.494 68.9 554.085 68.9V70.9ZM564.376 68.6064C566.623 66.9588 567.785 64.7309 567.785 62H565.785C565.785 64.0691 564.947 65.7079 563.193 66.9936L564.376 68.6064ZM567.785 62C567.785 60.4708 567.36 59.0721 566.509 57.8335L564.861 58.9665C565.476 59.8612 565.785 60.8625 565.785 62H567.785ZM566.509 57.8335C565.646 56.5782 564.154 55.4201 562.168 54.3244L561.202 56.0756C563.082 57.1132 564.257 58.0884 564.861 58.9665L566.509 57.8335ZM562.181 54.3318C560.247 53.2264 557.49 52.0047 553.938 50.6644L553.232 52.5356C556.747 53.862 559.39 55.0402 561.189 56.0682L562.181 54.3318ZM553.944 50.6667C550.505 49.3441 547.579 48.028 545.16 46.7203L544.209 48.4797C546.723 49.8387 549.731 51.1893 553.226 52.5333L553.944 50.6667ZM545.16 46.7203C542.798 45.4436 541.026 43.937 539.798 42.2188L538.171 43.3812C539.61 45.3963 541.638 47.0898 544.209 48.4797L545.16 46.7203ZM539.798 42.2188C538.616 40.5636 537.985 38.3831 537.985 35.6H535.985C535.985 38.6836 536.687 41.3031 538.171 43.3812L539.798 42.2188ZM537.985 35.6C537.985 31.3892 539.661 28.2049 543.043 25.9297L541.927 24.2703C537.975 26.9284 535.985 30.7441 535.985 35.6H537.985ZM543.036 25.9343C546.559 23.6068 551.215 22.4 557.085 22.4V20.4C550.954 20.4 545.877 21.6598 541.934 24.2657L543.036 25.9343ZM557.085 22.4C560.284 22.4 563.238 22.7264 565.953 23.3728L566.416 21.4272C563.531 20.7402 560.419 20.4 557.085 20.4V22.4ZM565.98 23.3788C568.779 23.9646 571.374 24.8089 573.767 25.9087L574.602 24.0913C572.062 22.9244 569.324 22.0353 566.39 21.4212L565.98 23.3788ZM573.266 24.6061L570.266 31.6061L572.104 32.3939L575.104 25.3939L573.266 24.6061ZM571.599 31.0896C570.082 30.4003 568.467 29.8165 566.754 29.337L566.215 31.263C567.836 31.7168 569.354 32.2664 570.771 32.9104L571.599 31.0896ZM566.801 29.3513C565.149 28.8008 563.463 28.3878 561.743 28.1126L561.427 30.0874C563.04 30.3455 564.62 30.7326 566.169 31.2487L566.801 29.3513ZM561.781 28.1194C560.048 27.7729 558.283 27.6 556.485 27.6V29.6C558.154 29.6 559.788 29.7604 561.389 30.0806L561.781 28.1194ZM556.485 27.6C552.797 27.6 549.816 28.2105 547.657 29.5504L548.712 31.2496C550.42 30.1895 552.972 29.6 556.485 29.6V27.6ZM547.666 29.5452C545.533 30.8398 544.385 32.7136 544.385 35.1H546.385C546.385 33.4864 547.103 32.2268 548.704 31.2548L547.666 29.5452ZM544.385 35.1C544.385 36.7798 544.887 38.2732 545.909 39.5306L547.461 38.2694C546.749 37.3934 546.385 36.3536 546.385 35.1H544.385ZM545.929 39.5549C546.921 40.6999 548.49 41.7706 550.538 42.7944L551.432 41.0056C549.48 40.0294 548.181 39.1001 547.44 38.2451L545.929 39.5549ZM550.573 42.8114C552.662 43.7545 555.412 44.8947 558.82 46.231L559.55 44.369C556.157 43.0386 553.441 41.9122 551.396 40.9886L550.573 42.8114ZM558.836 46.2371C562.203 47.4914 565.054 48.7715 567.399 50.0742L568.37 48.3258C565.915 46.9618 562.967 45.6419 559.534 44.3629L558.836 46.2371ZM567.399 50.0742C569.684 51.3435 571.386 52.8735 572.548 54.648L574.221 53.552C572.851 51.4598 570.886 49.7231 568.37 48.3258L567.399 50.0742ZM572.557 54.6615C573.685 56.3228 574.285 58.4794 574.285 61.2H576.285C576.285 58.1872 575.618 55.6106 574.212 53.5385L572.557 54.6615Z" fill="#976D00"/>
</g>
<defs>
<filter id="filter0_d_858_193" x="0.964844" y="0" width="578.32" height="108" filterUnits="userSpaceOnUse" color-interpolation-filters="sRGB">
<feFlood flood-opacity="0" result="BackgroundImageFix"/>
<feColorMatrix in="SourceAlpha" type="matrix" values="0 0 0 0 0 0 0 0 0 0 0 0 0 0 0 0 0 0 127 0" result="hardAlpha"/>
<feOffset dy="4"/>
<feGaussianBlur stdDeviation="2"/>
<feComposite in2="hardAlpha" operator="out"/>
<feColorMatrix type="matrix" values="0 0 0 0 0 0 0 0 0 0 0 0 0 0 0 0 0 0 0.25 0"/>
<feBlend mode="normal" in2="BackgroundImageFix" result="effect1_dropShadow_858_193"/>
<feBlend mode="normal" in="SourceGraphic" in2="effect1_dropShadow_858_193" result="shape"/>
</filter>
</defs>
</svg>
