<svg width="157" height="106" viewBox="0 0 157 106" fill="none" xmlns="http://www.w3.org/2000/svg">
<path fill-rule="evenodd" clip-rule="evenodd" d="M155.677 34.441C155.132 34.0513 154.587 33.8175 153.886 33.8954C153.108 33.9734 152.252 33.9734 151.396 33.9734C152.252 33.2719 153.108 32.6485 153.886 31.9471C154.665 31.3236 155.365 30.5443 155.677 29.6091C155.988 28.7518 155.599 28.1283 154.665 27.9724C154.354 27.8945 153.964 27.9724 153.575 27.9724C153.108 28.0504 152.641 28.1283 152.174 28.2062C153.03 27.1931 153.886 26.2579 154.665 25.3227C155.365 24.5433 155.832 23.6081 156.144 22.595C156.377 21.7377 156.144 21.348 155.288 21.2701C154.587 21.1922 153.886 21.2701 153.264 21.2701C153.108 21.2701 152.952 21.2701 152.641 21.348C152.952 20.9584 153.186 20.7246 153.419 20.4908C154.198 19.7114 154.665 18.7762 154.976 17.6852C155.054 17.2176 155.132 16.8279 155.288 16.3603C155.443 15.8147 155.443 15.3471 154.976 15.0354C154.509 14.6457 153.964 14.4899 153.419 14.8016C152.797 15.1133 152.174 15.5809 151.629 15.9706C150.773 16.5941 149.995 17.2955 149.061 18.0748C149.138 17.841 149.138 17.7631 149.216 17.6852C149.605 16.8279 150.072 15.9706 150.462 15.0354C151.24 13.3208 151.551 11.5284 151.084 9.65796C150.851 8.80068 150.072 8.48895 149.372 8.95655C149.061 9.19036 148.827 9.42415 148.593 9.65796C147.659 10.6711 146.881 11.7622 146.258 12.9312C146.181 13.0871 146.025 13.2429 145.869 13.4767C146.025 12.0739 146.103 10.827 146.181 9.58002C146.336 7.55373 145.48 5.83919 144.546 4.20258C144.468 4.12464 144.39 3.96878 144.312 3.89085C144.001 3.65705 143.768 3.65705 143.534 3.96879C143.378 4.12465 143.223 4.35845 143.145 4.59225C142.678 5.60539 142.133 6.61853 141.666 7.63167C141.588 7.86547 141.51 8.17722 141.199 8.25515C141.199 8.09929 141.199 7.94341 141.121 7.78755C141.043 6.22887 140.81 4.67019 140.187 3.18945C139.876 2.41011 139.409 1.70869 138.552 1.47489C137.696 1.24109 136.762 1.78662 136.606 2.56596C136.451 3.42323 136.295 4.28053 136.217 5.21573C136.139 6.22888 136.139 7.31995 136.062 8.33309C135.984 9.2683 135.906 10.2035 135.828 11.2946C135.75 11.0608 135.672 11.0608 135.672 10.9828C135.595 10.749 135.517 10.5932 135.517 10.3594C135.05 7.78754 134.271 5.29366 133.415 2.79978C133.026 1.78664 132.559 0.929358 131.547 0.38382C130.535 -0.161717 130.146 -0.0837927 129.29 0.617613C128.978 0.929349 128.901 1.16316 129.056 1.55283C129.445 2.72184 129.912 3.81291 130.224 4.98192C130.846 7.08613 131.391 9.19036 131.625 11.3725C132.17 16.3603 131.391 21.3481 129.912 26.102C128.589 30.2325 127.266 35.61 123.063 37.6362C116.135 40.8315 108.273 41.9226 100.801 42.7019C100.178 42.7799 99.5556 42.702 98.8551 42.624C98.9329 42.3123 99.0107 42.0785 99.0886 41.9226C99.3999 40.9874 99.7891 39.9743 100.1 39.0391C100.334 38.3377 100.49 37.6362 99.9448 36.9348C100.49 36.3114 100.49 35.61 100.256 34.9086C100.178 34.7527 100.178 34.6747 100.1 34.5189C99.9448 33.8175 100.178 33.5057 100.879 33.4278C101.346 33.4278 101.735 33.3499 102.202 33.3499C102.747 33.3499 103.214 33.1161 103.603 32.7264C103.992 32.4147 104.07 32.1029 103.915 31.6353C103.603 30.7781 102.98 30.2325 102.046 30.2325C101.502 30.2325 101.035 30.3104 100.49 30.2325C99.7113 30.2325 99.5556 29.8429 99.9448 29.2194C100.178 28.7518 100.645 28.518 101.112 28.3621C101.813 28.1283 102.358 27.7386 102.747 27.1931C103.136 26.6476 103.136 26.2579 102.669 25.7124C102.202 25.1668 101.502 24.8551 100.801 24.933C100.256 25.0109 99.6335 25.1668 99.0886 25.2447C98.7772 25.3227 98.5437 25.4006 98.0767 25.5565C98.2324 25.1668 98.2324 24.933 98.388 24.8551C98.6215 24.6213 98.8551 24.3875 99.1664 24.0757C99.7891 23.4523 100.023 22.6729 99.6334 21.9715C99.2443 21.2701 98.6216 20.7246 97.7653 20.6466C96.9091 20.5687 96.2086 20.5687 95.4302 20.9584C94.7297 21.2701 94.6518 21.2701 94.1848 20.7246C93.7956 20.3349 93.4842 19.9452 93.0951 19.6335C92.628 19.2438 92.161 18.9321 91.6161 18.6983C90.5264 18.3086 89.748 19.01 89.748 20.179C89.748 20.9584 90.1372 21.5039 90.6042 21.9715C92.0832 23.5302 93.4842 25.2447 94.4961 27.1931C95.1967 28.5959 95.9751 29.9987 96.5978 31.4015C97.6875 34.1292 97.2983 36.8569 96.1307 39.5067C95.508 40.9095 95.041 42.4682 93.7956 43.4034C93.7178 43.1696 93.6399 43.0137 93.6399 42.8578C93.3286 40.9874 92.0053 39.4287 91.7718 37.4804C91.4605 35.2203 91.5383 33.4278 90.4486 31.2457C90.1372 30.6222 90.1372 30.3105 90.6042 29.7649C91.4605 28.8297 91.9275 27.7386 92.0832 26.4138C92.2389 25.0109 90.9934 24.1537 90.0594 24.2316C89.5145 24.3095 88.8918 24.3875 88.3469 24.5433C88.1913 24.5433 87.9578 24.6213 87.7243 24.6992C87.7243 24.3096 87.8021 23.9978 87.8021 23.6861C87.8799 23.2185 87.9577 22.6729 87.9577 22.2053C87.9577 21.5819 87.8799 20.9584 87.4129 20.4908C86.868 19.8673 86.0118 19.7894 85.1556 20.179C84.3772 20.5687 83.6767 21.0363 82.9761 21.5039C82.5091 21.8157 82.0421 22.1274 81.4972 22.2833C81.4972 22.2053 81.4194 22.1274 81.4194 22.0494C81.1859 21.426 81.0302 20.8804 80.8745 20.257C80.7188 19.6335 80.641 19.01 80.5631 18.3866C80.5631 18.2307 80.4853 18.0748 80.4075 17.919C80.4075 17.841 80.4075 17.841 80.4075 17.7631C80.4075 17.4513 80.4075 17.1396 80.4075 16.8279C80.4075 16.2044 80.0183 15.8148 79.7069 15.3471C79.3177 14.8795 78.695 14.4899 78.228 14.1002C78.1502 14.1002 78.1502 14.0223 78.1502 14.0223L78.0723 14.1002C77.6053 14.4899 76.9826 14.8795 76.5934 15.3471C76.2821 15.8148 75.8929 16.2044 75.8929 16.8279C75.8929 17.1396 75.815 17.4513 75.8929 17.7631C75.8929 17.7631 75.8929 17.841 75.8929 17.919C75.815 18.0748 75.815 18.2307 75.7372 18.3866C75.6594 19.01 75.5037 19.6335 75.4258 20.257C75.2702 20.8804 75.1145 21.5039 74.881 22.0494C74.881 22.1274 74.8031 22.2053 74.8031 22.2833C74.2583 22.1274 73.7913 21.8157 73.3242 21.5039C72.6237 21.0363 71.8453 20.5687 71.1448 20.179C70.2885 19.7114 69.4323 19.8673 68.8875 20.4908C68.4204 20.9584 68.3426 21.5819 68.3426 22.2053C68.3426 22.6729 68.4204 23.2185 68.4983 23.6861C68.4983 23.9978 68.5761 24.3096 68.5761 24.6992C68.3426 24.6213 68.1091 24.6213 67.9534 24.5433C67.4086 24.4654 66.7858 24.3095 66.241 24.2316C65.3069 24.1537 64.0615 25.0889 64.2172 26.4138C64.3729 27.6607 64.8399 28.8297 65.6961 29.7649C66.1631 30.2325 66.0853 30.6222 65.8518 31.2457C64.7621 33.4278 64.8399 35.2203 64.5285 37.4804C64.295 39.3508 62.8939 40.9874 62.6604 42.8578C62.6604 43.0137 62.5826 43.1696 62.5048 43.4034C61.2594 42.4682 60.7923 40.9095 60.1696 39.5067C59.0021 36.8569 58.6129 34.1292 59.7026 31.4015C60.2475 29.9208 61.1037 28.5959 61.8042 27.1931C62.7383 25.2447 64.1393 23.5302 65.6961 21.9715C66.1631 21.426 66.5523 20.8804 66.5523 20.179C66.5523 19.01 65.7739 18.3866 64.6842 18.6983C64.1394 18.8542 63.6723 19.2438 63.2053 19.6335C62.8161 19.9452 62.5048 20.4128 62.1156 20.7246C61.5707 21.2701 61.5707 21.348 60.8702 20.9584C60.0918 20.5687 59.3912 20.4908 58.535 20.6466C57.6788 20.7246 57.0561 21.2701 56.6669 21.9715C56.2777 22.6729 56.4334 23.4523 57.1339 24.0757C57.3674 24.3095 57.6788 24.5433 57.9123 24.8551C58.068 25.0109 58.068 25.2447 58.2237 25.5565C57.7567 25.4006 57.5231 25.3227 57.2118 25.2447C56.6669 25.0889 56.1221 24.933 55.4994 24.933C54.721 24.8551 54.0983 25.1668 53.6312 25.7124C53.1642 26.2579 53.1642 26.6476 53.5534 27.1931C53.9426 27.7386 54.4874 28.2062 55.188 28.3621C55.655 28.518 56.122 28.8297 56.3556 29.2194C56.7447 29.8429 56.5891 30.2325 55.8107 30.2325C55.2658 30.2325 54.7988 30.1546 54.2539 30.2325C53.3199 30.3104 52.775 30.856 52.3858 31.6353C52.2302 32.1029 52.308 32.4147 52.6972 32.7264C53.0864 33.0381 53.5534 33.3499 54.0983 33.3499C54.5653 33.3499 54.9545 33.4278 55.4215 33.4278C56.1221 33.5057 56.3556 33.8175 56.1999 34.5189C56.1999 34.6747 56.122 34.7527 56.0442 34.9086C55.8107 35.61 55.8107 36.3114 56.3556 36.9348C55.8107 37.6362 55.9664 38.3377 56.1999 39.0391C56.5112 39.9743 56.8226 40.9874 57.2118 41.9226C57.2896 42.1564 57.3675 42.3123 57.4453 42.624C56.7448 42.624 56.1221 42.7799 55.4994 42.7019C48.0269 41.8447 40.0874 40.8315 33.2377 37.6362C29.0345 35.6879 27.6334 30.2325 26.388 26.102C24.909 21.3481 24.1307 16.3603 24.6755 11.3725C24.9091 9.19036 25.4539 7.08613 26.0766 4.98192C26.388 3.81291 26.855 2.72184 27.2442 1.55283C27.3999 1.16316 27.322 0.929349 27.0107 0.617613C26.1545 -0.161727 25.7653 -0.161717 24.7534 0.38382C23.7415 0.929358 23.2745 1.78664 22.8853 2.79978C21.9512 5.29366 21.2507 7.78754 20.7836 10.3594C20.7058 10.5932 20.7058 10.827 20.628 10.9828C20.628 11.0608 20.5501 11.1387 20.4723 11.2946C20.3944 10.2035 20.3166 9.2683 20.2388 8.33309C20.1609 7.31995 20.1609 6.22888 20.0831 5.21573C20.0053 4.35846 19.8496 3.50117 19.6939 2.56596C19.5382 1.78662 18.6042 1.31902 17.748 1.47489C16.8139 1.70869 16.4247 2.41011 16.1134 3.18945C15.5685 4.67019 15.2571 6.22887 15.1793 7.78755C15.1793 7.94341 15.1793 8.02135 15.1015 8.25515C14.7901 8.17722 14.7123 7.86547 14.6344 7.63167C14.1674 6.61853 13.7004 5.60539 13.1555 4.59225C13.0777 4.35845 12.922 4.12465 12.7663 3.96879C12.5328 3.65705 12.2215 3.73498 11.988 3.89085C11.9101 3.96878 11.7544 4.12464 11.7544 4.20258C10.8982 5.91713 10.042 7.63167 10.1198 9.58002C10.1977 10.827 10.3534 12.0739 10.4312 13.4767C10.1977 13.165 10.1198 13.0871 10.042 12.9312C9.4193 11.6842 8.64093 10.5932 7.70687 9.65796C7.47336 9.42415 7.162 9.19036 6.92849 8.95655C6.22795 8.48895 5.44957 8.80068 5.21606 9.65796C4.74903 11.5284 5.13821 13.3208 5.83875 15.0354C6.22794 15.8927 6.61714 16.75 7.08416 17.6852C7.162 17.7631 7.162 17.841 7.23984 18.0748C6.30578 17.2955 5.44956 16.5941 4.67118 15.9706C4.12632 15.503 3.50363 15.1133 2.88092 14.8016C2.33606 14.5678 1.79119 14.6457 1.32416 15.0354C0.934974 15.3471 0.857129 15.8147 1.0128 16.3603C1.16848 16.7499 1.16849 17.2176 1.32416 17.6852C1.55768 18.7762 2.0247 19.7114 2.88092 20.4908C3.11444 20.7246 3.34795 20.9584 3.6593 21.348C3.34795 21.348 3.19227 21.2701 3.0366 21.2701C2.33605 21.2701 1.63551 21.1922 1.0128 21.2701C0.156588 21.348 -0.0769188 21.8157 0.156595 22.595C0.467947 23.6081 1.01281 24.5433 1.63551 25.3227C2.41389 26.3358 3.2701 27.271 4.12632 28.2062C3.65929 28.1283 3.19226 28.0504 2.72524 27.9724C2.33605 27.8945 2.0247 27.8945 1.63551 27.9724C0.701455 28.1283 0.390102 28.6738 0.623615 29.6091C0.934967 30.6222 1.63551 31.3236 2.41389 31.9471C3.27011 32.6485 4.04848 33.2719 4.9047 33.9734C4.04848 33.9734 3.19227 33.8954 2.41389 33.8954C1.71335 33.8175 1.16848 34.1292 0.623615 34.441C-0.0769259 34.9865 -0.232604 35.61 0.390099 36.3114C0.857127 36.9348 1.47984 37.4025 2.10254 37.8701C2.72525 38.3377 3.42579 38.6494 4.04849 39.117C4.20417 39.1949 4.43768 39.3508 4.59335 39.5067C3.97065 39.7405 3.50362 39.8963 2.95875 40.1301C1.47983 40.7536 0.934972 42.4682 2.25822 44.0268C3.19227 45.1179 4.35984 45.6634 5.76092 45.8193C6.69498 45.8972 7.70687 45.8972 8.64092 45.9752C9.18579 45.9752 9.73066 45.9752 10.2755 46.0531C9.26363 46.209 8.32957 46.3648 7.31768 46.5986C6.22795 46.8324 5.5274 47.4559 5.29389 48.547C5.21605 48.8587 5.21606 49.3263 5.37173 49.5601C5.83876 50.4954 6.5393 51.2747 7.70687 51.3526C8.01822 51.3526 8.25173 51.4306 8.64092 51.5085C8.48525 51.8982 8.25174 52.2878 8.09606 52.6775C7.78471 53.5348 8.09606 54.3141 8.87444 54.7817C9.73066 55.2493 10.5869 55.3272 11.5209 55.2493C12.0658 55.1714 12.5328 55.1714 13.0777 55.0935C12.6885 55.5611 12.2993 55.9507 11.988 56.4183C11.5988 57.0418 11.2096 57.6653 11.5988 58.5225C11.988 59.2239 12.6885 59.3019 13.3112 59.3798C13.7782 59.4578 14.2452 59.3798 14.7901 59.3798C14.7123 59.5357 14.7123 59.7695 14.6344 59.9253C14.4009 60.5488 14.5566 61.0164 15.1793 61.3282C15.7242 61.6399 16.269 61.562 16.8917 61.4061C18.0593 61.0944 19.149 60.7826 20.4723 60.4709C20.2388 60.7047 20.0831 60.8605 19.9274 61.0164C19.5382 61.4061 19.149 61.7958 18.7599 62.1854C18.5263 62.4972 18.2928 62.8089 18.215 63.1986C18.0593 64.3676 18.2928 64.8352 19.4604 64.9131C20.9393 64.9911 22.2626 64.6014 23.508 63.9779C23.3523 64.2117 23.2745 64.4455 23.1188 64.6793C22.6518 65.6145 22.6517 66.4718 23.3523 67.2511C23.8972 67.9525 24.3642 68.1084 25.1426 67.7187C26.1544 67.2511 27.1663 66.6277 28.1782 66.0042C28.2561 65.9263 28.4117 65.8483 28.6453 65.6925C28.4896 66.3939 28.1782 66.8615 27.9447 67.3291C27.1663 68.7319 27.8669 69.9009 29.268 70.4464C29.5793 70.5244 29.9685 70.3685 30.2799 70.2126C31.1361 69.823 31.9145 69.2774 32.6928 68.8098C32.7707 69.2774 32.7707 69.6671 32.7707 70.0568C32.8485 70.5244 32.8485 71.1478 33.3155 71.3816C33.8604 71.6934 34.4053 71.8492 35.028 71.9272C35.2615 72.0051 35.6507 71.7713 35.8842 71.5375C36.3512 71.1478 36.8182 70.6802 37.2853 70.2126C37.1296 71.3037 37.1296 72.3948 38.2193 73.0962C39.6204 73.9535 40.6323 73.1741 41.4885 72.161C41.7999 72.7845 41.9555 73.4859 42.3447 74.0314C42.6561 74.499 43.0453 74.8887 43.4345 75.2004C43.7458 75.5121 44.135 75.4342 44.5242 75.2004C45.1469 74.7328 45.7696 74.2652 46.3923 73.7976C46.4701 73.9535 46.548 74.1093 46.548 74.2652C46.7037 74.7328 46.8593 75.1225 47.0928 75.5901C47.482 76.2915 48.4161 76.3694 48.961 75.8239C49.3501 75.4342 49.6615 75.0445 50.0507 74.5769C50.1285 74.9666 50.2064 75.1225 50.2842 75.3563C50.362 75.5901 50.4399 75.9018 50.5177 76.1356C50.8291 76.915 51.7631 77.4605 52.6972 76.837C53.0864 76.6032 53.4756 76.2915 53.8648 75.9797C54.2539 75.668 54.5653 75.3563 54.9545 74.8887C55.188 75.5901 55.7329 76.0577 55.8107 76.837C55.8107 76.9929 55.9664 77.1488 56.0442 77.2267C56.4334 77.3046 56.9004 77.3826 57.2896 77.4605C57.601 77.4605 57.9902 77.4605 58.3793 77.3825C58.4572 79.0192 57.5231 80.0323 56.8226 81.2013C54.9545 80.422 53.2421 80.6558 51.6075 81.5131C50.5956 81.9807 49.9729 82.8379 49.5058 83.7731C48.8053 85.098 48.2604 86.4229 48.1826 87.9816C48.1047 89.852 48.6496 91.4107 49.8172 92.8914C49.895 92.9694 49.9729 93.0473 49.9729 93.1252C49.9729 93.1252 49.9729 93.2032 49.9729 93.2811C49.8172 93.2032 49.6615 93.2031 49.5837 93.1252C49.2723 92.9693 48.8831 92.7355 48.5718 92.5797C48.0269 92.3459 47.7934 92.4238 47.482 92.9693C47.1707 93.5149 46.8593 94.0604 46.6258 94.6059C47.015 95.6191 47.9491 96.1646 48.8053 96.7102C49.895 97.4116 50.9847 97.9571 52.0745 98.5806C52.308 98.7365 52.5415 98.8923 52.775 98.9703C53.3977 99.3599 53.8648 99.282 54.3318 98.6585C54.6431 98.1909 54.9545 97.8012 55.3437 97.2557C54.5653 96.6322 53.7869 96.0088 52.9307 95.3853C53.0085 95.2294 53.1642 95.0736 53.3199 94.8398C54.2539 95.3074 55.1102 95.6191 56.1221 95.6191C57.4453 95.697 58.6129 95.2294 59.5469 94.2942C61.5707 92.19 62.4269 89.6961 61.9599 86.8126C61.8042 85.6435 61.0258 84.7863 60.2474 83.929C60.0918 83.7731 59.9361 83.6173 59.7026 83.3835C60.1696 82.6821 60.5588 81.9027 61.0258 81.1234C61.3372 81.1234 61.6485 81.2013 61.9599 81.2013C62.4269 81.2013 62.6604 81.3572 62.8161 81.8248C63.2831 83.1497 64.0615 82.9159 64.8399 82.2145C65.0734 82.0586 65.1512 81.7469 65.4626 81.591C65.3848 82.0586 65.3848 82.4483 65.3069 82.9159C64.8399 85.4877 64.3729 88.0595 63.9058 90.6313C63.5945 92.5017 63.1275 94.2942 62.8161 96.1646C62.5826 97.4895 62.3491 98.8923 62.5048 100.295C62.6604 102.243 64.5285 102.945 65.7739 102.633C66.0075 102.555 66.1631 102.555 66.3967 102.477C66.708 102.711 66.9415 103.023 67.2529 103.257C67.9534 103.88 68.8096 104.036 69.6658 103.958C69.8994 103.958 70.055 103.802 70.2886 103.724C70.5221 103.568 70.7556 103.335 70.9891 103.101C71.3783 103.568 71.7675 104.036 72.2345 104.504C72.7015 104.971 73.3242 105.049 73.9469 105.127C74.7253 105.127 75.2702 104.815 75.5815 104.114C75.7372 103.802 75.815 103.49 75.8929 103.179C76.0486 103.88 76.2821 104.504 76.4378 105.127C76.5156 105.517 76.7491 105.673 77.1383 105.751C77.6832 105.828 78.1502 105.984 78.695 105.984C79.2399 106.062 79.7069 105.828 80.2518 105.751C80.641 105.673 80.8745 105.517 80.9523 105.127C81.108 104.504 81.2637 103.88 81.4972 103.179C81.5751 103.568 81.7307 103.88 81.8086 104.114C82.1199 104.815 82.6648 105.205 83.4432 105.127C84.0659 105.127 84.6886 104.971 85.1556 104.504C85.6226 104.114 86.0118 103.568 86.401 103.101C86.6345 103.257 86.868 103.49 87.1015 103.724C87.2572 103.88 87.4907 103.958 87.6464 103.958C88.5026 104.036 89.3588 103.88 90.0594 103.257C90.3707 103.023 90.6043 102.711 90.9156 102.477C91.1491 102.555 91.3826 102.555 91.5383 102.633C92.8615 102.945 94.6518 102.243 94.8075 100.295C94.9632 98.8923 94.7296 97.5674 94.4961 96.1646C94.1848 94.2942 93.7178 92.5017 93.4064 90.6313C92.9394 88.0595 92.4724 85.4877 92.0053 82.9159C91.9275 82.4483 91.8496 82.0586 91.8496 81.591C92.161 81.8248 92.2389 82.0586 92.4724 82.2145C93.3286 82.9938 94.0291 83.1497 94.4961 81.8248C94.6518 81.3572 94.8853 81.1234 95.3524 81.2013C95.6637 81.2013 95.9751 81.2013 96.2864 81.1234C96.7534 81.9027 97.2205 82.6041 97.6096 83.3835C97.3761 83.6173 97.2205 83.7731 97.0648 83.929C96.2864 84.7863 95.508 85.6435 95.3524 86.8126C94.8853 89.6961 95.7415 92.19 97.7653 94.2942C98.6994 95.2294 99.867 95.697 101.19 95.6191C102.202 95.5412 103.058 95.3074 103.992 94.8398C104.148 95.0736 104.226 95.2294 104.382 95.3853C103.525 96.0088 102.747 96.6322 101.969 97.2557C102.358 97.8012 102.669 98.2689 102.98 98.6585C103.448 99.282 103.915 99.3599 104.537 98.9703C104.771 98.8144 105.004 98.6585 105.238 98.5806C106.328 97.9571 107.495 97.4116 108.507 96.7102C109.363 96.1646 110.297 95.697 110.686 94.6059C110.375 94.0604 110.142 93.4369 109.83 92.9693C109.519 92.4238 109.285 92.3459 108.74 92.5797C108.351 92.7355 108.04 92.9693 107.729 93.1252C107.573 93.2031 107.495 93.2032 107.339 93.2811C107.339 93.2032 107.262 93.1252 107.339 93.1252C107.417 93.0473 107.417 92.9694 107.495 92.8914C108.585 91.4886 109.208 89.852 109.13 87.9816C109.052 86.4229 108.507 85.098 107.806 83.7731C107.262 82.8379 106.639 82.0586 105.705 81.5131C103.992 80.6558 102.28 80.422 100.49 81.2013C99.7891 80.0323 98.8551 79.0192 98.9329 77.3825C99.3221 77.3825 99.6334 77.4605 100.023 77.4605C100.49 77.4605 100.879 77.3046 101.268 77.2267C101.346 77.2267 101.502 76.9929 101.502 76.837C101.579 76.0577 102.124 75.5901 102.358 74.8887C102.825 75.3563 103.136 75.668 103.447 75.9797C103.837 76.2915 104.226 76.5253 104.615 76.837C105.549 77.5384 106.483 76.915 106.795 76.1356C106.872 75.9018 106.95 75.5901 107.028 75.3563C107.106 75.1225 107.106 74.9666 107.184 74.5769C107.573 75.0445 107.884 75.5121 108.273 75.8239C108.818 76.4473 109.752 76.3694 110.142 75.5901C110.375 75.2004 110.531 74.7328 110.686 74.2652C110.764 74.1093 110.842 73.9535 110.842 73.7976C111.543 74.2652 112.088 74.8107 112.71 75.2004C113.022 75.4342 113.489 75.5121 113.8 75.2004C114.189 74.8107 114.578 74.4211 114.89 74.0314C115.201 73.4859 115.435 72.8624 115.746 72.161C116.68 73.1741 117.692 73.9535 119.015 73.0962C120.105 72.4727 120.105 71.3816 119.949 70.2126C120.416 70.6802 120.883 71.1478 121.35 71.5375C121.584 71.7713 121.973 72.0051 122.206 71.9272C122.829 71.8492 123.374 71.6154 123.919 71.3816C124.386 71.1478 124.386 70.5244 124.464 70.0568C124.542 69.6671 124.542 69.1995 124.619 68.8098C125.476 69.2774 126.254 69.745 127.032 70.2126C127.344 70.3685 127.733 70.5244 128.044 70.4464C129.445 69.9009 130.146 68.7319 129.368 67.3291C129.134 66.8615 128.823 66.3939 128.667 65.6925C128.901 65.8483 128.978 66.0042 129.134 66.0042C130.146 66.5497 131.08 67.1732 132.17 67.7187C132.948 68.1084 133.415 67.9525 133.96 67.2511C134.661 66.3939 134.661 65.5366 134.193 64.6793C134.038 64.4455 133.96 64.2117 133.804 63.9779C135.128 64.6014 136.451 64.9911 137.852 64.9131C139.019 64.8352 139.253 64.4455 139.097 63.1986C139.019 62.8089 138.786 62.4972 138.552 62.1854C138.241 61.7958 137.774 61.4061 137.385 61.0164C137.229 60.8605 137.074 60.7047 136.84 60.4709C138.085 60.7826 139.253 61.0944 140.421 61.4061C140.965 61.562 141.588 61.562 142.133 61.3282C142.678 61.0164 142.833 60.6268 142.678 59.9253C142.6 59.7695 142.6 59.6136 142.522 59.3798C143.067 59.3798 143.534 59.4578 144.001 59.3798C144.624 59.3019 145.324 59.2239 145.714 58.5225C146.181 57.7432 145.791 57.0418 145.324 56.4183C145.013 55.9507 144.624 55.5611 144.235 55.0935C144.779 55.1714 145.324 55.1714 145.791 55.2493C146.725 55.3272 147.582 55.2493 148.438 54.7817C149.294 54.3141 149.605 53.5348 149.294 52.6775C149.138 52.2878 148.983 51.9761 148.749 51.5085C149.061 51.4306 149.372 51.3526 149.683 51.3526C150.851 51.2747 151.474 50.4954 152.018 49.5601C152.174 49.2484 152.096 48.8587 152.096 48.547C151.863 47.4559 151.162 46.8324 150.072 46.5986C149.061 46.3648 148.126 46.209 147.115 46.0531C147.659 45.9752 148.204 45.9752 148.749 45.9752C149.683 45.9752 150.695 45.9752 151.629 45.8193C153.03 45.6634 154.198 45.1179 155.132 44.0268C156.455 42.4682 155.988 40.7536 154.431 40.1301C153.886 39.8963 153.419 39.7405 152.797 39.5067C153.03 39.3508 153.186 39.2729 153.342 39.117C153.964 38.7273 154.665 38.3377 155.288 37.8701C155.91 37.4025 156.455 36.8569 157 36.3114C156.455 35.61 156.377 34.9865 155.677 34.441ZM152.797 29.9208C152.875 29.9208 153.03 29.9208 153.108 29.9208C153.186 29.9208 153.264 29.9987 153.419 30.0767C153.186 30.3884 153.03 30.7001 152.797 31.0119C152.096 32.1809 151.006 32.8823 149.995 33.6616C148.594 34.7527 144.779 37.0128 143.223 37.7921C142.6 37.4804 142.133 37.3245 141.588 37.0128C141.977 36.0776 142.522 35.2982 143.378 34.6748C145.402 33.2719 147.426 32.025 149.45 30.7001C150.539 30.1546 151.629 30.1546 152.797 29.9208ZM94.8075 54.3141C95.1967 54.2362 95.4302 54.3921 95.4302 54.7038C95.7415 56.3404 95.9751 57.8991 96.2086 59.5357C96.2086 59.6915 96.2086 59.7695 96.1307 60.0033C95.3524 59.7695 95.1967 59.146 95.041 58.6005C94.7297 57.1977 94.8075 55.7949 94.8075 54.3141ZM94.7297 52.3658C94.7297 51.8982 94.6518 51.5085 94.6518 51.0409C94.7297 51.0409 94.7297 51.0409 94.8075 51.0409C94.8853 51.5085 94.9632 51.8982 95.041 52.3658C94.9632 52.3658 94.8075 52.3658 94.7297 52.3658ZM95.8972 52.4437C95.4302 52.054 95.2745 51.5864 95.5859 50.885C95.8972 51.4305 95.9751 51.8981 95.8972 52.4437ZM95.8972 49.0925C95.8194 49.0925 95.8194 49.0925 95.7415 49.0925C95.6637 48.9367 95.5859 48.7029 95.4302 48.3911C95.2745 48.8587 95.1967 49.0925 95.1189 49.4043C94.9632 49.4043 94.7297 49.4822 94.4183 49.5601C94.3405 49.0925 94.3405 48.6249 94.2626 48.2353C94.8853 48.1573 95.4302 48.1573 96.1307 48.0794C96.0529 48.3911 95.9751 48.7029 95.8972 49.0925ZM94.4183 63.4324C94.4961 62.731 94.574 61.9516 94.6518 61.1723C95.4302 61.4061 96.0529 61.562 96.7534 61.7958C97.0648 63.0427 97.0648 64.2897 96.8313 65.5366C96.7534 65.7704 96.5978 66.0821 96.3643 66.238C95.9751 66.5497 95.7415 66.4718 95.4302 66.0821C95.1188 65.6145 94.8075 65.069 94.574 64.6014C94.3405 64.2117 94.3405 63.822 94.4183 63.4324ZM96.9091 60.1592C96.5978 58.2887 96.2864 56.4963 96.0529 54.6258C96.6756 54.392 97.2983 54.1582 97.9988 53.8465C98.1545 54.5479 98.3102 55.2493 98.4659 56.0286C98.5437 56.4963 98.6216 56.9639 98.6994 57.4315C98.9329 58.2887 98.6216 58.9901 98.1545 59.6136C97.8432 60.0812 97.3761 60.315 96.9091 60.1592ZM98.0767 47.6897C98.1545 48.3132 98.3102 48.9367 98.388 49.6381C97.7653 49.5602 97.3761 49.3263 97.2205 48.8587C97.0648 48.4691 97.2205 48.0015 97.2205 47.4559C97.454 47.6118 97.6875 47.6118 98.0767 47.6897ZM97.5318 44.962C97.6097 45.5855 97.6875 46.0531 97.6875 46.6766C97.0648 46.2869 97.0648 45.9752 97.5318 44.962ZM98.6994 50.6512C98.9329 50.5733 99.0107 50.5733 99.2442 50.4953C99.3221 50.8071 99.3221 51.1188 99.3999 51.5085C98.9329 51.3526 98.8551 51.0409 98.6994 50.6512ZM100.1 53.9244C100.256 54.0024 100.412 54.2362 100.49 54.392C100.879 55.639 101.268 56.8859 101.657 58.2108C101.657 58.2887 101.657 58.3667 101.657 58.4446C101.035 58.5225 100.723 58.0549 100.568 57.6653C100.023 56.6521 99.5556 55.639 99.2442 54.5479C99.1664 54.0803 99.0107 53.6127 98.8551 53.1451C99.3221 53.4568 99.7113 53.6906 100.1 53.9244ZM98.1545 61.3282C98.8551 61.0164 99.4778 60.6267 100.256 60.2371C100.568 61.3282 100.879 62.4192 101.112 63.4324C101.502 65.069 100.256 65.6145 99.0886 65.3028C98.3102 65.069 98.0767 64.3676 97.921 63.7441C97.7653 63.1986 97.7653 62.653 97.6875 62.1075C97.6875 61.7958 97.7653 61.484 98.1545 61.3282ZM101.112 60.2371C101.813 60.0812 102.436 59.9254 103.058 59.7695C103.525 59.6916 104.07 59.8474 104.226 60.2371C104.615 61.1723 105.004 62.1075 105.082 63.1206C105.082 63.9 104.926 64.2117 104.226 64.5234C104.148 64.5234 104.07 64.6014 103.992 64.6014C103.058 64.9131 102.903 64.9131 102.513 63.9779C102.202 63.1206 101.891 62.3413 101.579 61.484C101.502 61.1723 101.268 60.7047 101.112 60.2371ZM106.016 50.9629C105.86 50.3395 105.705 49.8719 105.549 49.4043C105.938 49.4043 106.328 49.4822 106.872 49.4822C106.639 50.0277 106.328 50.4174 106.016 50.9629ZM106.872 57.1977C106.328 56.4963 105.938 55.4831 105.705 53.7686C105.938 53.6127 106.172 53.4568 106.483 53.223C106.795 54.5479 107.417 55.7948 106.872 57.1977ZM106.25 57.6653C106.094 57.5873 105.938 57.5873 105.783 57.5094C105.471 57.1197 105.082 56.7301 104.849 56.2625C104.459 55.2493 104.226 54.1582 103.915 53.0672C104.693 53.4568 105.16 54.0024 105.316 54.8596C105.549 55.7948 105.938 56.6521 106.25 57.6653ZM104.771 59.3019C105.393 59.2239 105.938 59.3019 106.483 59.146C107.028 58.9901 107.417 58.5225 107.962 58.2108C108.273 59.0681 108.585 59.8474 108.896 60.7047C109.363 62.1075 108.896 63.1206 107.417 63.5883C106.639 62.9648 106.094 62.1854 105.86 61.2502C105.705 60.5488 105.393 59.8474 104.771 59.3019ZM108.896 56.4963C108.818 56.3404 108.663 56.1845 108.585 56.0286C108.273 54.7817 107.884 53.4568 107.651 52.2099C107.573 51.8982 107.806 51.5085 107.962 51.1188C108.429 52.9113 109.052 54.6258 109.13 56.4963C108.974 56.4963 108.974 56.4963 108.896 56.4963ZM107.962 49.0925C108.351 48.7808 108.74 48.547 109.208 48.1573C109.363 48.9367 109.519 49.5601 109.675 50.2615C108.818 50.4174 108.273 49.9498 107.962 49.0925ZM108.896 52.132C109.441 52.2878 109.908 52.3658 110.531 52.5216C110.842 53.4568 111.153 54.3921 111.153 55.4831C111.153 56.2625 110.686 56.808 109.986 56.9639C109.908 56.9639 109.752 56.9639 109.83 56.9639C109.441 55.3273 109.208 53.7686 108.896 52.132ZM110.375 48.6249C110.764 48.547 111.153 48.547 111.543 48.4691C111.62 49.0925 111.309 49.4822 110.842 49.8719C110.609 49.4822 110.531 49.0925 110.375 48.6249ZM111.698 57.2756C112.088 58.5225 112.555 59.5357 112.632 60.7047C112.71 61.9516 112.632 62.1854 111.387 62.731C110.842 62.5751 110.531 62.1075 110.375 61.6399C110.219 61.0944 110.064 60.5488 109.908 60.0812C109.675 59.3798 109.441 58.6784 109.13 57.8991C109.986 58.1329 110.92 58.0549 111.698 57.2756ZM115.123 49.0146C114.89 49.1705 114.734 49.1705 114.5 49.2484C114.345 48.7029 114.111 48.1573 113.956 47.5339C114.812 47.7677 114.656 48.547 115.123 49.0146ZM113.956 44.1048C114.423 44.1048 114.656 44.2606 114.656 44.7282C114.734 45.3517 114.89 46.0531 114.968 46.7545C114.111 46.5987 114.111 46.5986 114.033 45.8972C114.033 45.3517 114.033 44.7282 113.956 44.1048ZM117.536 53.6906C117.536 53.7686 117.458 53.8465 117.381 54.0024C116.446 53.1451 115.668 52.3658 115.512 50.9629C115.668 50.885 115.824 50.7291 115.979 50.6512C116.057 50.7291 116.135 50.7292 116.135 50.8071C116.68 51.7423 117.147 52.7554 117.536 53.6906ZM116.602 50.1836C116.836 49.716 117.069 49.3263 117.303 48.8587C118.081 49.8719 118.548 50.885 118.704 52.054C118.782 52.7554 118.704 52.8334 118.081 53.3789C117.381 52.4437 117.069 51.2747 116.602 50.1836ZM115.59 49.0146C115.357 48.547 115.201 48.3132 115.045 48.0015C115.435 47.8456 115.824 47.6897 116.135 47.5339C116.135 47.6118 116.213 47.6118 116.213 47.6897C116.057 48.0015 115.902 48.3911 115.59 49.0146ZM114.89 52.5996C115.123 53.3789 115.123 54.3141 114.345 55.2493C113.8 53.6127 113.333 52.132 112.944 50.6512C114.189 50.7291 114.578 51.7423 114.89 52.5996ZM113.8 55.561C112.944 55.3272 112.477 54.7038 112.165 53.9244C112.01 53.6127 112.01 53.301 111.854 52.9892C111.543 52.2099 111.543 51.4306 112.321 50.8071C113.099 52.2878 113.255 53.9244 113.8 55.561ZM112.165 56.4183C113.099 56.4963 114.033 56.5742 115.045 56.6521C115.435 57.6653 116.057 58.6005 116.057 59.6916C116.057 60.4709 115.435 61.3282 114.656 61.484C114.501 61.484 114.267 61.4061 114.189 61.3282C114.033 61.1723 113.956 60.9385 113.8 60.7047C113.722 60.4709 113.644 60.315 113.566 60.0812C113.411 59.3798 113.177 58.7563 113.099 58.0549C113.099 57.4315 112.399 57.1197 112.165 56.4183ZM116.135 55.7949C116.291 55.4831 116.369 55.1714 116.524 54.7817C117.147 54.9376 117.77 55.1714 118.47 55.3272C118.937 56.1845 119.404 57.1977 119.638 58.3667C119.716 58.8343 119.56 59.146 119.249 59.3019C119.171 59.3798 119.015 59.4577 118.859 59.5357C118.003 59.9253 117.225 59.6136 116.836 58.6784C116.602 57.977 116.369 57.2756 116.057 56.5742C115.979 56.3404 115.979 56.1066 116.135 55.7949ZM120.105 49.3263C120.338 50.3395 120.572 51.1967 120.805 52.132C120.728 52.132 120.65 52.2099 120.65 52.2099C120.183 51.3526 119.716 50.5733 119.171 49.6381C119.404 49.5602 119.716 49.4043 120.105 49.3263ZM119.093 46.5986C119.171 46.5986 119.249 46.5987 119.404 46.5207C119.482 46.9104 119.56 47.2221 119.638 47.6118C119.093 47.378 119.171 46.9104 119.093 46.5986ZM119.404 54.5479C119.638 54.1582 119.871 53.8465 120.105 53.301C120.416 53.5348 120.728 53.6906 121.039 53.9244C121.506 54.3141 121.973 54.7038 122.518 55.1714C123.063 55.639 123.296 56.2625 123.296 56.8859C123.374 57.7432 122.44 58.3667 121.584 57.977C120.883 57.5873 120.416 56.9639 120.105 56.2625C119.871 55.7169 119.638 55.1714 119.404 54.5479ZM122.051 53.3789C122.44 52.9892 122.751 52.5996 123.141 52.132C123.608 52.2878 124.075 52.4437 124.542 52.5996C125.398 52.8334 126.254 53.0672 127.11 53.301C127.966 53.6127 128.589 54.0803 128.901 55.0155C128.122 55.4831 127.344 55.8728 126.488 56.0286C125.631 56.1845 124.853 55.7948 124.23 55.2493C123.452 54.6258 122.751 54.0024 122.051 53.3789ZM122.129 47.5339C122.673 47.6897 123.063 47.7677 123.608 47.9235C123.685 48.4691 123.763 49.0925 123.763 49.716C123.063 49.7939 122.751 49.2484 122.518 48.8587C122.284 48.4691 121.739 48.1573 122.129 47.5339ZM127.11 51.9761C126.565 51.8982 126.021 51.7423 125.476 51.5864C125.242 51.5085 125.009 51.5085 124.853 51.5085C124.152 51.6644 123.608 51.2747 122.985 51.0409C122.985 50.9629 122.985 50.885 123.063 50.8071C123.296 50.8071 123.452 50.8071 123.685 50.8071C124.152 50.885 124.619 50.8071 125.009 50.5733C125.164 50.4953 125.32 50.4174 125.476 50.4174C127.032 50.1836 128.511 49.9498 130.068 49.7939C130.691 49.716 131.391 49.716 132.014 49.6381C132.481 49.6381 132.948 49.6381 133.415 49.6381C133.726 49.6381 134.116 49.6381 134.427 49.716C135.05 49.8719 135.205 50.3395 134.738 50.8071C133.804 51.6644 132.715 52.132 131.469 52.2878C129.99 52.5996 128.589 52.2099 127.11 51.9761ZM123.997 47.8456C124.23 47.7677 124.464 47.6897 124.697 47.6118C124.775 48.0794 124.853 48.547 124.619 49.0146C124.075 48.7808 124.152 48.3132 123.997 47.8456ZM131.781 48.2353C131.002 48.3132 130.224 48.547 129.445 48.7029C128.511 48.8587 127.577 49.0925 126.643 49.2484C126.488 49.2484 126.332 49.3263 126.176 49.4043C126.254 49.0146 126.332 48.6249 126.488 48.2353C126.877 48.1573 127.344 48.1573 127.733 48.0015C130.769 47.0663 133.726 45.8973 136.529 44.4944C137.229 44.1827 138.008 43.9489 138.786 43.7151C139.019 43.6372 139.331 43.7151 139.564 43.793C140.265 44.1048 140.343 44.8062 139.642 45.2738C138.864 45.8193 138.008 46.209 137.151 46.6766C135.361 47.5339 133.571 48.0015 131.781 48.2353ZM137.618 42.624C134.816 43.793 131.936 44.8841 129.134 46.0531C128.978 46.1311 128.823 46.1311 128.667 46.1311V46.0531C131.936 43.9489 135.205 41.7667 138.475 39.6625C139.019 39.3508 139.486 39.039 140.109 38.8052C140.498 38.6494 141.043 38.5715 141.51 38.6494C142.211 38.7273 142.444 39.117 142.133 39.7405C141.899 40.0522 141.666 40.4419 141.277 40.6757C140.031 41.2992 138.864 42.0785 137.618 42.624ZM128.901 41.7668C130.379 40.5198 131.858 39.1949 133.337 37.948C134.972 36.5452 136.684 35.1424 138.397 33.8175C139.253 33.194 140.265 32.8043 141.432 32.6485C141.51 33.4278 141.666 34.1292 141.277 34.9086C140.343 36.5452 139.019 37.6362 137.463 38.5715C135.283 39.8963 133.104 41.1433 130.924 42.3902C129.757 43.0137 128.589 43.5592 127.266 44.1827C127.188 43.871 127.11 43.6372 126.955 43.3254C127.577 42.8578 128.278 42.3123 128.901 41.7668ZM128.511 38.4935C130.379 36.4672 132.092 34.363 133.882 32.3367C135.05 31.0119 136.373 29.7649 137.618 28.44C137.774 28.2062 138.008 28.0504 138.241 27.9724C138.942 27.5828 139.564 27.9724 139.642 28.7518C139.72 29.687 139.409 30.5443 138.708 31.2457C137.073 32.8823 135.439 34.5189 133.804 36.1555C133.259 36.701 132.715 37.1686 132.092 37.6362C130.846 38.6494 129.601 39.5846 128.511 40.8315C128.433 40.9874 128.278 41.0653 128.122 41.2212C128.044 41.0653 128.044 40.9874 128.044 40.9874C127.655 39.8963 127.811 39.2729 128.511 38.4935ZM154.042 23.2964C153.964 23.4523 154.042 23.6861 153.886 23.9199C153.186 25.0889 152.641 26.4138 151.629 27.349C150.617 28.2842 149.605 29.1414 148.516 29.9208C146.725 31.2457 144.935 32.4926 143.145 33.7395C143.067 33.8175 142.911 33.8954 142.911 33.8954C142.756 33.1161 142.6 32.3367 142.444 31.6353C142.366 31.2457 142.522 31.0898 142.756 30.9339C143.456 30.3884 144.157 29.8429 144.779 29.2973C145.48 28.7518 146.103 28.1283 146.725 27.5048C147.971 26.2579 149.216 24.933 150.539 23.764C151.396 22.9067 153.03 22.7509 154.042 23.2964ZM150.384 18.8542C150.929 18.3866 151.551 18.1528 152.174 17.841C152.797 17.6072 153.264 17.6072 153.497 17.919C153.809 18.3866 153.419 18.7762 153.186 19.088C151.941 20.4908 150.695 21.8936 149.45 23.2185C148.438 24.3095 147.348 25.4006 146.258 26.4917C145.013 27.7386 143.612 28.8297 142.366 29.9987C142.133 30.2325 141.822 30.5443 141.588 30.7001C141.355 30.856 141.121 31.0119 140.81 31.0898C140.732 31.0119 140.732 30.9339 140.654 30.9339C140.732 30.7001 140.81 30.4663 140.965 30.3105C141.51 29.1414 142.055 27.9724 142.911 26.8814C143.768 25.7903 144.546 24.6213 145.402 23.4523C146.336 22.1274 147.348 20.8025 148.671 19.8673C149.138 19.6335 149.839 19.3218 150.384 18.8542ZM149.216 12.3077C149.45 13.2429 149.372 13.9443 149.138 14.8016C148.749 16.3603 147.893 17.6852 147.037 19.01C146.181 20.4128 145.169 21.8157 144.157 23.1405C143.145 24.5434 142.133 25.9462 141.121 27.349C140.498 27.1152 139.953 26.8034 139.409 26.5696C139.953 25.0889 148.126 13.165 149.216 12.3077ZM140.265 16.2044C140.421 14.7237 140.888 13.2429 141.355 11.7622C141.588 10.9049 141.977 10.0476 142.366 9.26828C142.522 8.87862 142.756 8.56689 143.067 8.25515C143.378 7.94342 143.768 8.02134 143.923 8.41101C144.157 9.03448 144.39 9.65796 144.39 10.2035C144.39 12.0739 144.312 13.9443 144.157 15.8147C144.079 16.9837 143.69 17.9969 142.989 19.01C141.822 20.6466 140.81 22.3612 139.72 24.0757C139.642 24.2316 139.486 24.3875 139.331 24.6213C139.331 23.3743 139.253 22.3612 139.564 21.2701C139.72 20.6466 139.72 20.0232 139.798 19.3997C139.876 18.3866 140.109 17.2955 140.265 16.2044ZM135.906 19.01C136.139 17.4513 136.373 15.8927 136.529 14.334C136.762 12.3077 136.84 10.2814 136.996 8.25515C137.073 6.93028 137.151 5.60539 137.696 4.28052C138.552 4.59225 138.786 5.29367 139.019 5.99507C139.72 7.70962 140.109 9.50209 140.031 11.2946C139.953 12.4636 139.72 13.6326 139.486 14.8016C138.942 17.2955 138.319 19.8673 137.696 22.3612C137.696 22.4391 137.618 22.5171 137.541 22.595C137.307 22.5171 137.073 22.4391 136.996 22.4391C136.606 21.426 136.217 20.5687 135.906 19.6335C135.828 19.3997 135.906 19.1659 135.906 19.01ZM131.547 6.85233C131.236 5.52745 131.08 4.28053 131.236 2.87772C132.325 3.73499 132.87 4.67019 133.182 5.91714C133.415 7.16408 133.804 8.33309 134.116 9.5021C134.427 10.749 134.738 12.0739 134.972 13.3988C135.128 14.334 135.05 15.3471 135.05 16.3603C135.05 17.2176 134.972 18.0748 134.894 18.9321C134.038 18.8542 133.182 18.6204 132.481 19.5556C132.481 18.1528 132.481 16.9837 132.559 15.8147C132.637 14.0223 132.559 12.3077 132.248 10.5152C132.17 9.19036 131.858 8.02134 131.547 6.85233ZM129.445 30.5443C130.302 28.7518 131.002 26.8814 131.469 25.011C131.625 24.2316 131.936 23.5302 132.092 22.8288C132.248 22.2053 132.559 21.8157 133.026 21.426C133.96 20.6466 134.583 20.9584 134.972 22.0494C135.283 22.9067 135.128 23.764 134.505 24.4654C132.715 26.6476 131.313 29.0635 129.835 31.4795C129.29 32.4147 128.589 33.2719 128.044 34.2071C127.966 34.2071 127.966 34.1292 127.889 34.1292C128.433 32.8823 128.901 31.7133 129.445 30.5443ZM126.799 38.0259C127.11 37.6362 127.499 37.3245 127.811 36.9348C129.212 34.8306 130.613 32.6485 132.014 30.4663C132.792 29.2973 133.649 28.2062 134.427 27.1152C135.05 26.2579 135.672 25.4006 136.062 24.3875C136.217 23.9978 136.451 23.6861 136.918 23.5302C137.54 24.0757 137.696 24.6992 137.463 25.4786C137.229 26.18 136.996 26.8034 136.684 27.5048C136.529 27.7386 136.373 28.0504 136.139 28.2062C134.505 29.8429 133.026 31.6353 131.547 33.4278C131.08 34.0513 130.535 34.5968 129.99 35.1424C129.134 36.0776 128.278 37.0128 127.499 37.948C127.344 38.1039 127.188 38.1818 127.032 38.3377C126.877 38.2597 126.799 38.1038 126.643 38.0259C126.799 38.1038 126.799 38.0259 126.799 38.0259ZM128.122 46.2869C127.266 46.8324 126.565 47.0662 126.02 47.0662C126.565 46.3648 127.11 45.8972 128.122 46.2869ZM125.164 38.5715C126.332 39.4287 126.488 40.7536 125.398 41.9226C125.086 41.0653 124.853 40.2081 124.542 39.2729C124.697 39.117 124.931 38.8053 125.164 38.5715ZM125.242 43.6372C125.553 43.793 125.476 44.1048 125.398 44.3386C125.32 44.7282 125.164 45.1179 124.931 45.3517C124.619 45.6635 124.386 45.2738 124.308 45.04C124.619 44.4944 124.931 44.1048 125.242 43.6372ZM122.206 46.1311C122.051 46.0531 122.051 45.8193 121.973 45.6634C122.596 45.5855 123.218 45.5076 123.997 45.3517C124.075 45.5855 124.23 45.8972 124.308 46.209C123.53 46.7545 122.829 46.4428 122.206 46.1311ZM123.063 44.1827C122.907 43.4813 122.673 42.7799 122.518 42.1564C122.985 41.7668 123.452 41.455 123.997 41.0653C124.308 42.4682 123.997 43.7151 123.063 44.1827ZM122.985 39.8184C122.985 40.5198 122.44 40.7536 121.895 41.0653C121.817 40.7536 121.817 40.4419 121.739 40.1301C122.129 39.9743 122.518 39.8963 122.985 39.8184ZM122.129 42.624C122.284 43.2475 122.44 43.871 122.596 44.4165C121.817 44.5724 121.506 44.3386 121.506 43.7151C121.506 43.2475 121.506 42.7799 121.428 42.1564C121.739 42.1564 122.051 42.2344 122.129 42.624ZM121.428 49.4043C121.584 49.9498 121.739 50.5733 121.817 51.1188C121.895 51.4306 121.662 51.6643 121.272 51.7423C121.039 50.885 120.805 50.0277 120.572 49.1705C121.195 48.8587 121.272 48.8587 121.428 49.4043ZM121.272 40.9095C121.117 40.7536 120.961 40.5977 120.728 40.3639C121.195 40.286 121.195 40.286 121.272 40.9095ZM120.65 45.9752C120.883 46.6766 120.805 46.7545 120.027 47.378C119.949 47.0662 119.871 46.7545 119.793 46.3648C120.105 46.209 120.338 46.131 120.494 45.9752C120.572 45.9752 120.65 45.9752 120.65 45.9752ZM119.404 45.1179C119.249 44.4944 119.171 43.871 119.015 43.1696C119.404 42.8578 119.793 42.624 120.105 42.4682C120.728 43.4034 120.416 44.7282 119.404 45.1179ZM119.482 40.5977C119.638 41.2991 119.249 41.5329 118.704 42.0005C118.548 41.5329 118.47 41.2212 118.392 40.8315C118.782 40.7536 119.093 40.6757 119.482 40.5977ZM118.937 45.3517C117.925 45.1959 117.848 45.1179 117.77 44.2606C117.77 43.871 117.614 43.4813 117.536 43.0916C117.77 43.1695 118.159 43.2475 118.548 43.3254C118.704 43.9489 118.782 44.6503 118.937 45.3517ZM117.848 40.8315C118.003 41.2991 118.081 41.6888 118.237 42.2344C117.536 42.0006 117.536 41.455 117.303 40.9874C117.536 40.9874 117.614 40.9095 117.848 40.8315ZM117.536 45.9752C118.47 46.209 118.782 46.8325 118.859 47.6897C118.159 47.9235 117.925 47.9235 117.614 47.3001C117.458 47.0663 117.303 46.7545 117.147 46.5207C117.303 46.3649 117.458 46.209 117.536 45.9752ZM115.512 46.3648C115.357 45.6634 115.201 45.04 115.123 44.4944C115.59 44.2606 116.135 43.9489 116.68 43.7151C116.68 44.7282 116.524 45.5855 115.512 46.3648ZM116.291 41.2212C116.369 42.2343 116.291 42.4682 115.357 42.9358C115.201 42.4682 115.123 42.0785 114.968 41.5329C115.435 41.3771 115.824 41.2991 116.291 41.2212ZM114.656 42.3902C114.734 42.624 114.734 42.9358 114.89 43.3254C114.033 43.0137 113.8 42.4682 113.644 41.8447C114.423 41.533 114.501 41.6109 114.656 42.3902ZM113.878 49.0925C113.099 48.9367 112.944 48.7808 112.71 47.9235C112.944 47.8456 113.099 47.6897 113.411 47.6118C113.566 48.1573 113.722 48.6249 113.878 49.0925ZM112.788 44.6503C113.177 46.209 112.866 46.6766 111.231 47.3001C111.153 46.6766 111.153 45.9752 111.076 45.3517C111.698 45.2738 112.321 45.3517 112.788 44.6503ZM112.477 42.0785C112.71 42.9358 112.632 43.2475 111.776 43.871C111.698 43.3254 111.62 42.8578 111.543 42.2344C111.932 42.2344 112.165 42.1564 112.477 42.0785ZM110.998 42.4682C111.076 43.0916 111.153 43.6371 111.309 44.2606C110.92 44.1827 110.764 44.0268 110.686 43.7151C110.609 43.4034 110.453 43.1696 110.297 42.8578C110.453 42.702 110.686 42.5461 110.998 42.4682ZM110.375 44.8841C110.453 45.8193 110.609 46.5986 110.686 47.4559C109.908 47.5339 109.597 47.3 109.597 46.5986C109.597 45.8972 109.519 45.2738 110.375 44.8841ZM109.208 43.0916C109.363 44.0268 109.208 44.2606 108.351 44.7282C108.351 44.2606 108.351 43.793 108.351 43.4034C108.663 43.2475 108.974 43.1695 109.208 43.0916ZM107.106 43.7151C107.262 43.6372 107.495 43.5592 107.729 43.4813C108.04 43.9489 107.884 44.4165 107.806 44.8841C107.106 44.8841 107.106 44.7282 107.106 43.7151ZM106.639 45.6634C107.262 45.8973 107.806 46.131 108.351 46.3648C108.429 47.3001 108.04 47.7677 106.795 48.3132C106.639 47.378 106.483 46.5207 106.639 45.6634ZM106.25 48.3132C105.393 48.3132 105.393 48.2353 105.471 47.6118C105.471 47.3001 105.471 46.9883 105.549 46.7545C105.627 46.5987 105.705 46.4428 105.938 46.1311C106.172 46.9104 106.094 47.6118 106.25 48.3132ZM105.86 44.0268C105.938 44.7282 105.783 44.962 104.771 45.4296C104.771 45.04 104.693 44.7282 104.693 44.2606C105.082 44.1827 105.471 44.1048 105.86 44.0268ZM104.537 49.6381C104.615 49.4043 104.771 49.2484 105.004 49.0146C105.082 49.716 105.16 50.2616 105.238 50.8071C105.238 50.885 105.238 51.0409 105.238 51.1188C104.926 50.885 104.459 49.8719 104.537 49.6381ZM103.292 50.1057C103.525 49.9498 103.759 49.8719 103.992 49.716C104.07 50.1057 104.226 50.4174 104.304 50.8071C103.759 50.885 103.525 50.5733 103.292 50.1057ZM104.226 44.8841C104.226 45.1958 104.226 45.4296 104.304 45.7414C103.759 45.5076 103.681 45.04 103.603 44.5724C104.148 44.3386 104.148 44.3386 104.226 44.8841ZM103.292 46.3648C103.681 46.5987 103.992 46.7545 104.382 46.9883C104.382 48.0015 103.915 48.547 102.903 48.9367C102.903 48.1573 102.903 47.4559 102.903 46.6766C102.903 46.5986 103.136 46.4428 103.292 46.3648ZM103.603 57.0418C103.681 57.8211 103.214 58.3667 102.436 58.7563C101.969 57.1977 101.502 55.7169 101.112 54.2362C101.657 53.9244 102.202 53.6127 102.825 53.223C103.058 54.47 103.448 55.7949 103.603 57.0418ZM102.202 50.4953C102.046 50.885 101.813 51.2747 101.579 51.7423C101.19 50.9629 100.879 50.3395 100.645 49.6381C100.723 49.6381 100.723 49.5601 100.801 49.5601C101.19 49.8719 101.657 50.1057 102.202 50.4953ZM101.346 47.5339C101.657 47.4559 101.969 47.3001 102.202 47.2221C102.436 47.8456 102.436 48.4691 102.202 49.2484C101.346 49.2484 101.035 48.7808 101.346 47.5339ZM102.436 44.8841C102.591 45.1179 102.513 45.3517 102.046 45.7414C101.813 45.3517 101.813 45.3517 101.813 44.5724C102.046 44.7282 102.358 44.8062 102.436 44.8841ZM101.19 44.7282C101.268 45.1958 101.424 45.6635 101.502 46.1311C100.645 46.5987 100.256 46.209 100.256 44.7282C100.568 44.7282 100.801 44.7282 101.19 44.7282ZM101.035 51.8982C100.645 51.8982 100.412 51.8982 100.023 51.8982C99.9448 51.2747 99.867 50.7291 99.867 50.1836C99.867 50.1057 100.1 50.0277 100.256 49.9498C100.49 50.6512 100.723 51.1968 101.035 51.8982ZM98.8551 49.4043C98.7772 48.7808 98.6216 48.3132 98.5437 47.7677C99.0886 47.4559 99.5556 47.2221 100.023 46.9883C100.334 48.0794 100.1 48.547 98.8551 49.4043ZM99.0886 44.8841C99.2443 45.8973 99.1664 46.1311 98.3102 46.5207C98.2324 45.9752 98.1545 45.5076 98.1545 44.962C98.4659 44.962 98.7772 44.962 99.0886 44.8841ZM95.1967 25.011C94.4183 23.9199 93.6399 22.8288 92.7837 21.8157C92.161 21.1143 91.3826 20.4908 90.6042 19.8673C90.6042 19.3997 90.8378 19.2438 91.227 19.3997C91.6161 19.5556 92.0053 19.7894 92.3167 20.1011C92.7059 20.4908 93.0951 20.8804 93.4064 21.348C94.1848 22.2053 94.8853 22.2833 95.8972 21.7377C96.5978 21.348 97.2205 21.2701 97.921 21.6598C98.4659 21.8936 98.6216 22.5171 98.2324 22.9847C98.0767 23.2185 97.8432 23.3743 97.6096 23.6081C97.454 23.8419 97.2205 24.0757 97.0648 24.3096C96.5199 25.2448 97.1426 26.3358 98.3102 26.2579C98.8551 26.2579 99.3999 26.0241 100.023 25.8682C100.645 25.7124 101.268 25.4786 101.813 26.18C101.579 26.8814 101.035 27.271 100.412 27.5828C99.867 27.8166 99.3999 28.1283 98.9329 28.518C98.4659 28.9856 98.3102 29.609 98.5437 30.2325C98.7772 30.778 99.2443 31.0119 99.7891 31.0898C100.334 31.1677 100.801 31.1677 101.346 31.1677C101.579 31.1677 101.813 31.0898 101.969 31.1677C102.202 31.2457 102.358 31.4795 102.513 31.7133C102.669 31.9471 102.436 32.1809 102.202 32.3367C101.735 32.7264 101.19 32.6485 100.645 32.7264C100.256 32.8043 99.867 32.8044 99.4778 32.8823C99.0107 32.9602 98.6994 33.2719 98.6994 33.7395C98.6994 34.2071 98.7772 34.6748 98.8551 35.1424C98.8551 35.4541 98.8551 35.8438 98.8551 36.2334C98.5437 36.2334 98.388 36.1555 98.1545 36.1555C98.0767 35.0644 97.921 34.0513 97.8432 33.0381C97.921 29.9208 96.7534 27.349 95.1967 25.011ZM96.9091 50.0278C97.1426 50.1836 97.454 50.3395 97.6875 50.5733C97.454 51.3526 97.1426 51.8982 96.5199 52.2099C96.1307 51.1188 96.1307 51.0409 96.9091 50.0278ZM96.2086 45.2738C96.0529 45.8973 96.2086 46.6766 95.2745 47.0662C95.2745 46.7545 95.2745 46.5207 95.1967 46.3648C95.1189 45.3517 95.1188 45.3517 96.2086 45.2738ZM93.8734 45.7414C94.0291 45.6635 94.1848 45.5855 94.4183 45.5855C94.4961 45.5855 94.6518 45.5855 94.8075 45.5076C94.8075 46.131 94.8075 46.6766 94.8075 47.2221C93.8734 46.9883 93.8734 46.9104 93.8734 45.7414ZM94.574 71.0699C92.3167 68.1864 92.0053 67.6408 92.0832 67.0173C93.0951 68.2643 93.9513 69.4333 94.574 71.0699ZM96.3643 76.3694C96.6756 76.9149 97.0648 77.4605 96.8313 78.2398C94.7296 75.0445 93.2507 71.5375 90.6821 68.576C90.9156 68.3422 90.9934 68.2643 91.0713 68.1863C91.2269 68.2643 91.3048 68.3422 91.3826 68.4201C92.0053 69.3553 92.7059 70.2126 93.2507 71.1478C94.3405 72.8624 95.3524 74.5769 96.3643 76.3694ZM83.988 24.7771C84.2215 24.4654 84.455 24.2316 84.7664 23.9199C84.8442 23.9199 84.9221 23.9978 84.9221 23.9978C84.9221 24.3095 84.8442 24.6213 84.8442 24.933C84.7664 25.6344 84.6886 26.3358 84.7664 27.0372C84.8442 28.2062 85.8561 28.5959 86.7902 27.9724C87.0237 27.8166 87.2572 27.5828 87.4907 27.4269C87.8021 27.271 88.1134 27.1152 88.4248 26.9593C88.6583 27.5048 88.5026 27.8166 88.3469 28.1283C87.5686 29.2973 86.868 30.4663 86.0896 31.6353C85.934 31.8691 85.7005 32.025 85.3891 32.2588C84.9999 31.0898 84.9999 29.8429 84.1437 28.9856C83.2875 28.2062 82.3534 27.5828 81.4194 26.8034C82.7426 26.6476 83.2875 25.5565 83.988 24.7771ZM88.7361 34.7527C88.4248 34.441 88.1134 34.2851 87.8799 34.0513C87.9577 33.7396 87.9578 33.5058 88.0356 33.272C88.1134 33.0382 88.1913 32.8823 88.3469 32.5705C88.7361 33.2719 88.9696 33.8954 88.7361 34.7527ZM78.5394 28.9856C78.6172 28.518 78.6172 27.9724 78.695 27.5048C79.0064 27.6607 79.3177 27.8166 79.5513 27.9724C79.7069 28.1283 79.9404 28.2842 80.0961 28.44C80.0961 29.0635 80.0961 29.609 80.174 30.2325C79.5513 30.0766 78.9286 30.0766 78.4615 30.2325C78.3837 29.8428 78.4615 29.3753 78.5394 28.9856ZM77.6832 24.5433C77.761 24.5433 77.761 24.6213 77.6832 24.6213C77.6832 24.6213 77.6053 24.6213 77.6832 24.5433ZM77.6832 25.3227C77.6832 25.4006 77.761 25.4785 77.761 25.5565C77.761 25.6344 77.761 25.7124 77.761 25.7124C77.761 25.6344 77.761 25.5565 77.761 25.5565C77.6053 25.4785 77.6832 25.4006 77.6832 25.3227ZM75.348 28.44C75.5037 28.2842 75.7372 28.1283 75.8929 27.9724C76.1264 27.8166 76.4377 27.5828 76.7491 27.5048C76.8269 27.9724 76.8269 28.518 76.9048 28.9856C76.9826 29.4532 76.9826 29.8428 77.0604 30.3105C76.5934 30.1546 75.9707 30.1546 75.348 30.3105C75.348 29.609 75.348 28.9856 75.348 28.44ZM66.9415 26.9593C67.2529 27.1152 67.5642 27.271 67.8756 27.4269C68.1091 27.5828 68.3426 27.8166 68.5761 27.9724C69.5102 28.5959 70.4442 28.2062 70.5999 27.0372C70.6777 26.3358 70.5221 25.6344 70.5221 24.933C70.5221 24.6213 70.4442 24.3095 70.4442 23.9978C70.5221 23.9978 70.5999 23.9199 70.5999 23.9199C70.8334 24.2316 71.0669 24.4654 71.3783 24.7771C72.1567 25.5565 72.6237 26.6476 73.8691 26.8814C72.935 27.6607 72.001 28.2842 71.1448 29.0635C70.2885 29.9208 70.2886 31.1677 69.8994 32.3367C69.588 32.1029 69.3545 31.9471 69.1988 31.7133C68.4204 30.5443 67.6421 29.3753 66.9415 28.2062C66.7858 27.8945 66.708 27.5048 66.9415 26.9593ZM67.0194 32.5705C67.175 32.8823 67.2529 33.0382 67.3307 33.272C67.4085 33.5058 67.4086 33.7396 67.4864 34.0513C67.175 34.2851 66.9415 34.5189 66.6302 34.7527C66.3967 33.8954 66.6302 33.2719 67.0194 32.5705ZM64.9956 40.0522C66.241 37.2466 69.2767 34.7527 72.0788 33.5837C73.0129 33.194 73.9469 32.6485 74.9588 32.3367C75.5037 32.1029 76.2042 32.025 76.8269 31.9471C77.1383 31.8691 77.3718 31.7912 77.6832 31.7133C77.6832 31.7133 77.6831 31.7133 77.761 31.7133C77.761 31.7133 77.761 31.7133 77.8388 31.7133C78.0723 31.7912 78.3837 31.8691 78.695 31.9471C79.3177 32.1029 79.9404 32.1029 80.5631 32.3367C81.575 32.7264 82.4313 33.194 83.4432 33.5837C86.2453 34.7527 89.2032 37.2466 90.5264 40.0522C90.9156 40.9874 90.7599 41.7667 90.1372 42.3902C88.6583 43.9489 86.868 45.1958 84.8442 45.9752C83.1318 46.5987 81.4194 47.0663 79.6291 47.6118C79.0064 47.7677 78.4615 47.8456 78.0723 47.3001C78.0723 47.3001 77.9945 47.3001 77.9167 47.3001C77.9167 47.378 77.9167 47.4559 77.8388 47.5339C77.8388 47.4559 77.8388 47.378 77.761 47.3001C77.6831 47.3001 77.6053 47.3001 77.6053 47.3001C77.1383 47.9235 76.5934 47.8456 76.0486 47.6118C74.3361 47.0663 72.5458 46.5987 70.8334 45.9752C68.8096 45.1958 67.0194 44.0268 65.5404 42.3902C64.7621 41.7667 64.6064 40.9874 64.9956 40.0522ZM63.2831 66.9394C63.361 67.5629 63.0496 68.1084 60.7923 70.992C61.415 69.4333 62.2713 68.2643 63.2831 66.9394ZM63.9837 68.4201C64.0615 68.3422 64.1394 68.3422 64.295 68.1863C64.3729 68.2643 64.5285 68.4202 64.7621 68.576C62.1934 71.5375 60.7145 74.9666 58.6129 78.2398C58.3794 77.3826 58.6907 76.9149 59.0799 76.3694C60.0918 74.6549 61.1037 72.8624 62.1934 71.1478C62.6604 70.2126 63.361 69.2774 63.9837 68.4201ZM60.5588 45.5076C60.7145 45.5076 60.8702 45.5076 60.948 45.5855C61.1037 45.6634 61.3372 45.7414 61.4929 45.7414C61.4929 46.9104 61.4929 46.9104 60.5588 47.3001C60.5588 46.6766 60.5588 46.131 60.5588 45.5076ZM16.9696 33.8954C18.682 35.2203 20.3944 36.6231 22.029 38.0259C23.508 39.2729 24.9869 40.5198 26.4658 41.8447C27.0885 42.3902 27.7112 42.9358 28.3339 43.4034C28.2561 43.7151 28.1782 43.9489 28.1004 44.2606C26.855 43.6371 25.6096 43.1696 24.442 42.4682C22.2626 41.2212 20.0831 39.8963 17.9036 38.6494C16.3469 37.7142 15.0236 36.5452 14.0896 34.9865C13.7004 34.2851 13.7782 33.5057 13.8561 32.7264C15.1015 32.8043 16.1134 33.194 16.9696 33.8954ZM15.7242 28.6738C15.802 27.8945 16.4247 27.5048 17.1253 27.8945C17.3588 28.0504 17.5923 28.2062 17.748 28.3621C18.9934 29.687 20.2388 30.9339 21.4842 32.2588C23.2745 34.2851 24.9869 36.4672 26.855 38.4156C27.5555 39.117 27.7112 39.8184 27.3999 40.6757C27.3999 40.7536 27.322 40.7536 27.322 40.9095C27.1663 40.7536 27.0107 40.6757 26.9328 40.5198C25.8431 39.3508 24.5977 38.3376 23.3523 37.3245C22.7296 36.8569 22.1847 36.3893 21.6399 35.8438C20.0053 34.2072 18.3707 32.5705 16.7361 30.9339C15.9577 30.4663 15.7242 29.609 15.7242 28.6738ZM13.9339 38.5715C14.4009 38.5715 14.868 38.5715 15.2571 38.7273C15.802 38.9611 16.3469 39.2729 16.8917 39.5846C20.1609 41.6888 23.4301 43.871 26.6993 45.9752V46.0531C26.5436 46.0531 26.388 45.9752 26.2323 45.9752C23.3523 44.8841 20.5501 43.793 17.748 42.5461C16.5026 42.0006 15.335 41.2212 14.1674 40.5198C13.8561 40.286 13.5447 39.9743 13.3112 39.5846C12.9998 39.117 13.2334 38.6494 13.9339 38.5715ZM15.9577 43.793C16.1912 43.7151 16.5025 43.6372 16.7361 43.7151C17.5144 43.9489 18.2928 44.1827 18.9934 44.4944C21.8734 45.8973 24.7534 47.0663 27.7891 48.0015C28.1782 48.0794 28.5674 48.1573 29.0345 48.2353C29.1123 48.6249 29.1901 49.0146 29.3458 49.4043C29.1123 49.3263 29.0345 49.2484 28.8788 49.2484C27.9447 49.0925 27.0107 48.8587 26.0766 48.7029C25.2982 48.547 24.5199 48.3132 23.7415 48.2353C21.8734 48.0015 20.1609 47.5339 18.4485 46.6766C17.5923 46.209 16.7361 45.7414 15.9577 45.2738C15.1793 44.8841 15.2571 44.1048 15.9577 43.793ZM20.9393 49.7939C21.2507 49.716 21.562 49.716 21.9512 49.716C22.4182 49.716 22.8853 49.716 23.3523 49.716C23.975 49.716 24.6755 49.7939 25.2982 49.8719C26.855 50.0277 28.3339 50.2615 29.8907 50.4953C30.0464 50.4953 30.202 50.5733 30.3577 50.6512C30.8247 50.885 31.2139 50.9629 31.6809 50.885C31.9145 50.885 32.0701 50.885 32.3036 50.885C32.3036 50.9629 32.3036 51.0409 32.3815 51.1188C31.8366 51.3526 31.2139 51.7423 30.5134 51.5864C30.2799 51.5085 30.0464 51.5864 29.8907 51.6643C29.3458 51.7423 28.8009 51.9761 28.2561 52.054C26.855 52.2878 25.3761 52.6775 23.8972 52.4437C22.6518 52.2878 21.562 51.8202 20.628 50.9629C20.1609 50.4174 20.2388 49.9498 20.9393 49.7939ZM30.6691 47.6118C30.9026 47.6897 31.1361 47.7677 31.3696 47.8456C31.2139 48.3132 31.2917 48.7808 30.7469 49.0146C30.5134 48.547 30.5912 48.0794 30.6691 47.6118ZM31.6031 49.6381C31.6809 49.0146 31.7588 48.4691 31.7588 47.8456C32.2258 47.6897 32.6928 47.6118 33.2377 47.4559C33.5491 48.0794 33.082 48.3911 32.8485 48.7808C32.615 49.2484 32.3815 49.716 31.6031 49.6381ZM28.3339 53.301C29.1901 52.9892 30.0464 52.8334 30.9026 52.5996C31.3696 52.4437 31.8366 52.2878 32.3036 52.132C32.6928 52.5996 33.082 52.9892 33.3934 53.3789C32.6928 54.0024 31.9923 54.6258 31.2918 55.2493C30.6691 55.7948 29.8907 56.1845 29.0345 56.0286C28.1782 55.8728 27.3999 55.4831 26.6215 55.0155C26.855 54.0803 27.4777 53.6127 28.3339 53.301ZM32.148 56.8859C32.2258 56.1845 32.4593 55.639 33.0042 55.1714C33.4712 54.7817 33.9382 54.3141 34.4831 53.9244C34.7945 53.6906 35.1058 53.5348 35.4172 53.301C35.7285 53.7686 35.8842 54.1582 36.1177 54.5479C35.8842 55.1714 35.6507 55.7169 35.3393 56.2625C35.028 56.9639 34.5609 57.5873 33.8604 57.977C33.0042 58.3667 32.0701 57.7432 32.148 56.8859ZM36.2734 49.6381C35.7285 50.4954 35.2615 51.3526 34.7945 52.2099C34.7166 52.2099 34.6388 52.132 34.6388 52.132C34.8723 51.1967 35.1058 50.3395 35.3393 49.3263C35.6507 49.4043 35.962 49.5602 36.2734 49.6381ZM35.7285 47.6118C35.8064 47.2221 35.8842 46.9104 35.962 46.5207C36.0399 46.5207 36.1177 46.5986 36.2734 46.5986C36.1955 46.9104 36.2734 47.378 35.7285 47.6118ZM35.7285 58.4446C35.962 57.2756 36.5069 56.2625 36.8961 55.4052C37.6745 55.1714 38.2193 55.0155 38.842 54.8596C38.9977 55.1714 39.0756 55.5611 39.2312 55.8728C39.3869 56.1845 39.3869 56.4183 39.2312 56.73C38.9199 57.4315 38.6864 58.1329 38.4528 58.8343C38.1415 59.7695 37.3631 60.0812 36.4291 59.6916C36.2734 59.6136 36.1955 59.5357 36.0399 59.4577C35.7285 59.2239 35.5728 58.9122 35.7285 58.4446ZM41.4107 47.5339C41.1772 48.1573 41.0215 48.7029 40.8658 49.2484C40.6323 49.1705 40.5545 49.0925 40.2431 49.0146C40.788 48.547 40.5545 47.7677 41.4107 47.5339ZM40.3209 46.7545C40.3988 46.0531 40.5545 45.4296 40.6323 44.7282C40.7101 44.2606 40.9437 44.1048 41.3328 44.1048C41.255 44.7282 41.255 45.3517 41.1772 45.8972C41.255 46.5986 41.255 46.5987 40.3209 46.7545ZM41.0215 55.2493C40.2431 54.3141 40.2431 53.3789 40.4766 52.5996C40.788 51.6644 41.1772 50.7291 42.4226 50.6512C41.9555 52.132 41.4885 53.6127 41.0215 55.2493ZM43.0453 50.8071C43.9015 51.4306 43.8237 52.2099 43.5123 52.9892C43.3566 53.301 43.3566 53.6127 43.201 53.9244C42.8896 54.6259 42.4226 55.3272 41.5663 55.561C42.1112 53.9244 42.2669 52.2878 43.0453 50.8071ZM39.7761 49.0146C39.4647 48.4691 39.3091 48.0794 39.0756 47.6118C39.0756 47.5339 39.1534 47.5339 39.1534 47.4559C39.4647 47.6118 39.8539 47.7677 40.2431 47.9235C40.0874 48.2353 40.0096 48.547 39.7761 49.0146ZM39.1534 50.8071C39.1534 50.7292 39.2312 50.7291 39.3091 50.6512C39.4647 50.7291 39.6204 50.885 39.7761 50.9629C39.6982 52.3658 38.842 53.1451 37.908 54.0024C37.8301 53.8465 37.7523 53.7686 37.7523 53.6906C38.2193 52.7554 38.6864 51.7423 39.1534 50.8071ZM37.2853 53.4568C36.6626 52.9113 36.5847 52.8334 36.6626 52.132C36.8182 50.9629 37.3631 49.9498 38.0637 48.9367C38.2972 49.4043 38.5307 49.7939 38.7642 50.2615C38.2972 51.2747 37.9858 52.4437 37.2853 53.4568ZM40.3209 56.73C41.3328 56.6521 42.2669 56.5742 43.201 56.4963C43.0453 57.1197 42.3447 57.4315 42.1891 58.1329C42.1112 58.8343 41.8777 59.4578 41.722 60.1592C41.6442 60.393 41.5664 60.5488 41.4885 60.7826C41.4107 61.0164 41.255 61.2502 41.0993 61.4061C41.0215 61.484 40.788 61.6399 40.6323 61.562C39.8539 61.4061 39.2312 60.5488 39.2312 59.7695C39.2312 58.6005 39.8539 57.7432 40.3209 56.73ZM42.8118 60.7047C42.8896 59.5357 43.3566 58.5225 43.7458 57.2756C44.5242 58.0549 45.3804 58.1329 46.3145 57.8991C46.081 58.6784 45.7696 59.3798 45.5361 60.0812C45.3804 60.6268 45.2247 61.1723 45.0691 61.6399C44.9134 62.1075 44.602 62.4972 44.0572 62.731C42.8118 62.1854 42.7339 62.0296 42.8118 60.7047ZM45.4582 56.9639C44.7577 56.808 44.2907 56.2625 44.2907 55.4831C44.2907 54.3921 44.602 53.4568 44.9134 52.5216C45.5361 52.3658 46.081 52.2099 46.548 52.132C46.2366 53.7686 46.0031 55.3273 45.6918 56.9639C45.6139 56.9639 45.5361 56.9639 45.4582 56.9639ZM43.8237 48.547C44.2129 48.6249 44.5242 48.6249 44.9912 48.7029C44.8356 49.1705 44.7577 49.5601 44.602 49.9498C44.0572 49.5601 43.8237 49.1705 43.8237 48.547ZM45.7696 50.2615C45.9253 49.5601 46.0809 48.8587 46.2366 48.1573C46.7037 48.547 47.0928 48.7808 47.482 49.0925C47.0928 49.9498 46.548 50.4174 45.7696 50.2615ZM47.482 51.1188C47.6377 51.5085 47.8712 51.8982 47.7934 52.2099C47.5599 53.5348 47.1707 54.7817 46.8593 56.0286C46.7815 56.1845 46.7037 56.3404 46.548 56.4963C46.4702 56.4963 46.3923 56.4963 46.3923 56.4963C46.3145 54.6258 46.9372 52.9113 47.482 51.1188ZM46.4702 60.7047C46.7037 59.8474 47.0928 58.9902 47.4042 58.2108C47.9491 58.5225 48.3383 58.9901 48.8831 59.146C49.3502 59.3019 49.9729 59.2239 50.5956 59.3019C49.9729 59.8474 49.6615 60.5488 49.5058 61.3282C49.2723 62.2634 48.7274 63.0427 47.9491 63.6662C46.548 63.1207 46.0031 62.1854 46.4702 60.7047ZM48.961 53.223C49.2723 53.4568 49.5058 53.6127 49.7393 53.7686C49.5058 55.4831 49.1166 56.4963 48.5718 57.1977C47.9491 55.7948 48.5718 54.5479 48.961 53.223ZM48.4161 49.4822C48.961 49.4043 49.3501 49.4043 49.7393 49.4043C49.5837 49.9498 49.5058 50.3395 49.2723 50.9629C49.0388 50.4174 48.8053 50.0277 48.4161 49.4822ZM49.9729 54.7817C50.1285 53.9244 50.6734 53.4568 51.3739 52.9892C51.0626 54.0803 50.8291 55.1714 50.4399 56.1845C50.2842 56.6521 49.895 57.0418 49.5058 57.4315C49.428 57.5094 49.1945 57.5873 49.0388 57.5873C49.428 56.6521 49.8172 55.7948 49.9729 54.7817ZM50.2842 63.1206C50.2842 62.1075 50.6734 61.0944 51.1404 60.2371C51.2961 59.8474 51.841 59.6136 52.308 59.7695C52.9307 59.9254 53.5534 60.0812 54.2539 60.2371C54.0983 60.7047 53.8647 61.0944 53.7091 61.562C53.3977 62.4192 53.0864 63.1986 52.775 64.0559C52.3858 64.9131 52.2301 64.9911 51.3739 64.6793C51.2961 64.6793 51.2183 64.6014 51.1404 64.6014C50.4399 64.2117 50.2842 63.9779 50.2842 63.1206ZM56.5112 53.223C56.4334 53.6906 56.2777 54.0803 56.1221 54.6258C55.8885 55.7169 55.3437 56.7301 54.7988 57.7432C54.5653 58.1329 54.3318 58.6005 53.7091 58.5225C53.7091 58.4446 53.7091 58.3667 53.7091 58.2887C54.0983 57.0418 54.4874 55.7948 54.8766 54.47C54.9545 54.3141 55.1102 54.0803 55.2658 54.0024C55.655 53.6906 56.0442 53.4568 56.5112 53.223ZM55.8885 51.5085C55.9664 51.1188 56.0442 50.8071 56.0442 50.4953C56.2777 50.5733 56.3556 50.5733 56.5891 50.6512C56.5112 51.0409 56.4334 51.3526 55.8885 51.5085ZM54.2539 63.5103C54.4875 62.4192 54.7988 61.4061 55.1102 60.315C55.8885 60.7047 56.5112 61.0944 57.2118 61.4061C57.601 61.562 57.7566 61.8737 57.6788 62.2634C57.601 62.8089 57.601 63.3544 57.4453 63.9C57.2896 64.6014 57.0561 65.2249 56.2777 65.4587C55.1102 65.6925 53.8648 65.1469 54.2539 63.5103ZM57.2118 59.6136C56.7447 58.9122 56.4334 58.2887 56.6669 57.4315C56.8226 56.9639 56.8226 56.4963 56.9004 56.0286C57.0561 55.3272 57.2118 54.5479 57.3675 53.8465C58.068 54.1582 58.6907 54.392 59.3134 54.6258C59.0021 56.4183 58.6907 58.2887 58.4572 60.1592C57.9902 60.315 57.5231 60.0812 57.2118 59.6136ZM58.2237 47.5339C58.2237 48.0794 58.3015 48.547 58.2237 48.9367C58.068 49.3263 57.6788 49.6381 57.0561 49.716C57.134 49.0146 57.2896 48.3911 57.3675 47.7677C57.6788 47.6118 57.9123 47.6118 58.2237 47.5339ZM57.601 46.6766C57.6788 46.131 57.6788 45.6635 57.7566 44.962C58.3015 45.9752 58.3015 46.2869 57.601 46.6766ZM59.9361 54.7038C60.0139 54.3921 60.1696 54.2362 60.5588 54.3141C60.5588 55.7949 60.6366 57.1977 60.2474 58.6005C60.0918 59.146 59.9361 59.7695 59.1577 60.0033C59.1577 59.7695 59.0799 59.6915 59.0799 59.5357C59.3912 57.8991 59.6248 56.3404 59.9361 54.7038ZM59.7804 50.885C60.0918 51.5864 59.9361 52.054 59.4691 52.4437C59.3912 51.8981 59.4691 51.4305 59.7804 50.885ZM60.3253 52.3658C60.4031 51.8982 60.481 51.5085 60.5588 51.0409C60.6367 51.0409 60.6366 51.0409 60.7145 51.0409C60.7145 51.5085 60.6366 51.8982 60.6366 52.3658C60.5588 52.3658 60.4031 52.3658 60.3253 52.3658ZM58.6907 61.7958C59.3912 61.6399 60.0139 61.4061 60.7923 61.1723C60.8702 61.9516 60.8702 62.653 61.0258 63.4324C61.1037 63.822 61.0258 64.2117 60.8702 64.5234C60.6367 65.069 60.3253 65.5366 60.0139 66.0042C59.7804 66.3939 59.4691 66.4718 59.0799 66.1601C58.8464 66.0042 58.6907 65.6925 58.6129 65.4587C58.3794 64.2896 58.3793 63.0427 58.6907 61.7958ZM60.948 49.4822C60.6367 49.4043 60.481 49.4043 60.2474 49.3263C60.1696 49.0146 60.0918 48.7029 59.9361 48.3132C59.7804 48.7029 59.7026 48.8587 59.6248 49.0146C59.5469 49.0146 59.5469 49.0146 59.4691 49.0146C59.3912 48.7029 59.3134 48.3132 59.2356 48.0015C59.8583 48.0794 60.4031 48.0794 61.1037 48.1573C61.0258 48.547 61.0258 49.0146 60.948 49.4822ZM60.0918 46.2869C60.0918 46.5207 60.0918 46.6766 60.0139 46.9883C59.0799 46.5986 59.2356 45.8193 59.0799 45.1958C60.2474 45.3517 60.2475 45.3517 60.0918 46.2869ZM58.7685 52.2099C58.1458 51.8982 57.8345 51.3526 57.601 50.5733C57.9123 50.4174 58.1458 50.1836 58.3793 50.0278C59.2356 51.0409 59.2356 51.1188 58.7685 52.2099ZM56.2777 36.0776C56.2777 35.6879 56.2777 35.3762 56.2777 34.9865C56.2777 34.5189 56.4334 34.0513 56.4334 33.5837C56.4334 33.1161 56.122 32.8043 55.655 32.7264C55.2658 32.6485 54.8766 32.6485 54.4874 32.5705C53.9426 32.4926 53.3977 32.5705 52.9307 32.1809C52.6972 32.025 52.5415 31.7912 52.6193 31.5574C52.6972 31.3236 52.9307 31.0898 53.1642 31.0119C53.3199 30.9339 53.6312 31.0119 53.7869 31.0119C54.3318 31.0119 54.7988 31.0119 55.3437 30.9339C55.8885 30.856 56.3556 30.6222 56.5891 30.0767C56.9004 29.3753 56.7448 28.7518 56.1999 28.3621C55.8107 27.9724 55.2658 27.6607 54.721 27.4269C54.0983 27.1152 53.5534 26.8034 53.3199 26.0241C53.8647 25.4006 54.4875 25.6344 55.1102 25.7124C55.655 25.8682 56.1999 26.102 56.8226 26.102C57.9123 26.18 58.535 25.0889 58.068 24.1537C57.9123 23.9199 57.7566 23.6861 57.5231 23.4523C57.2896 23.2185 57.0561 23.0626 56.9004 22.8288C56.5112 22.3612 56.6669 21.8157 57.2118 21.5039C57.9123 21.1922 58.6129 21.2701 59.2356 21.5819C60.2475 22.1274 60.948 22.0495 61.7264 21.1922C62.1156 20.8025 62.4269 20.3349 62.8161 19.9452C63.1275 19.6335 63.5167 19.3997 63.9058 19.2438C64.295 19.088 64.5285 19.2438 64.5285 19.7114C63.7502 20.3349 62.9718 20.9584 62.3491 21.6598C61.4929 22.6729 60.6366 23.764 59.9361 24.8551C58.3793 27.271 57.2118 29.8429 57.0561 32.7264C57.0561 33.7395 56.8226 34.8306 56.7447 35.8438C56.8226 35.9996 56.5891 35.9996 56.2777 36.0776ZM56.2777 44.8841C56.5891 44.8841 56.8226 44.962 57.2896 45.04C57.2118 45.5855 57.1339 46.0531 57.1339 46.5986C56.1999 46.131 56.1221 45.8973 56.2777 44.8841ZM55.4215 46.9104C55.8885 47.1442 56.3556 47.378 56.9004 47.6897C56.8226 48.2353 56.6669 48.7808 56.5891 49.3263C55.2658 48.547 55.0323 48.0794 55.4215 46.9104ZM55.5772 50.1836C55.4993 50.7291 55.4215 51.2747 55.4215 51.8982C55.0323 51.8982 54.7988 51.8982 54.4096 51.8982C54.721 51.1968 54.9545 50.6512 55.2658 49.9498C55.3437 50.0277 55.5772 50.1057 55.5772 50.1836ZM54.6431 49.6381C54.721 49.6381 54.721 49.716 54.7988 49.716C54.4874 50.3395 54.1761 50.9629 53.8648 51.8202C53.6312 51.2747 53.3977 50.885 53.242 50.5733C53.7091 50.1057 54.1761 49.8719 54.6431 49.6381ZM53.0864 49.2484C52.9307 48.4691 52.9307 47.8456 53.0864 47.2221C53.3977 47.3001 53.7091 47.4559 53.9426 47.5339C54.3318 48.7808 54.0204 49.2484 53.0864 49.2484ZM54.1761 44.7282C54.4875 44.7282 54.7988 44.7282 55.1102 44.7282C55.1102 46.131 54.721 46.5987 53.8648 46.1311C53.9426 45.6635 54.0983 45.1958 54.1761 44.7282ZM52.9307 44.8841C53.0085 44.7282 53.3199 44.7282 53.5534 44.5724C53.5534 45.3517 53.5534 45.3517 53.3199 45.7414C52.8529 45.3517 52.775 45.1179 52.9307 44.8841ZM54.3318 54.2362C53.8648 55.7169 53.3977 57.2756 53.0085 58.7563C52.2302 58.3667 51.6853 57.8211 51.841 57.0418C51.9966 55.7169 52.3858 54.47 52.6193 53.1451C53.242 53.5348 53.7869 53.9244 54.3318 54.2362ZM51.1404 44.8841C51.2183 44.3386 51.2183 44.3386 51.841 44.5724C51.7631 45.04 51.6853 45.5076 51.1404 45.7414C51.1404 45.4296 51.1404 45.1958 51.1404 44.8841ZM51.0626 46.9883C51.4518 46.7545 51.7631 46.5987 52.1523 46.3648C52.308 46.5207 52.4637 46.5986 52.6193 46.6766C52.6193 47.4559 52.6193 48.1573 52.6193 48.9367C51.5296 48.547 50.9847 48.0015 51.0626 46.9883ZM51.3739 49.716C51.6074 49.8719 51.841 49.9498 52.0745 50.1057C51.841 50.4953 51.6074 50.885 50.9847 50.8071C51.1404 50.4954 51.2183 50.1057 51.3739 49.716ZM50.2064 51.0409C50.2064 50.885 50.2064 50.8071 50.2064 50.7292C50.2842 50.1836 50.3621 49.6381 50.4399 48.9367C50.6734 49.2484 50.8291 49.4043 50.9069 49.5601C50.9069 49.8719 50.4399 50.885 50.2064 51.0409ZM49.5058 44.0268C49.895 44.1048 50.2064 44.1827 50.6734 44.2606C50.5956 44.7282 50.5956 45.04 50.5956 45.4296C49.5837 45.04 49.428 44.7282 49.5058 44.0268ZM49.5058 46.1311C49.6615 46.4428 49.8172 46.5987 49.895 46.7545C49.9729 47.0663 49.9729 47.378 49.9729 47.6118C50.0507 48.2353 49.9729 48.3132 49.1945 48.3132C49.2723 47.6118 49.1945 46.9104 49.5058 46.1311ZM47.6377 43.5592C47.8712 43.6372 48.0269 43.7151 48.2604 43.793C48.3383 44.8062 48.2604 44.962 47.5599 45.04C47.482 44.4944 47.3264 44.0268 47.6377 43.5592ZM47.015 46.2869C47.5599 46.0531 48.1047 45.8972 48.7274 45.5855C48.8831 46.5207 48.6496 47.3 48.5718 48.1573C47.3264 47.6897 46.9372 47.2221 47.015 46.2869ZM46.1588 43.0916C46.4702 43.1695 46.7037 43.2475 47.015 43.3254C47.015 43.793 47.015 44.1827 47.015 44.6503C46.0809 44.2606 46.0031 44.0268 46.1588 43.0916ZM45.7696 46.5986C45.7696 47.3 45.4582 47.6118 44.6799 47.4559C44.7577 46.5986 44.9134 45.7414 44.9912 44.8841C45.8475 45.2738 45.7696 45.8972 45.7696 46.5986ZM44.3685 42.4682C44.7577 42.624 44.9134 42.702 45.1469 42.7799C44.9912 43.0916 44.8355 43.4034 44.7577 43.6372C44.6799 43.9489 44.5242 44.1827 44.135 44.1827C44.135 43.6372 44.2128 43.0916 44.3685 42.4682ZM42.8896 42.0785C43.1231 42.1564 43.3566 42.1564 43.8237 42.2344C43.7458 42.7799 43.668 43.3254 43.5901 43.871C42.8118 43.3254 42.6561 42.9358 42.8896 42.0785ZM42.5783 44.6503C43.0453 45.3517 43.7458 45.3517 44.2907 45.3517C44.2128 46.0531 44.2129 46.6766 44.135 47.3001C42.5004 46.6766 42.1891 46.209 42.5783 44.6503ZM42.6561 47.9235C42.4226 48.7808 42.2669 49.0146 41.4885 49.0925C41.6442 48.6249 41.7999 48.0794 41.9555 47.6118C42.2669 47.7677 42.4226 47.8456 42.6561 47.9235ZM40.7101 42.3902C40.8658 41.6109 40.9437 41.6109 41.722 41.9226C41.5664 42.4681 41.3328 43.0137 40.4766 43.4034C40.6323 42.9358 40.6323 42.624 40.7101 42.3902ZM39.1534 41.2212C39.5426 41.2991 40.0096 41.455 40.4766 41.5329C40.3209 42.0785 40.2431 42.4682 40.0874 42.9358C39.1534 42.4682 38.9977 42.2343 39.1534 41.2212ZM38.6864 43.6372C39.2312 43.9489 39.6983 44.1827 40.2431 44.4165C40.0874 45.04 40.0096 45.5855 39.8539 46.2869C38.842 45.5855 38.6864 44.7282 38.6864 43.6372ZM37.7523 47.378C37.4409 48.0015 37.2074 48.0794 36.5069 47.7677C36.5847 46.9104 36.8961 46.2869 37.8301 46.0531C37.9858 46.209 38.1415 46.4428 38.2193 46.5986C38.0637 46.8324 37.908 47.0662 37.7523 47.378ZM36.4291 45.3517C36.5847 44.6503 36.6626 43.9489 36.8182 43.3254C37.2853 43.2475 37.5966 43.1695 37.8301 43.0916C37.7523 43.4813 37.5966 43.871 37.5966 44.2606C37.5188 45.1179 37.4409 45.1959 36.4291 45.3517ZM37.5188 40.8315C37.6745 40.9095 37.8301 40.9095 38.0637 40.9874C37.8301 41.3771 37.8301 41.9226 37.1296 42.2344C37.2853 41.6888 37.441 41.2991 37.5188 40.8315ZM35.8842 40.5977C36.2734 40.6757 36.5847 40.7536 36.9739 40.8315C36.8182 41.2212 36.7404 41.5329 36.6626 42.0005C36.1177 41.5329 35.7285 41.2212 35.8842 40.5977ZM35.2615 42.4682C35.5728 42.702 35.962 42.9357 36.3512 43.1696C36.1955 43.871 36.1177 44.4944 35.962 45.1179C34.9501 44.7282 34.6388 43.4034 35.2615 42.4682ZM34.8723 45.9752C35.1058 46.0531 35.3393 46.209 35.6507 46.3648C35.5728 46.7545 35.495 47.0662 35.4172 47.378C34.5609 46.7545 34.561 46.7545 34.7945 45.9752C34.7166 45.9752 34.7945 45.9752 34.8723 45.9752ZM34.7166 40.4419C34.4831 40.6757 34.3274 40.7536 34.1718 40.9874C34.1718 40.286 34.1718 40.286 34.7166 40.4419ZM34.7945 49.2484C34.561 50.1057 34.3274 50.9629 34.0939 51.8202C33.6269 51.7423 33.4712 51.5085 33.5491 51.1968C33.6269 50.5733 33.7047 50.0277 33.9382 49.4822C34.0939 48.8587 34.1718 48.8587 34.7945 49.2484ZM33.9382 42.1564C33.9382 42.702 33.8604 43.1696 33.8604 43.7151C33.8604 44.4165 33.5491 44.6503 32.7707 44.4165C32.9263 43.793 33.082 43.1696 33.2377 42.624C33.3155 42.2344 33.6269 42.1564 33.9382 42.1564ZM33.7047 40.1301C33.6269 40.4419 33.6269 40.7536 33.5491 41.0653C32.9263 40.7536 32.4593 40.5198 32.4593 39.8184C32.8485 39.8963 33.2377 39.9743 33.7047 40.1301ZM31.3696 41.0653C31.9145 41.455 32.3037 41.7668 32.8485 42.1564C32.6928 42.8578 32.4593 43.4813 32.3036 44.1827C31.3696 43.7151 31.0582 42.4682 31.3696 41.0653ZM31.4474 45.4296C32.2258 45.5076 32.7707 45.6635 33.4712 45.7414C33.3934 45.8973 33.3155 46.131 33.2377 46.209C32.615 46.4428 31.9145 46.8325 31.1361 46.3648C31.2139 45.9752 31.2918 45.6634 31.4474 45.4296ZM30.4355 45.3517C30.202 45.1179 30.1242 44.7282 29.9685 44.3386C29.8907 44.1048 29.8907 43.793 30.1242 43.6372C30.4355 44.1048 30.669 44.5724 30.9804 45.04C30.9026 45.3517 30.7469 45.6635 30.4355 45.3517ZM30.202 38.5715C30.4355 38.8053 30.6691 39.117 30.9026 39.2729C30.5912 40.2081 30.3577 41.0653 30.0463 41.9226C28.8788 40.7536 29.0345 39.4287 30.202 38.5715ZM29.3458 47.0662C28.8009 47.0662 28.1004 46.8324 27.1663 46.2869C28.2561 45.8972 28.8009 46.3648 29.3458 47.0662ZM20.3945 13.3209C20.5501 11.996 20.9393 10.749 21.2507 9.42416C21.562 8.25515 21.9512 7.00821 22.1847 5.8392C22.4182 4.59225 23.0409 3.65705 24.1307 2.79978C24.3642 4.20259 24.2085 5.52747 23.8193 6.77441C23.508 7.94342 23.1966 9.19035 23.0409 10.4373C22.7296 12.1518 22.6518 13.9443 22.7296 15.7368C22.8074 16.9058 22.8074 18.0748 22.8074 19.4776C22.1069 18.5424 21.2507 18.7762 20.3945 18.8542C20.3166 17.919 20.3166 17.1396 20.2388 16.2823C20.3166 15.2692 20.2388 14.2561 20.3945 13.3209ZM20.3166 22.0494C20.7058 20.9584 21.3285 20.6466 22.2626 21.426C22.7296 21.8157 23.0409 22.2053 23.1966 22.8288C23.3523 23.6081 23.5858 24.3095 23.8193 25.011C24.3642 26.9593 24.9869 28.7518 25.8431 30.5443C26.388 31.7133 26.9328 32.8823 27.3999 34.0513C27.322 34.0513 27.322 34.1292 27.2442 34.1292C26.6215 33.194 25.9988 32.3367 25.4539 31.4015C23.975 28.9856 22.5739 26.5696 20.7836 24.3875C20.2388 23.6861 20.0831 22.8288 20.3166 22.0494ZM20.9393 27.1152C21.7955 28.2062 22.5739 29.2973 23.3523 30.4663C24.7534 32.5705 26.1545 34.7527 27.5555 36.9348C27.7891 37.3245 28.1782 37.6362 28.5674 38.0259C28.5674 38.0259 28.6453 38.1039 28.6453 38.1818C28.5674 38.2597 28.4117 38.3376 28.2561 38.4935C28.1004 38.3376 27.9447 38.2597 27.7891 38.1038C26.9328 37.1686 26.0766 36.2334 25.2982 35.2982C24.7534 34.7527 24.2863 34.1292 23.7415 33.5837C22.2626 31.7912 20.8615 29.9987 19.149 28.3621C18.9155 28.1283 18.7599 27.8945 18.6042 27.6607C18.2928 27.0372 18.0593 26.3358 17.8258 25.6344C17.5144 24.8551 17.748 24.2316 18.3707 23.6861C18.8377 23.764 19.0712 24.0757 19.2269 24.5433C19.6161 25.4006 20.3166 26.2579 20.9393 27.1152ZM16.3469 5.91714C16.5804 5.29366 16.8139 4.51431 17.6701 4.20258C18.1372 5.52746 18.2928 6.85234 18.3707 8.17721C18.5263 10.2035 18.6042 12.2298 18.8377 14.2561C18.9934 15.8147 19.3047 17.3734 19.4604 18.9321C19.4604 19.1659 19.5382 19.3997 19.4604 19.5556C19.149 20.4908 18.7599 21.3481 18.3707 22.3612C18.2928 22.3612 18.0593 22.4391 17.8258 22.5171C17.748 22.4391 17.748 22.3612 17.6701 22.2833C17.0474 19.7894 16.4247 17.2175 15.8799 14.7237C15.6463 13.5547 15.4128 12.3856 15.335 11.2166C15.2572 9.42415 15.7242 7.63168 16.3469 5.91714ZM11.5209 8.48895C11.6766 8.02134 11.988 7.94342 12.3771 8.33309C12.6885 8.64483 12.922 8.95655 13.0777 9.34622C13.4669 10.2035 13.8561 10.9828 14.0896 11.8401C14.4788 13.3209 15.0236 14.7237 15.1793 16.2823C15.2571 17.3734 15.5685 18.4645 15.7242 19.5556C15.802 20.179 15.8798 20.8025 15.9577 21.426C16.1912 22.5171 16.1912 23.5302 16.1912 24.7771C16.0355 24.5433 15.8798 24.3875 15.802 24.2316C14.7123 22.5171 13.7004 20.8025 12.5328 19.1659C11.8323 18.1528 11.4431 17.1396 11.3652 15.9706C11.2096 14.1002 11.1317 12.2298 11.1317 10.3594C11.0539 9.65795 11.2874 9.03448 11.5209 8.48895ZM6.22794 14.8016C5.99443 13.9443 5.9166 13.2429 6.15011 12.3077C7.23984 13.087 15.4128 25.0889 15.9577 26.5696C15.4128 26.8034 14.7901 27.1152 14.2453 27.349C13.2334 25.9462 12.1436 24.5434 11.2096 23.1405C10.1977 21.7377 9.26363 20.4128 8.32958 19.01C7.47336 17.6852 6.61713 16.3603 6.22794 14.8016ZM2.25822 19.1659C2.0247 18.8542 1.63551 18.4645 1.94686 17.9969C2.18037 17.6852 2.56957 17.6072 3.27011 17.919C3.89281 18.1528 4.51551 18.4645 5.06037 18.9321C5.60524 19.3997 6.22794 19.7114 6.85065 20.1011C8.17389 21.0363 9.18578 22.3612 10.1198 23.6861C10.8982 24.8551 11.6766 26.0241 12.6107 27.1152C13.4669 28.1283 14.0117 29.2973 14.5566 30.5443C14.6344 30.7781 14.7123 31.0119 14.868 31.1677C14.7901 31.2457 14.7901 31.3236 14.7123 31.3236C14.4788 31.1677 14.1674 31.0898 14.0117 30.9339C13.7004 30.7001 13.4669 30.4663 13.2334 30.2325C11.9101 29.0635 10.5869 27.8945 9.34146 26.7255C8.25173 25.7123 7.23984 24.6213 6.15011 23.4523C4.74903 21.8936 3.50362 20.5687 2.25822 19.1659ZM1.47984 23.8419C1.402 23.6861 1.402 23.4523 1.32416 23.2185C2.33606 22.6729 3.97065 22.9067 4.82687 23.6861C6.15011 24.933 7.31768 26.18 8.64092 27.4269C9.26363 28.0504 9.88633 28.6738 10.5869 29.2194C11.2874 29.7649 11.988 30.3105 12.6107 30.856C12.8442 31.0119 12.9998 31.1677 12.922 31.5574C12.7663 32.2588 12.6107 33.0381 12.455 33.8175C12.3771 33.8175 12.2993 33.7396 12.2215 33.6616C10.4312 32.4147 8.64092 31.1677 6.85065 29.8428C5.76092 29.0635 4.74902 28.1283 3.73713 27.271C2.72524 26.3358 2.18038 25.011 1.47984 23.8419ZM2.56956 31.0898C2.41389 30.7781 2.18037 30.4663 1.94686 30.1546C2.10253 30.0767 2.18038 29.9987 2.25822 29.9987C2.33605 29.9987 2.49173 29.9208 2.56956 29.9987C3.65929 30.2325 4.82686 30.2325 5.83875 30.856C7.86254 32.1809 9.96416 33.4278 11.9101 34.8306C12.7663 35.4541 13.3112 36.2334 13.7004 37.1687C13.1555 37.4025 12.6885 37.6363 12.0658 37.948C10.4312 37.1687 6.69497 34.9086 5.29389 33.8175C4.35984 32.9602 3.2701 32.1809 2.56956 31.0898ZM2.88092 37.4804C2.33606 37.0128 1.86903 36.4672 1.71335 35.6879C2.0247 35.61 2.25821 35.532 2.56956 35.532C3.73713 35.2982 4.82686 35.3762 5.83875 35.9996C6.77281 36.5452 7.70687 36.9348 8.71877 37.3245C9.8085 37.7142 10.8982 38.2597 11.8323 38.9611C11.988 39.0391 12.0658 39.1949 12.1436 39.3508C12.3771 39.9743 12.6107 40.6757 12.8442 41.3771C12.6885 41.3771 12.455 41.2991 12.2993 41.2991C10.042 40.6757 7.86254 39.9743 5.68308 39.117C4.59335 38.6494 3.73714 38.1039 2.88092 37.4804ZM9.03011 44.8841C8.17389 44.8841 7.23984 44.8841 6.38363 44.8841C5.99444 44.8841 5.68308 44.6503 5.37173 44.4944C5.13822 44.3386 4.67119 44.6503 4.35984 44.4165C3.97065 44.1048 3.58146 43.871 3.27011 43.5592C2.49173 42.8578 2.56957 42.2343 3.42579 41.6109C4.12633 41.1433 4.90471 41.1433 5.60525 41.2212C7.47336 41.455 9.4193 41.6888 11.2874 42.0005C12.2993 42.1564 13.3112 42.4682 14.3231 42.624C14.0117 43.3254 13.7782 43.871 13.4669 44.5724C13.389 44.5724 13.1555 44.6503 12.9999 44.6503C11.6766 44.7282 10.3534 44.8062 9.03011 44.8841ZM6.85065 49.3263C6.38362 49.0925 6.38362 48.9367 6.61713 48.4691C6.92848 47.7677 7.55119 47.5338 8.25173 47.378C9.4193 47.1442 10.509 46.7545 11.6766 46.5207C12.3771 46.3649 12.9998 46.209 13.7004 46.1311C14.0896 46.0531 14.3231 46.209 14.5566 46.4428C15.0236 46.8325 15.4907 47.1442 15.9577 47.378C16.6582 47.6897 17.3588 48.0015 18.0593 48.2353C18.0593 48.3132 18.0593 48.3911 18.0593 48.3911C17.8258 48.4691 17.5923 48.547 17.3588 48.547C15.5685 48.8587 13.8561 49.1705 12.0658 49.4043C10.8982 49.5601 9.65282 49.5601 8.48525 49.716C7.94038 49.7939 7.39551 49.6381 6.85065 49.3263ZM9.03011 53.223C9.18579 52.8334 9.34147 52.5996 9.49714 52.3658C9.96417 51.7423 10.6647 51.5085 11.4431 51.2747C13.4669 50.7291 15.4128 50.2615 17.4366 49.7939C18.0593 49.6381 18.7598 49.5601 19.3047 49.4043C19.3826 50.1836 19.4604 50.8071 19.4604 51.5085C19.3826 51.5864 19.3047 51.5864 19.2269 51.6643C17.0474 52.5216 14.7901 53.0672 12.455 53.4568C11.2874 53.6906 10.2755 53.223 9.03011 53.223ZM13.7004 57.7432C13.2334 57.8991 12.6107 57.5873 12.455 57.2756C12.2993 56.8859 12.5328 56.4963 12.922 56.1066C15.1015 54.47 17.5145 53.4568 20.0053 52.4437C20.1609 52.3657 20.4723 52.4437 20.628 52.5216C21.2507 52.8334 21.8734 53.223 22.5739 53.6127C22.1847 53.8465 21.8734 54.0024 21.4842 54.1582C19.6939 55.0934 17.9036 56.0287 16.0355 56.8859C15.4128 57.2756 14.5566 57.5094 13.7004 57.7432ZM18.6042 59.2239C17.748 59.6136 16.9696 59.6915 16.0355 59.4577C15.8798 58.7563 16.1134 58.2887 16.7361 58.0549C17.4366 57.7432 18.0593 57.3535 18.7599 56.9639C20.3944 56.1066 22.1069 55.2493 23.7415 54.392C23.975 54.2362 24.3642 54.2362 24.6755 54.1582C24.5977 54.6258 24.442 55.0155 24.5199 55.3272C24.5977 55.639 24.8312 56.0286 25.0647 56.4183C24.3642 56.808 23.6636 57.2756 22.9631 57.5873C21.4842 58.1329 20.0053 58.6005 18.6042 59.2239ZM19.8496 63.3544C19.3047 63.4324 18.9155 63.2765 18.7599 62.653C20.1609 60.7826 23.7415 57.977 25.9988 56.9639C26.5436 57.2756 27.0885 57.5873 27.7112 57.977C27.6334 58.0549 27.6334 58.1329 27.5555 58.2108C26.1545 59.6916 24.5199 60.9385 22.8853 62.1854C21.9512 62.9648 20.9393 63.1986 19.8496 63.3544ZM25.8431 65.6145C24.9869 66.238 23.8972 66.0821 22.8853 65.3028C23.3523 64.6793 23.7415 63.9779 24.2085 63.3544C25.6096 61.4061 27.5555 59.9254 29.1901 58.2108C29.5793 57.8211 30.0463 57.6653 30.5912 57.5873C30.7469 58.3667 31.1361 58.9902 31.7588 59.3798C30.202 61.7958 28.1782 63.9 25.8431 65.6145ZM31.3696 67.1732C30.7469 68.0305 29.735 68.4202 28.8009 68.7319C28.6453 68.8098 28.4896 68.7319 28.3339 68.7319C28.3339 67.9526 28.5674 67.2511 28.8788 66.6277C29.8907 64.4455 31.0582 62.4192 32.4593 60.393C32.9264 59.7695 33.3934 59.4577 34.0939 59.5357C34.5609 60.315 34.9501 61.0164 35.3393 61.7958C34.9501 62.3413 34.4831 62.9648 34.0161 63.5883C33.1599 64.8352 32.3036 66.0042 31.3696 67.1732ZM37.2074 66.7835C36.7404 67.7967 35.8842 68.576 35.1837 69.4333C35.028 69.5892 34.8723 69.745 34.6388 69.823C33.8604 70.3685 33.3934 70.1347 33.3155 69.1995C33.3155 68.576 33.3155 67.8746 33.5491 67.2511C34.1718 65.3807 35.1837 63.7441 36.3512 62.1075C36.4291 61.9516 36.5847 61.7958 36.8182 61.7178C37.2074 61.562 37.5966 61.4061 37.9858 61.2502C38.375 61.7958 38.7642 62.2634 39.2312 62.8869C39.2312 62.9648 39.1534 63.1206 39.0756 63.1986C38.4528 64.4455 37.7523 65.6145 37.2074 66.7835ZM40.4766 69.9009C40.1653 70.6802 39.6204 71.3817 38.9199 71.8493C38.5307 72.0831 38.2972 72.0051 37.9858 71.8493C37.5966 71.6155 37.5966 71.2258 37.5966 70.914C37.7523 69.9009 37.8301 68.8098 38.1415 67.8746C38.6864 66.3159 39.4647 64.8352 40.1653 63.4324C40.788 63.2765 41.255 63.1986 41.722 63.0427C42.1112 63.4324 42.5004 63.822 42.8896 64.2117C42.0334 66.0821 41.3328 68.0305 40.4766 69.9009ZM45.3026 69.2774C44.9912 70.1347 44.7577 71.0699 44.4464 71.9272C44.2907 72.4727 43.9793 72.9403 43.5123 73.2521C43.0453 73.5638 42.8118 73.4858 42.4226 73.0962C41.7999 72.3168 41.8777 71.4596 42.1112 70.6023C42.1891 70.2906 42.2669 70.0568 42.3447 69.745C42.3447 69.5892 42.3447 69.3553 42.3447 69.1995C42.8118 67.7967 43.2788 66.3939 43.7458 64.9911C43.9793 64.2117 44.602 63.9 45.2247 63.7441C45.6918 64.2896 46.1588 64.7572 46.7037 65.3807C46.7037 65.3807 46.7037 65.5366 46.6258 65.6925C46.1588 66.8615 45.6918 68.1084 45.3026 69.2774ZM49.8172 70.0568C49.5058 70.992 49.1945 71.9272 48.8053 72.7844C48.4939 73.4079 48.2604 74.1873 47.5599 74.5769C46.7037 74.0314 46.3923 73.4859 46.548 72.4727C46.8593 70.0568 47.4042 67.7187 48.2604 65.4587C48.4161 64.9911 48.7275 64.6793 49.2723 64.6793C49.6615 65.3807 50.1285 65.9263 51.0626 66.0821C50.6734 67.4849 50.2842 68.8098 49.8172 70.0568ZM53.7091 72.3168C53.3977 73.1741 52.9307 73.8755 52.308 74.499C51.5296 75.2004 51.2183 75.1225 50.8291 74.1873C50.4399 73.1741 50.5177 72.0831 50.7512 71.0699C51.0626 69.745 51.6075 68.4202 51.9188 67.0953C52.0745 66.3159 52.6193 66.0821 53.242 65.9263C53.3977 65.8483 53.6312 65.9263 53.8648 66.0821C54.4096 66.3939 54.8767 66.7835 55.4994 67.1732C54.8767 68.8878 54.2539 70.6023 53.7091 72.3168ZM56.1221 74.8107C55.4215 73.7976 55.1102 72.7065 55.3437 71.6154C55.7329 70.0568 56.1999 68.576 56.6669 67.0953C56.7448 66.9394 56.9004 66.7835 56.9783 66.6277C58.3015 67.9525 59.6248 67.5629 61.1815 66.8615C59.6248 69.6671 58.3015 72.3948 56.1221 74.8107ZM48.2604 88.605C48.2604 86.4229 48.961 84.4745 50.2842 82.8379C51.1404 81.7468 52.3858 81.3572 53.7091 81.2792C54.3318 81.2792 54.8766 81.4351 55.3437 81.8248C55.1102 82.1365 54.9545 82.4483 54.7988 82.76C54.0983 82.6041 53.3977 82.6821 52.775 82.8379C50.6734 83.5393 49.428 85.098 48.6496 87.1243C48.4161 87.7478 48.4161 88.4492 48.6496 89.0726C48.961 89.852 49.0388 90.7093 49.9729 91.1769C49.8172 91.4107 49.6615 91.6445 49.5058 91.8783C48.8831 91.2548 48.2604 89.852 48.2604 88.605ZM56.1999 85.4877C57.2118 86.1112 57.601 87.0464 57.4453 88.2154C57.2896 89.0727 56.9004 89.852 56.4334 90.5534C55.9664 91.2548 55.2658 91.8003 54.3318 91.8783C53.7091 92.0341 53.1642 91.7224 52.6193 91.4107C52.2302 91.1769 51.841 90.9431 51.4518 90.7872C50.7512 90.4755 50.6734 90.4755 50.7512 89.6961C50.7512 89.4623 50.7512 89.2285 50.8291 89.0726C51.1404 87.3581 51.7631 85.7215 53.3199 84.6304C53.9426 84.2407 54.4875 84.1628 55.0323 84.6304C55.4215 84.8642 55.7329 85.2539 56.1999 85.4877ZM50.7512 95.4632C51.5296 96.0867 52.308 96.6322 53.1642 97.2557C53.0864 97.4116 53.0085 97.4895 52.9307 97.5675C52.5415 98.113 52.5415 98.113 51.9188 97.8792C51.5296 97.7233 51.1404 97.4895 50.7512 97.3336C49.2723 96.5543 47.9491 95.697 46.7037 94.528C46.9372 94.1383 47.0929 93.7487 47.3264 93.2811C47.7934 93.5928 48.0269 93.8266 48.4161 93.9825C48.961 94.3722 49.5058 94.2163 49.895 93.6708C50.0507 93.437 50.2064 93.1252 50.362 92.8914C50.6734 92.4238 50.9847 91.9562 51.2961 91.4107C51.841 91.8003 52.308 92.0341 52.775 92.3459C52.0745 93.437 51.4518 94.3722 50.7512 95.4632ZM60.1696 87.9036C60.0918 88.5271 60.0139 89.2285 59.8583 89.852C59.4691 91.6445 58.535 93.0473 57.0561 94.1383C56.6669 94.4501 56.1999 94.528 55.655 94.6059C54.5653 94.6839 53.6312 94.2942 52.6193 93.9825C52.8529 93.5928 53.0085 93.2811 53.242 92.8135C54.0204 93.2811 54.7988 93.1252 55.5772 92.9693C56.6669 92.7355 57.601 92.19 58.068 91.0989C59.0021 89.0726 59.2356 86.9684 57.9902 84.9421C57.9123 84.8642 57.9123 84.7863 57.8345 84.6304C57.9902 84.3966 58.068 84.1628 58.3015 83.8511C59.3912 85.176 60.3253 86.267 60.1696 87.9036ZM56.6669 84.7084C56.1999 84.3966 55.8885 84.1628 55.4215 83.8511C56.4334 82.2145 57.3675 80.5778 58.3793 79.0192C58.4572 78.9412 58.6129 78.7854 58.6907 78.7854C59.1577 78.7854 59.7026 78.7074 60.0918 79.0971C58.9242 80.9675 57.8345 82.8379 56.6669 84.7084ZM60.8702 78.4736C60.5588 78.3178 60.2475 78.2398 59.9361 78.1619C61.7264 75.3563 63.0496 72.3168 65.0734 69.6671C65.1512 69.745 65.1513 69.745 65.2291 69.823C63.7502 72.7065 62.3491 75.5901 60.8702 78.4736ZM62.7383 80.422C62.2712 80.422 61.882 80.344 61.415 80.344C61.415 79.7206 61.5707 79.253 61.882 78.7074C62.5826 77.4605 63.2053 76.1356 63.828 74.8887C64.6064 73.4079 65.3069 71.9272 66.0853 70.3685C66.1631 70.2126 66.241 70.1347 66.3188 70.0568C66.3967 70.0568 66.3966 70.1347 66.4745 70.1347C65.3848 73.6417 63.9058 76.9929 62.7383 80.422ZM65.8518 95.3853C65.6183 96.4764 65.2291 97.5674 64.6842 98.5806C64.4507 99.0482 64.0615 99.0482 63.828 98.5806C63.7502 98.5027 63.7502 98.3468 63.6723 98.1909C63.4388 97.4116 63.4388 96.6322 63.5945 95.8529C63.828 94.4501 64.0615 93.0473 64.295 91.6445C64.6842 89.3064 65.0734 87.0464 65.5404 84.7084C65.8518 83.0717 66.3188 81.5131 66.6302 79.8764C67.0972 77.3826 67.6421 74.9666 68.4983 72.6286C68.5761 72.3948 68.6539 72.161 68.8096 71.7713C69.2766 72.0051 69.7437 72.2389 70.1329 72.3948C69.9772 73.6417 69.8994 74.7328 69.7437 75.8239C69.3545 78.2398 69.0431 80.7337 68.5761 83.1497C68.1091 85.8774 67.5642 88.605 67.0972 91.3327C67.0194 91.8003 66.8637 92.19 66.708 92.5797C66.3967 93.5149 66.0853 94.4501 65.8518 95.3853ZM71.1448 88.9947C70.7556 91.4886 70.2886 93.9046 69.8215 96.3984C69.588 97.8013 69.1988 99.0482 68.654 100.373C68.4983 100.685 68.3426 101.074 67.8756 100.997C67.3307 100.919 66.9415 100.685 66.7859 100.217C66.7859 100.139 66.708 99.9834 66.708 99.9055C66.708 99.282 66.708 98.5806 66.7859 97.9571C67.0972 96.3205 67.4864 94.7618 67.8756 93.1252C68.4983 90.0858 69.121 87.0464 69.5102 83.929C69.9772 80.4999 70.5221 77.1488 71.0669 73.7197C71.0669 73.4859 71.2226 73.2521 71.3004 72.9403C71.8453 73.0962 72.3123 73.252 72.8572 73.4858C72.7794 74.6549 72.7794 75.668 72.6237 76.7591C72.3902 78.8633 72.2345 81.0455 71.9231 83.1497C71.7675 85.0201 71.4561 87.0464 71.1448 88.9947ZM75.7372 77.3046C75.815 81.2013 75.5815 85.0201 75.1145 88.8388C74.8031 91.6445 74.5696 94.4501 74.414 97.2557C74.3361 98.5806 74.0248 99.7496 73.4799 100.919C73.2464 101.386 73.0129 101.698 72.468 101.62C71.9231 101.62 71.6118 101.308 71.4561 100.841C71.3005 100.451 71.2226 100.061 71.2226 99.5937C71.3004 98.1909 71.4561 96.7102 71.6118 95.3074C72.001 92.0341 72.5459 88.8388 72.935 85.5656C73.4021 82.0586 73.7134 78.4736 74.1026 74.9666C74.1805 74.5769 74.2583 74.1093 74.3361 73.6417C74.881 73.7976 75.348 73.9535 75.815 74.1093C75.815 74.3431 75.8929 74.499 75.8929 74.6549C75.7372 75.5121 75.6594 76.3694 75.7372 77.3046ZM74.414 71.2258C72.3902 71.0699 70.4442 69.6671 68.8096 68.576C68.3426 68.2643 67.9534 67.9525 67.5642 67.6408C66.7859 66.7835 66.0853 65.7704 65.3069 64.9131C63.828 63.3544 63.1275 61.4061 62.8161 59.3798C62.4269 55.9507 62.3491 52.5996 62.7383 49.0925C62.8161 48.1573 63.361 47.4559 64.295 46.9883C65.2291 46.5207 66.0853 46.3648 67.0972 46.6766C69.5102 47.378 72.7015 48.2353 74.6475 49.716C76.2042 50.885 76.1264 52.6775 76.2821 54.392C76.3599 55.4052 76.3599 56.4963 76.3599 57.5094C76.4377 58.9901 76.4378 60.393 76.4378 61.8737C76.4378 62.4972 76.4377 63.1206 76.3599 63.7441C76.4377 65.2249 77.0605 68.576 76.1264 70.2126C75.9707 70.914 75.348 71.3037 74.414 71.2258ZM79.0064 97.5675C79.0064 98.9703 78.6951 100.373 78.0723 101.62C77.9945 101.854 77.8388 102.01 77.6832 102.166C77.5275 102.01 77.3718 101.854 77.294 101.62C76.6713 100.295 76.3599 98.9703 76.3599 97.5675C76.3599 96.3984 76.5156 95.2294 76.5934 94.1383C76.6712 92.5797 76.8269 91.021 76.9048 89.4623C76.9826 87.5919 76.9826 85.7215 76.9826 83.8511C76.9826 82.3703 76.9048 80.8896 76.9048 79.4088C76.9048 77.9281 76.9048 76.4473 76.8269 75.0445C76.8269 74.8887 76.9048 74.6549 76.9048 74.4211C77.1383 74.4211 77.3718 74.4211 77.6832 74.3431C77.9167 74.3431 78.228 74.3431 78.4615 74.4211C78.4615 74.6549 78.5394 74.8107 78.5394 75.0445C78.5394 76.5253 78.5394 78.006 78.4615 79.4088C78.4615 80.8896 78.3837 82.3703 78.3837 83.8511C78.3837 85.7215 78.3837 87.5919 78.4615 89.4623C78.5394 91.021 78.6951 92.5797 78.7729 94.1383C78.9286 95.3074 79.0842 96.4764 79.0064 97.5675ZM79.0842 70.2126C78.228 68.4981 78.8507 65.1469 78.8507 63.7441C78.8507 63.1206 78.7729 62.4972 78.8507 61.8737C78.8507 60.393 78.9286 58.9901 78.9286 57.5094C78.9286 56.4963 78.9286 55.4052 79.0064 54.392C79.0842 52.6775 79.0842 50.8071 80.641 49.716C82.6648 48.2353 85.8561 47.3001 88.1913 46.6766C89.2032 46.3648 90.0594 46.5207 90.9934 46.9883C91.8496 47.4559 92.3945 48.1573 92.5502 49.0925C92.9394 52.5216 92.8616 55.9507 92.4724 59.3798C92.2389 61.484 91.4605 63.3544 89.9815 64.9131C89.2032 65.7704 88.5026 66.7056 87.7243 67.6408C87.4129 68.0305 86.9459 68.3422 86.4788 68.576C84.8442 69.6671 82.8983 70.992 80.8745 71.2258C80.0183 71.3037 79.3956 70.914 79.0842 70.2126ZM83.988 100.763C83.8323 101.23 83.4432 101.542 82.9761 101.542C82.4313 101.542 82.1978 101.23 81.9642 100.841C81.4194 99.6717 81.108 98.5027 81.0302 97.1778C80.8745 94.3722 80.641 91.5665 80.3296 88.7609C79.8626 84.9421 79.6291 81.0455 79.7069 77.2267C79.7069 76.2915 79.6291 75.4342 79.6291 74.499C79.6291 74.3431 79.6291 74.1873 79.7069 73.9535C80.174 73.7976 80.641 73.6417 81.1859 73.4858C81.2637 74.0314 81.4194 74.4211 81.4194 74.8107C81.8086 78.3178 82.1978 81.9027 82.5869 85.4098C82.9761 88.683 83.521 91.8783 83.9102 95.1515C84.0659 96.5543 84.2215 98.0351 84.2994 99.4379C84.2215 99.9834 84.1437 100.373 83.988 100.763ZM88.5026 100.217C88.347 100.685 87.9578 100.919 87.4129 100.997C86.9459 100.997 86.7902 100.685 86.6345 100.373C86.0897 99.1261 85.7005 97.8013 85.4669 96.3984C85.0778 93.9046 84.5329 91.4886 84.1437 88.9947C83.8323 87.0464 83.521 85.098 83.2875 83.1497C83.054 81.0455 82.8205 78.8633 82.5869 76.7591C82.5091 75.668 82.4313 74.6549 82.3534 73.4858C82.8983 73.33 83.3653 73.1741 83.9102 72.9403C83.988 73.1741 84.0659 73.4079 84.1437 73.7197C84.6886 77.1488 85.2334 80.4999 85.7005 83.929C86.0896 87.0464 86.7124 90.0858 87.3351 93.1252C87.6464 94.7618 88.1134 96.3205 88.4248 97.9571C88.5805 98.5806 88.5026 99.282 88.5026 99.9055C88.5805 99.9834 88.5805 100.061 88.5026 100.217ZM91.1491 91.4886C91.3826 92.8914 91.6161 94.2942 91.8496 95.697C92.0053 96.4764 92.0053 97.2557 91.7718 98.035C91.694 98.1909 91.694 98.3468 91.6161 98.4247C91.3826 98.8923 90.9934 98.8923 90.7599 98.4247C90.2151 97.4116 89.8259 96.3984 89.5924 95.2294C89.3588 94.2942 89.0475 93.359 88.814 92.4238C88.6583 92.0341 88.5026 91.5665 88.4248 91.1769C87.8799 88.4492 87.4129 85.7215 86.9459 82.9938C86.5567 80.5779 86.1675 78.084 85.7783 75.668C85.6226 74.5769 85.5448 73.4079 85.3891 72.2389C85.7783 72.0051 86.2453 71.8492 86.7123 71.6154C86.7902 71.9272 86.9459 72.161 87.0237 72.4727C87.8799 74.8107 88.4248 77.3046 88.8918 79.7206C89.2032 81.3572 89.6702 82.9159 89.9815 84.5525C90.3707 86.8905 90.7599 89.2285 91.1491 91.4886ZM93.9513 80.344C93.5621 80.344 93.0951 80.422 92.628 80.422C91.4605 76.915 90.0594 73.6417 88.8918 70.2126C88.9697 70.2126 88.9696 70.1347 89.0475 70.1347C89.1253 70.2126 89.281 70.2906 89.281 70.4464C90.0594 71.9272 90.8378 73.4079 91.5383 74.9666C92.161 76.2136 92.7837 77.5384 93.4842 78.7854C93.7956 79.253 93.9513 79.7985 93.9513 80.344ZM94.4961 78.4736C93.0172 75.5122 91.5383 72.6286 90.0594 69.745C90.1372 69.6671 90.1372 69.6671 90.215 69.5891C92.2388 72.161 93.5621 75.2004 95.3524 78.084C95.1188 78.2398 94.8853 78.3178 94.4961 78.4736ZM99.6334 94.6059C99.0886 94.528 98.6216 94.4501 98.2324 94.1383C96.7534 93.0473 95.8194 91.5665 95.4302 89.852C95.2745 89.2285 95.1967 88.5271 95.1189 87.9036C94.9632 86.267 95.8972 85.1759 96.987 84.0069C97.1426 84.3187 97.2983 84.5525 97.3761 84.7863C97.2983 84.8642 97.2983 85.0201 97.2205 85.098C95.9751 87.1243 96.2086 89.2285 97.1426 91.2548C97.6097 92.2679 98.5437 92.8914 99.6334 93.1252C100.412 93.2811 101.19 93.4369 101.969 92.9693C102.202 93.359 102.358 93.7487 102.591 94.1383C101.657 94.3721 100.723 94.7618 99.6334 94.6059ZM99.1664 85.4877C99.5556 85.2539 99.9448 84.8642 100.334 84.5525C100.879 84.0849 101.424 84.0849 102.046 84.5525C103.603 85.6436 104.226 87.2022 104.537 88.9947C104.537 89.2285 104.615 89.4623 104.615 89.6182C104.615 90.3196 104.615 90.3975 103.915 90.7093C103.525 90.8651 103.136 91.1769 102.747 91.3327C102.202 91.6445 101.657 91.9562 101.035 91.8003C100.1 91.7224 99.3999 91.1769 98.9329 90.4755C98.4659 89.7741 98.0767 88.9947 97.921 88.1374C97.7653 87.0464 98.1545 86.1112 99.1664 85.4877ZM107.028 93.9825C107.339 93.7487 107.651 93.5149 108.118 93.2811C108.351 93.7487 108.507 94.1383 108.74 94.528C107.495 95.6191 106.094 96.4764 104.693 97.3336C104.304 97.5674 103.915 97.7233 103.525 97.8792C102.903 98.1909 102.903 98.1909 102.513 97.5675C102.436 97.4895 102.358 97.4116 102.28 97.2557C103.058 96.6322 103.837 96.0867 104.693 95.4632C103.992 94.4501 103.37 93.437 102.747 92.4238C103.214 92.1121 103.681 91.8003 104.226 91.4886C104.537 91.9562 104.849 92.4238 105.16 92.9693C105.316 93.2031 105.471 93.5149 105.627 93.7487C105.86 94.2163 106.405 94.3722 107.028 93.9825ZM101.579 81.2792C102.903 81.2792 104.148 81.7468 105.004 82.8379C106.405 84.4745 107.106 86.4229 107.028 88.605C107.028 89.7741 106.483 91.1769 105.705 91.9562C105.549 91.7224 105.393 91.4886 105.238 91.2548C106.172 90.8651 106.25 89.9299 106.561 89.1506C106.795 88.5271 106.795 87.9036 106.561 87.2022C105.783 85.1759 104.615 83.6173 102.436 82.9159C101.813 82.6821 101.19 82.6821 100.412 82.8379C100.256 82.6041 100.1 82.2924 99.867 81.9027C100.412 81.4351 101.035 81.2792 101.579 81.2792ZM99.9448 83.8511C99.4778 84.1628 99.1664 84.3966 98.6994 84.7084C97.5318 82.8379 96.4421 80.9675 95.3524 79.0971C95.7415 78.7074 96.2086 78.7854 96.7534 78.7854C96.8313 78.7854 96.987 78.8633 97.0648 79.0192C97.9989 80.6558 98.9329 82.2145 99.9448 83.8511ZM99.2442 74.8107C97.1426 72.3948 95.7415 69.6671 94.1848 66.7835C95.7415 67.485 97.0648 67.8746 98.388 66.5497C98.5437 66.7056 98.6994 66.8615 98.6994 67.0173C99.1664 68.4981 99.6334 69.9788 100.023 71.5375C100.256 72.7065 99.9448 73.7976 99.2442 74.8107ZM104.615 74.1873C104.226 75.1225 103.915 75.2004 103.136 74.499C102.513 73.8755 101.969 73.1741 101.735 72.3168C101.19 70.6023 100.567 68.8877 100.023 67.2511C100.645 66.8615 101.112 66.4718 101.657 66.1601C101.813 66.0821 102.046 66.0042 102.28 66.0042C102.903 66.1601 103.448 66.3939 103.603 67.1732C103.915 68.4981 104.459 69.823 104.771 71.1478C104.926 72.083 105.004 73.1741 104.615 74.1873ZM107.729 74.5769C107.106 74.1093 106.795 73.4079 106.483 72.7844C106.094 71.9272 105.783 70.992 105.471 70.0568C105.082 68.8098 104.615 67.4849 104.226 66.1601C105.16 66.0042 105.627 65.4587 106.016 64.7573C106.561 64.7573 106.872 65.069 107.028 65.5366C107.884 67.7967 108.429 70.1347 108.74 72.5507C108.896 73.4859 108.585 74.0314 107.729 74.5769ZM112.944 73.0962C112.555 73.4858 112.321 73.5638 111.854 73.2521C111.387 72.9403 111.076 72.5506 110.842 71.9272C110.609 70.992 110.297 70.1347 109.986 69.2774C109.597 68.0305 109.13 66.8615 108.74 65.6145C108.663 65.4587 108.663 65.3028 108.663 65.3028C109.208 64.7572 109.675 64.2117 110.142 63.6662C110.764 63.8221 111.387 64.0558 111.62 64.9131C112.01 66.3159 112.555 67.7188 113.022 69.1216C113.099 69.2774 113.022 69.5112 113.022 69.6671C113.099 69.9788 113.177 70.2126 113.255 70.5244C113.489 71.4596 113.566 72.3168 112.944 73.0962ZM117.381 71.7713C117.069 72.0051 116.758 72.0831 116.446 71.7713C115.668 71.3037 115.201 70.6023 114.89 69.823C114.111 67.9526 113.333 66.0821 112.555 64.1338C112.944 63.7441 113.333 63.3544 113.722 62.9648C114.189 63.0427 114.656 63.1986 115.279 63.3544C115.902 64.7572 116.68 66.238 117.303 67.7967C117.692 68.7319 117.692 69.823 117.848 70.8361C117.848 71.2258 117.77 71.5375 117.381 71.7713ZM122.051 69.1995C121.973 70.1347 121.506 70.3685 120.728 69.823C120.572 69.6671 120.338 69.5892 120.183 69.4333C119.482 68.576 118.626 67.7967 118.159 66.7835C117.614 65.6145 116.913 64.4455 116.291 63.2765C116.213 63.1207 116.213 63.0427 116.135 62.9648C116.602 62.3413 116.991 61.8737 117.381 61.3282C117.77 61.484 118.159 61.6399 118.548 61.7958C118.704 61.8737 118.859 62.0296 119.015 62.1854C120.183 63.7441 121.195 65.4587 121.817 67.3291C122.051 67.8746 122.051 68.576 122.051 69.1995ZM126.565 68.7319C125.631 68.4202 124.619 68.0305 123.997 67.1732C123.063 66.0042 122.206 64.8352 121.272 63.5883C120.805 62.9648 120.416 62.3413 119.949 61.7958C120.338 61.0164 120.728 60.315 121.195 59.5357C121.895 59.4577 122.362 59.7695 122.829 60.393C124.23 62.3413 125.398 64.4455 126.41 66.6277C126.721 67.2511 126.955 67.9526 126.955 68.7319C126.877 68.7319 126.721 68.7319 126.565 68.7319ZM129.523 65.6145C127.11 63.9 125.164 61.7958 123.53 59.3798C124.23 58.9902 124.619 58.3667 124.697 57.5873C125.242 57.6653 125.709 57.8211 126.098 58.2108C127.733 59.9254 129.679 61.4061 131.08 63.3544C131.547 63.9779 131.936 64.6793 132.403 65.3028C131.469 66.0821 130.379 66.238 129.523 65.6145ZM136.606 62.731C136.451 63.2765 136.062 63.5103 135.517 63.4324C134.427 63.2765 133.415 62.9648 132.481 62.2634C130.846 61.0164 129.29 59.7695 127.811 58.2887C127.733 58.2108 127.655 58.1329 127.655 58.0549C128.278 57.7432 128.823 57.3535 129.368 57.0418C131.625 57.977 135.205 60.8606 136.606 62.731ZM139.331 59.3798C138.397 59.6136 137.618 59.5357 136.762 59.146C135.361 58.5225 133.882 58.0549 132.481 57.4315C131.781 57.1197 131.08 56.6521 130.379 56.2625C130.613 55.8728 130.846 55.561 130.924 55.1714C131.002 54.8596 130.846 54.47 130.769 54.0024C131.08 54.0803 131.469 54.0803 131.703 54.2362C133.337 55.0935 135.05 55.9507 136.684 56.808C137.385 57.1197 138.008 57.5094 138.708 57.8991C139.253 58.2108 139.486 58.6784 139.331 59.3798ZM142.833 57.2756C142.756 57.5873 142.133 57.8991 141.588 57.7432C140.732 57.5094 139.953 57.3535 139.175 56.9639C137.307 56.1066 135.517 55.1714 133.726 54.2362C133.415 54.0803 133.026 53.9244 132.637 53.6906C133.337 53.301 133.96 52.9113 134.583 52.5996C134.738 52.5216 135.05 52.4437 135.205 52.5216C137.696 53.5348 140.109 54.5479 142.289 56.1845C142.756 56.4183 142.989 56.8859 142.833 57.2756ZM142.911 53.5348C140.576 53.1451 138.319 52.5216 136.139 51.7423C136.062 51.7423 135.984 51.6644 135.906 51.5864C135.984 50.885 136.062 50.2615 136.062 49.4822C136.606 49.5601 137.307 49.716 137.93 49.8719C139.953 50.3395 141.899 50.885 143.923 51.3526C144.624 51.5085 145.324 51.7423 145.869 52.4437C146.025 52.6775 146.103 52.9113 146.336 53.301C145.091 53.223 144.079 53.6906 142.911 53.5348ZM147.115 47.378C147.815 47.5338 148.438 47.8456 148.749 48.4691C148.983 48.9367 148.905 49.0925 148.516 49.3263C147.971 49.6381 147.504 49.716 146.881 49.6381C145.714 49.4822 144.468 49.4822 143.301 49.3263C141.51 49.0925 139.798 48.7808 138.008 48.4691C137.774 48.3911 137.54 48.3132 137.307 48.3132C137.307 48.2353 137.307 48.2353 137.307 48.1573C138.008 47.8456 138.708 47.6118 139.409 47.3001C139.876 47.0663 140.421 46.7545 140.81 46.3648C141.121 46.131 141.355 45.9752 141.666 46.0531C142.366 46.209 142.989 46.2869 143.69 46.4428C144.857 46.7545 145.947 47.0662 147.115 47.378ZM151.941 41.6109C152.797 42.2343 152.875 42.8578 152.096 43.5592C151.785 43.871 151.318 44.1048 151.006 44.4165C150.695 44.7282 150.228 44.4165 149.995 44.4944C149.683 44.6503 149.372 44.8841 148.983 44.8841C148.126 44.8841 147.192 44.8841 146.336 44.8841C145.013 44.8062 143.612 44.7282 142.289 44.6503C142.133 44.6503 141.899 44.5724 141.822 44.5724C141.51 43.871 141.277 43.3254 141.043 42.624C142.055 42.3902 142.989 42.1564 144.001 42.0005C145.869 41.6888 147.815 41.455 149.683 41.2212C150.539 41.0653 151.318 41.0653 151.941 41.6109ZM152.485 37.4804C151.707 38.1818 150.773 38.6494 149.761 39.0391C147.582 39.8963 145.402 40.5977 143.145 41.2212C142.911 41.2991 142.756 41.2991 142.6 41.2991C142.833 40.5977 143.067 39.8963 143.301 39.2729C143.378 39.117 143.456 38.9611 143.612 38.8832C144.624 38.1818 145.636 37.7142 146.725 37.2466C147.737 36.8569 148.671 36.4672 149.605 35.9217C150.617 35.2982 151.707 35.2203 152.875 35.4541C153.108 35.532 153.419 35.532 153.731 35.61C153.497 36.4672 153.03 37.0128 152.485 37.4804Z" fill="black"/>
</svg>
