<svg width="88" height="174" viewBox="0 0 88 174" fill="none" xmlns="http://www.w3.org/2000/svg">
<path d="M87.8661 79.4251C87.7576 77.8945 87.8661 75.2707 86.3472 74.3961C85.6962 74.0681 80.597 75.052 80.597 75.9267C80.38 74.6147 80.0545 72.1003 78.1016 72.7562C76.7997 73.1935 75.6062 73.7401 74.3043 74.0681C69.0965 75.708 63.7802 76.8013 58.3555 77.5665C58.1385 77.5665 57.813 77.5665 57.596 77.5665C57.3791 76.6919 57.2706 75.8173 57.0536 74.9427C58.247 74.1774 59.3319 73.4122 60.5254 72.6469C64.2142 70.2417 67.5776 67.6179 70.5069 64.2288C84.3943 48.3766 87.6491 25.1996 70.5069 10.3313C54.6667 -3.44376 33.4017 -3.44376 17.5614 10.3313C0.419213 25.1996 3.67406 48.3766 17.5614 64.2288C20.4908 67.5086 23.8541 70.2417 27.5429 72.6469C28.7364 73.4122 29.8213 74.1774 31.0148 74.9427C30.7978 75.8173 30.6893 76.5826 30.4723 77.5665C30.2553 77.5665 29.9298 77.6759 29.7128 77.5665C24.2881 76.8013 18.9718 75.708 13.7641 74.0681C12.4622 73.6308 11.2687 73.1935 9.96677 72.7562C8.01386 72.1003 7.68836 74.6147 7.47137 75.9267C7.57986 75.052 2.37212 74.0681 1.72115 74.3961C0.0937225 75.2707 0.310719 77.8945 0.202224 79.4251C-0.0147658 82.3769 -0.340271 88.8271 0.961669 91.5602C2.3721 94.4027 2.48061 92.8721 5.51847 92.5442C6.71191 92.4348 7.25437 91.9975 8.44781 92.3255C10.0752 92.8721 9.09879 95.6053 11.8112 94.7307C17.4529 93.0908 23.7456 91.5602 29.7128 90.139C31.1233 89.811 32.3167 90.139 33.5102 90.7949C33.8356 91.0136 34.0526 91.2322 34.3781 91.3416C34.9206 91.6695 35.0291 92.1068 35.0291 92.6535C35.0291 94.9493 35.1376 97.2452 35.1376 99.541C35.0291 113.097 34.9206 126.654 35.2461 140.319C35.4631 148.191 34.5951 155.953 34.3781 163.824C34.2696 165.792 33.5102 172.461 34.9206 173.664C35.7886 174.429 41.6473 173.664 43.9257 173.554C46.2041 173.664 52.0628 174.429 52.9307 173.664C54.4497 172.461 53.5817 165.792 53.4732 163.824C53.2562 155.953 52.3883 148.191 52.6053 140.319C52.9308 126.763 52.8223 113.097 52.7138 99.541C52.7138 97.2452 52.8223 94.9493 52.8223 92.6535C52.8223 92.1068 52.9307 91.5602 53.4732 91.3416C53.7987 91.2322 54.0157 91.0136 54.3412 90.7949C55.5346 90.139 56.7281 89.7017 58.1385 90.139C64.1057 91.5602 70.3985 93.0908 76.0402 94.7307C78.7526 95.496 77.7761 92.8721 79.4035 92.3255C80.597 91.8882 81.1394 92.4348 82.2244 92.5442C85.2622 92.8721 85.3708 94.4027 86.7812 91.5602C88.4086 88.8271 87.9746 82.3769 87.8661 79.4251ZM3.56554 76.2546C4.75899 78.0038 6.27792 79.0971 7.90534 80.081C8.01383 80.1904 8.12235 80.409 8.23084 80.737C6.60342 80.1904 5.19298 79.6437 3.78254 79.0971C3.56555 78.2225 3.24006 77.4572 3.56554 76.2546ZM4.21652 80.9556C5.51846 81.3929 6.8204 81.9396 8.12234 82.3769C8.66482 82.5955 8.66481 83.0328 8.55632 83.5794C7.03739 83.4701 5.51847 83.3608 3.89105 83.2515C3.89105 82.4862 3.78254 81.7209 3.78254 80.8463C3.89104 80.9556 4.10802 80.9556 4.21652 80.9556ZM8.66482 85.3287C8.66482 85.766 8.66482 85.9846 8.66482 86.3126C7.03739 86.6406 5.51848 86.8592 3.99955 87.1872C3.78256 85.766 3.78254 85.6566 4.21652 84.8914C5.62695 84.8914 7.14589 85.11 8.66482 85.3287ZM3.67404 91.3416C3.67404 90.467 3.67404 89.811 3.67404 89.1551C3.67404 88.8271 3.78253 88.4991 4.10802 88.3898C5.62695 88.1711 7.14589 87.8432 8.77332 87.6245C8.77332 88.2805 8.88182 88.8271 8.88182 89.2644C7.03741 90.139 5.40996 90.6856 3.67404 91.3416ZM10.9432 78.9878C10.8347 78.2225 10.7262 77.5666 10.6177 76.6919C16.151 78.0039 21.4672 79.3158 26.7835 80.5183C21.4672 80.6277 16.2595 79.7531 10.9432 78.9878ZM11.0517 79.8624C12.1367 80.081 13.1131 80.1904 14.0896 80.409C17.6699 81.065 21.2502 81.5023 24.9391 81.6116C26.241 81.6116 27.6514 81.8302 28.9534 81.9396C29.4959 81.9396 29.8213 82.1582 29.4959 83.0328C23.4201 82.8142 17.4529 82.5955 11.3772 82.3769C11.3772 81.5023 11.2687 80.737 11.0517 79.8624ZM11.8112 91.0136C11.8112 89.3737 11.9197 88.0618 11.9197 86.7499C16.151 86.5312 20.2738 86.3126 24.3966 86.3126C20.2738 87.9525 16.0425 88.9364 11.8112 91.0136ZM29.8213 84.8914C23.7456 85.11 17.8869 85.3287 11.9197 85.5473C11.9197 84.782 11.8112 84.1261 11.8112 83.3608C17.8869 83.5795 23.8541 83.7981 29.8213 84.0168C29.8213 84.3447 29.8213 84.6727 29.8213 84.8914ZM28.1939 69.5858C13.2216 58.3252 -0.557248 37.0067 12.5706 19.1867C15.934 14.595 20.4908 10.5499 25.1561 7.27015C27.6514 5.52094 30.3638 4.53701 33.1847 3.55308C34.7036 3.00645 36.331 2.56915 37.9585 2.24117C45.9871 0.273313 56.1856 2.56915 62.9123 7.37948C77.9931 17.9841 86.0217 35.5855 75.7147 52.6403C71.4834 59.5278 66.2757 64.7755 59.8744 69.5858C57.5961 71.335 54.6667 72.4282 52.6053 74.0681C53.0392 73.7401 53.2562 73.6308 53.4732 73.4122C55.5346 71.8816 58.03 70.7884 59.8744 68.9298C60.7424 68.0552 61.6104 67.1806 62.4783 66.306C65.2992 63.7915 67.9031 61.0584 70.2899 58.1066C71.9174 56.1387 73.2193 54.0615 74.0873 51.6564C79.1865 38.5373 78.7526 26.1835 69.639 14.9229C66.6011 11.2059 63.0208 8.36341 58.5725 6.50488C56.6196 5.7396 54.7752 4.86499 52.8223 4.20904C45.7701 1.58522 39.4774 2.3505 32.7507 5.08364C31.6658 5.52094 30.4723 6.06757 29.3874 6.50488C24.9391 8.36341 21.3587 11.2059 18.3209 14.9229C7.90534 27.8234 8.44783 46.1901 18.5379 59.0905C23.0947 64.9941 28.7364 69.0391 34.5951 73.3028C34.8121 73.4122 35.0291 73.6308 35.4631 73.9588C34.2696 73.8495 33.5102 73.1935 32.7507 72.7562C31.2318 71.7723 29.7128 70.679 28.1939 69.5858ZM24.5051 62.5889C23.0947 61.4957 21.7927 60.5117 20.8163 59.0905C22.4437 58.6532 23.8541 58.3252 25.373 57.8879C25.59 58.1066 25.6985 58.3252 25.6985 58.4346C25.807 58.5439 25.807 58.7625 25.9155 58.9812C24.6136 58.8719 24.1796 59.0905 23.7456 59.9651C23.4201 61.0584 24.2881 61.605 24.5051 62.5889ZM38.067 7.37948C38.067 8.69138 39.8029 9.56599 40.7793 9.01936C42.4068 8.03543 42.5152 6.06757 40.7793 4.97432C40.7793 4.97432 40.7793 4.86499 40.6708 4.75567C41.2133 4.64634 41.7558 4.53701 42.4068 4.53701C42.8407 6.28622 43.2747 7.92611 43.7087 9.45667C41.5388 9.67532 39.4774 10.0033 37.416 10.222C36.765 8.91004 36.114 7.59813 35.6801 5.95825C36.8735 5.63027 38.067 5.30229 39.1519 5.08364C39.1519 5.19297 39.2604 5.19297 39.2604 5.3023C38.067 5.52095 38.067 6.50487 38.067 7.37948ZM40.0199 5.95825C40.5623 5.95825 41.1048 6.28622 41.1048 6.72352C41.1048 7.27015 40.4538 8.03544 39.9114 8.03544C39.3689 8.03544 38.9349 7.59813 38.9349 7.16083C38.9349 6.6142 39.4774 6.06757 40.0199 5.95825ZM47.289 4.97432C45.6616 5.95825 45.6616 7.92611 47.289 9.01936C48.2655 9.67532 50.0014 8.69138 50.0014 7.37948C50.0014 6.50487 50.0014 5.52094 48.8079 5.19296C48.8079 5.08364 48.9165 5.08364 48.9165 4.97432C50.0014 5.30229 51.1948 5.52095 52.3883 5.84892C51.9543 7.48881 51.4118 8.80071 50.6524 10.1126C48.4825 9.89397 46.4211 9.56599 44.3596 9.34734C44.7936 7.70746 45.2276 6.1769 45.6616 4.42769C46.2041 4.53701 46.7466 4.64634 47.289 4.64634C47.3975 4.86499 47.3975 4.97432 47.289 4.97432ZM48.0485 5.95825C48.5909 5.95825 49.1334 6.6142 49.1334 7.16083C49.1334 7.59813 48.591 8.03544 48.157 8.03544C47.6145 8.03544 46.855 7.27015 46.9635 6.72352C47.072 6.28622 47.506 5.95825 48.0485 5.95825ZM64.3227 60.0744C63.9972 59.1998 63.4548 58.9812 62.1528 59.0905C62.2613 58.8719 62.2613 58.7625 62.3698 58.5439C62.4783 58.4346 62.5868 58.2159 62.8038 57.9973C64.2142 58.3252 65.7332 58.7625 67.3606 59.1998C66.2756 60.6211 65.0822 61.605 63.6718 62.6983C63.7803 61.605 64.7567 61.0584 64.3227 60.0744ZM57.0536 66.4153C57.596 65.65 58.247 64.7754 58.7895 64.0102C59.6575 64.1195 60.4169 64.2288 61.5019 64.4475C60.5254 65.3221 59.7659 66.0874 59.0065 66.7433C58.5725 67.0713 58.1385 66.962 57.0536 66.4153ZM57.2705 68.3832C55.6431 70.2417 53.4732 71.4443 51.7373 73.0842C51.6288 72.9749 51.6288 72.9749 51.5203 72.8655C53.0392 71.1163 54.4497 69.4764 55.9686 67.7272C56.4026 67.9459 56.8366 68.1645 57.2705 68.3832ZM59.6574 62.6983C59.9829 62.261 60.3084 61.8237 60.5254 61.4957C60.9594 61.933 61.2849 62.3703 61.8273 62.5889C62.2613 62.8076 62.8038 62.8076 63.3463 62.9169C63.0208 63.2449 62.6953 63.4635 62.2613 63.7915C61.3934 63.4635 60.5254 63.0262 59.6574 62.6983ZM62.0443 61.4957C61.8274 61.3863 61.6103 61.277 61.6103 61.0584C61.6103 60.9491 61.7188 60.6211 61.8273 60.6211C62.2613 60.2931 62.8038 60.0744 63.4548 60.4024C63.1293 61.3863 62.8038 61.7143 62.0443 61.4957ZM63.3463 56.7947C63.9972 55.8107 64.5397 55.0455 65.0822 54.1709C65.5162 53.2963 65.8417 52.4216 66.2756 51.4377C68.2286 51.875 70.073 52.3123 72.1344 52.7496C71.0494 55.0455 69.639 56.904 68.0116 58.7625C66.4926 57.9973 64.9737 57.4506 63.3463 56.7947ZM67.0351 49.9072C67.7945 47.7206 68.554 45.6435 69.3135 43.5663C71.2664 43.129 73.1108 43.8942 75.1722 44.3316C74.5212 46.846 73.9788 49.2512 72.6768 51.4377C70.8324 51.0004 68.988 50.4538 67.0351 49.9072ZM69.639 42.473C69.9645 40.5052 70.29 38.6466 70.6154 36.5694C72.3514 35.8041 74.3043 36.0228 76.3657 35.3668C76.1487 38.1 75.9317 40.6145 75.3892 43.129C73.5448 42.801 71.7004 42.6917 69.639 42.473ZM76.2572 34.0549C74.4128 34.4922 72.5684 34.8202 70.7239 35.2575C70.29 33.2897 69.9645 31.3218 69.639 29.3539C71.3749 28.37 73.0023 27.4954 74.7382 26.4021C75.6062 28.8073 76.2572 31.3218 76.2572 34.0549ZM68.8795 27.9327C68.2285 26.5115 67.5776 25.1996 66.9266 23.8877C68.3371 22.6851 69.7475 21.3732 71.2664 20.1706C72.4599 21.8105 73.3278 23.5597 74.0873 25.1996C72.3513 26.0742 70.6154 26.9488 68.8795 27.9327ZM66.2756 22.7944C65.4077 21.4825 64.5397 20.1706 63.5633 18.8587C64.1057 18.312 64.5397 17.7654 65.0822 17.2188C65.7332 16.4535 66.3841 15.6882 67.2521 14.7043C68.4455 16.2349 69.5305 17.6561 70.7239 19.1867C69.205 20.3892 67.7946 21.5918 66.2756 22.7944ZM62.9123 17.8747C61.5019 16.4535 59.9829 15.0323 58.464 13.5017C58.681 11.8618 59.7659 10.6593 60.8509 9.34734C61.8273 10.0033 63.1293 10.3313 63.7802 11.4245C64.6482 12.1898 65.6247 12.8458 66.6011 13.7204C65.2992 15.1416 64.1057 16.4535 62.9123 17.8747ZM56.8366 12.6271C55.2091 11.9712 53.6902 11.3152 52.0628 10.5499C52.7138 9.12869 53.2563 7.81678 53.9072 6.28622C55.8601 6.94217 57.9215 7.37948 59.7659 8.69139C58.681 10.0033 57.813 11.3152 56.8366 12.6271ZM52.3883 13.7204C55.2091 14.4856 57.813 15.6882 59.8744 17.8747C62.3698 20.4986 64.5397 23.2317 66.0586 26.5115C67.6861 30.2285 69.205 33.9456 68.8795 38.2093C68.6625 40.3958 68.337 42.6917 67.6861 44.7688C66.0586 50.0165 63.3463 54.6082 60.3084 59.1998C57.9215 62.6983 55.3176 66.0874 52.7138 69.4764C52.1713 70.1324 51.5203 70.679 50.8693 71.2257C49.8929 71.9909 48.808 72.5376 47.94 73.1935C47.072 73.8495 46.2041 74.1775 45.1191 73.9588C45.2276 73.8495 45.2276 73.6308 45.3361 73.5215C46.638 72.1003 47.8315 70.679 49.1334 69.3671C51.5203 66.7433 53.9072 64.2288 56.0771 61.4957C57.7045 59.5278 59.2235 57.56 60.4169 55.3734C61.9358 52.859 63.1293 50.1258 64.4312 47.3927C65.9501 44.0036 66.7096 40.3958 66.4926 36.6788C66.3841 34.3829 65.8417 32.1964 65.0822 30.0099C64.1057 27.7141 62.8038 25.6369 61.2849 23.669C59.4405 21.2638 57.1621 19.5146 54.3412 18.4214C52.4968 17.6561 50.6524 16.7815 48.6994 16.0162C47.1805 15.4696 45.6616 15.0323 44.1427 15.0323C42.5153 15.0323 40.9963 15.4696 39.4774 16.0162C37.633 16.7815 35.6801 17.5468 33.8357 18.4214C31.1233 19.624 28.8449 21.3732 26.892 23.669C25.373 25.6369 23.9626 27.7141 23.0946 30.0099C22.2267 32.0871 21.7927 34.3829 21.6842 36.6788C21.4672 40.3958 22.2267 44.0036 23.7456 47.3927C24.9391 50.1258 26.241 52.7496 27.7599 55.3734C29.0619 57.56 30.4723 59.5278 32.0997 61.4957C34.3781 64.2288 36.765 66.7433 39.1519 69.3671C40.4538 70.7883 41.6473 72.2096 42.9492 73.5215C43.0577 73.6308 43.0577 73.7402 43.1662 73.9588C42.0812 74.1775 41.2133 73.9588 40.3454 73.1935C39.3689 72.4282 38.3924 71.8816 37.416 71.2257C36.765 70.679 36.114 70.1324 35.5716 69.4764C32.9677 66.0874 30.3638 62.6983 27.9769 59.1998C24.939 54.7175 22.2267 50.0165 20.5993 44.7688C19.9483 42.5823 19.6228 40.3958 19.4058 38.2093C18.9718 33.9456 20.4908 30.2285 22.2267 26.5115C23.7456 23.2317 25.9155 20.4986 28.4109 17.8747C30.4723 15.6882 33.0762 14.4856 35.8971 13.7204C38.6094 12.9551 41.4303 12.4085 44.2511 12.1898C46.855 12.4085 49.6759 12.9551 52.3883 13.7204ZM44.0342 68.9298C41.3218 66.1967 38.1754 63.9008 35.6801 61.0584C31.6657 56.3574 27.7599 50.6724 25.807 44.7688C23.6371 38.2093 25.2646 30.6658 29.3874 25.1996C33.6187 19.4053 38.3924 18.8587 44.0342 17.8747C49.6759 18.8587 54.4497 19.5146 58.681 25.1996C62.6953 30.6658 64.4312 38.2093 62.2613 44.7688C60.3084 50.6724 56.4026 56.3574 52.3883 61.0584C49.8929 63.9008 46.7466 66.1967 44.0342 68.9298ZM36.0056 10.5499C34.3781 11.2059 32.8592 11.8618 31.2318 12.6271C30.2553 11.3152 29.2789 10.1126 28.3024 8.69139C30.1468 7.48881 32.0997 7.0515 34.1611 6.28622C34.8121 7.81678 35.4631 9.12869 36.0056 10.5499ZM29.7128 13.3924C28.1939 14.9229 26.675 16.3442 25.2645 17.7654C24.0711 16.4535 22.8776 15.1416 21.5757 13.611C22.5522 12.8458 23.5286 12.0805 24.3966 11.3152C25.0476 10.1126 26.241 9.89397 27.326 9.23802C28.4109 10.6593 29.4958 11.8618 29.7128 13.3924ZM22.9862 17.2188C23.5286 17.7654 24.0711 18.312 24.5051 18.8587C23.5286 20.2799 22.6607 21.4825 21.7927 22.7944C20.2738 21.5918 18.8633 20.3892 17.3444 19.1867C18.5379 17.6561 19.6228 16.2349 20.8163 14.7043C21.6842 15.5789 22.3352 16.4535 22.9862 17.2188ZM21.1417 23.8877C20.4908 25.1996 19.8398 26.5115 19.1888 27.9327C17.4529 27.0581 15.717 26.0742 13.9811 25.1996C14.7405 23.4503 15.6085 21.8105 16.8019 20.1706C18.3209 21.3732 19.7313 22.6851 21.1417 23.8877ZM18.6464 29.3539C18.2124 31.3218 17.8869 33.2897 17.5614 35.2575C15.717 34.8202 13.8726 34.4922 11.9197 34.0549C11.8112 31.3218 12.5706 28.8073 13.5471 26.4021C15.283 27.3861 16.9104 28.37 18.6464 29.3539ZM17.4529 36.5694C17.7784 38.6466 18.1039 40.5052 18.4294 42.473C16.368 42.6917 14.5236 42.801 12.5706 43.0196C12.0282 40.5052 11.8112 37.9907 11.5942 35.2575C13.7641 36.0228 15.717 35.8041 17.4529 36.5694ZM18.7548 43.5663C19.5143 45.6435 20.2738 47.83 21.0332 49.9072C19.1888 50.4538 17.3444 51.0004 15.5 51.4377C14.198 49.2512 13.5471 46.846 13.0046 44.3316C14.9575 43.8942 16.8019 43.129 18.7548 43.5663ZM21.7927 51.4377C22.2267 52.4216 22.6607 53.2963 22.9862 54.1709C23.5286 55.0455 24.0711 55.8107 24.7221 56.7947C23.0946 57.4506 21.5757 57.9973 20.0568 58.6532C18.5379 56.904 17.0189 55.0455 15.934 52.6403C17.9954 52.203 19.8398 51.875 21.7927 51.4377ZM26.241 60.5117C26.3495 60.6211 26.458 60.8397 26.458 60.949C26.3495 61.1677 26.241 61.3864 26.024 61.3864C25.2645 61.605 24.9391 61.277 24.6136 60.1838C25.2646 59.9651 25.807 60.1838 26.241 60.5117ZM26.3495 62.4796C26.7835 62.261 27.2175 61.8237 27.6514 61.3864C27.9769 61.8237 28.1939 62.1516 28.5194 62.5889C27.6514 63.0262 26.7835 63.3542 25.9155 63.6822C25.4815 63.3542 25.156 63.0262 24.8306 62.8076C25.373 62.8076 25.9155 62.6983 26.3495 62.4796ZM29.2789 63.9008C29.8213 64.7754 30.4723 65.5407 31.0148 66.306C29.9298 66.8526 29.4958 66.962 29.0619 66.5247C28.3024 65.8687 27.4344 65.1034 26.5665 64.2288C27.6514 64.2288 28.4109 64.1195 29.2789 63.9008ZM32.0997 67.7272C33.6187 69.4764 35.0291 71.1163 36.548 72.8655C36.4395 72.9749 36.4395 72.9749 36.331 73.0842C34.5951 71.4443 32.4252 70.3511 30.7978 68.3832C31.3403 68.1645 31.6658 67.9459 32.0997 67.7272ZM39.3689 76.6919C40.8878 76.4733 42.5152 76.364 44.0342 76.364C45.5531 76.2546 47.1805 76.364 48.6994 76.6919C50.0014 76.9106 51.3033 77.0199 52.6053 77.1292C53.4732 77.2386 54.2327 77.2386 55.2091 77.2386C55.3176 77.7852 55.3176 78.2225 55.4261 78.6598C53.9072 78.4411 52.6053 78.1132 51.3033 78.1132C48.9164 78.0038 46.5296 77.8945 44.1427 77.8945C41.7558 77.8945 39.3689 77.8945 36.982 78.1132C35.6801 78.2225 34.3781 78.4411 32.8592 78.6598C32.8592 78.2225 32.9677 77.7852 32.9677 77.2386C33.8356 77.2386 34.7036 77.1292 35.5716 77.1292C36.765 77.0199 38.0669 76.9106 39.3689 76.6919ZM38.6094 79.4251C40.4538 79.4251 42.1898 79.3158 44.0342 79.3158C45.8786 79.3158 47.6145 79.3158 49.4589 79.4251C51.4118 79.4251 53.4732 79.6437 55.4261 80.2997C55.4261 80.737 55.4261 81.065 55.3176 81.6116C54.4497 81.5023 53.5817 81.2836 52.7138 81.1743C49.7844 80.8463 46.855 80.8463 43.9257 80.9556C40.9963 80.8463 38.0669 80.8463 35.1376 81.1743C34.2696 81.2836 33.5102 81.3929 32.5337 81.6116C32.5337 81.065 32.5337 80.737 32.4252 80.2997C34.7036 79.6437 36.6565 79.4251 38.6094 79.4251ZM40.5623 166.558C40.5623 167.76 40.4538 168.963 40.4538 170.165C39.6944 170.275 39.0434 170.603 38.1755 170.165C38.1755 169.4 38.067 168.525 38.067 167.76C37.9585 165.464 37.9585 163.278 37.9585 160.982C37.9585 157.265 37.9585 153.657 37.9585 149.94C37.9585 147.098 37.9585 144.255 37.9585 141.522C37.9585 138.242 37.8499 135.072 37.7415 131.792C37.7415 131.027 37.633 130.261 37.633 129.496C37.9585 124.139 38.0669 118.782 37.9585 113.425C37.9585 110.474 38.067 107.631 38.067 104.679C38.067 102.165 38.1755 99.6503 38.1755 97.1358C38.1755 95.3866 38.1755 93.6374 38.1755 91.6696C38.9349 91.6696 39.4774 91.5602 40.0199 91.5602C40.1283 93.4188 40.1284 95.2773 40.2369 97.1358C40.3453 100.962 40.4538 104.679 40.5623 108.506C40.5623 112.004 40.5623 115.612 40.5623 119.11C40.5623 122.171 40.3453 125.123 40.4538 128.184C40.5623 132.011 40.2369 135.946 40.2369 139.773C40.1284 143.599 40.2369 147.535 40.3454 151.361C40.3454 153.329 40.6708 155.188 40.7793 157.156C40.6708 160.217 40.5623 163.387 40.5623 166.558ZM44.0342 170.165C43.3832 170.165 42.8407 170.165 42.0812 170.165C42.0812 169.181 42.1898 168.307 42.1898 167.214C42.8407 167.214 43.3832 167.323 43.9257 167.323C44.4682 167.323 45.0106 167.214 45.6616 167.214C45.6616 168.307 45.7701 169.181 45.7701 170.165C45.3361 170.165 44.6851 170.165 44.0342 170.165ZM44.0342 154.641C44.5767 154.532 45.1191 154.641 45.5531 154.641C45.6616 154.641 45.7701 154.86 45.8786 154.969C45.7701 155.078 45.6616 155.297 45.5531 155.297C45.0106 155.406 44.5767 155.406 44.0342 155.406C43.4917 155.406 43.0577 155.406 42.5153 155.297C42.4068 155.297 42.2982 155.078 42.1898 154.969C42.2982 154.86 42.4068 154.641 42.5153 154.641C43.0577 154.641 43.4917 154.641 44.0342 154.641ZM44.0342 159.561C44.5767 159.561 45.1191 159.451 45.6616 159.451C45.6616 159.889 45.6616 160.326 45.5531 160.654C45.0106 160.654 44.4682 160.545 44.0342 160.545C43.4917 160.545 42.9492 160.654 42.5153 160.654C42.5153 160.217 42.5152 159.889 42.4068 159.451C42.9492 159.451 43.4917 159.451 44.0342 159.561ZM44.0342 161.638C44.5767 161.638 45.1191 161.747 45.7701 161.747C45.7701 162.513 45.7701 163.169 45.7701 164.043C45.2276 164.043 44.5767 164.152 44.0342 164.152C43.4917 164.152 42.9492 164.043 42.2983 164.043C42.2983 163.169 42.2983 162.513 42.2983 161.747C42.9492 161.747 43.4917 161.638 44.0342 161.638ZM44.0342 158.468C43.3832 158.358 42.8407 158.358 42.2983 158.249C42.2983 157.593 42.2983 156.937 42.2983 156.281C42.8407 156.281 43.3832 156.281 43.9257 156.39C43.9257 156.39 43.9257 156.39 44.0342 156.39C44.1427 156.39 44.2512 156.39 44.3596 156.39C44.7936 156.281 45.3361 156.281 45.9871 156.281C45.9871 156.937 45.9871 157.593 45.9871 158.249C45.2276 158.358 44.6851 158.468 44.0342 158.468ZM42.2983 165.136C42.8407 165.136 43.3832 165.136 43.9257 165.136C44.4682 165.136 45.0106 165.136 45.5531 165.136C45.5531 165.574 45.6616 165.792 45.6616 166.339C45.0106 166.339 44.3596 166.339 43.8172 166.339C43.2747 166.339 42.6237 166.339 41.9728 166.339C42.2983 165.792 42.2983 165.464 42.2983 165.136ZM45.9871 153.657C45.3361 153.657 44.6851 153.657 44.0342 153.657C43.3832 153.657 42.7322 153.657 42.0812 153.657C41.8643 152.673 41.7558 151.689 41.9728 150.705C42.7322 150.705 43.3832 150.815 43.9257 150.815C44.5766 150.815 45.2276 150.705 45.8786 150.705C46.3125 151.689 46.2041 152.564 45.9871 153.657ZM46.2041 149.721C45.5531 149.721 44.7936 149.831 44.0342 149.831C43.2747 149.831 42.6237 149.721 41.8643 149.721C41.8643 149.393 41.8643 149.175 41.8643 148.847C42.6237 148.847 43.2747 148.956 44.0342 148.956C44.7936 148.956 45.4446 148.847 46.2041 148.847C46.2041 149.175 46.2041 149.393 46.2041 149.721ZM46.3126 147.863C45.5531 147.863 44.9021 147.863 44.1427 147.863C43.3832 147.863 42.6237 147.863 41.9728 147.863C41.9728 146.879 41.8643 146.114 41.8643 145.13C42.7322 145.13 43.3832 145.13 44.1427 145.239C44.9021 145.239 45.6616 145.239 46.421 145.13C46.421 146.114 46.3126 146.988 46.3126 147.863ZM46.421 144.146C45.6616 144.146 44.9021 144.255 44.0342 144.255C43.1662 144.255 42.4067 144.146 41.6473 144.146C41.6473 144.146 41.5388 143.927 41.4303 143.49C42.4068 143.599 43.1662 143.709 43.9257 143.818C44.6851 143.709 45.4446 143.599 46.421 143.49C46.5295 143.818 46.5295 144.146 46.421 144.146ZM44.0342 115.831C44.6851 115.831 45.2276 115.831 45.9871 115.831C45.9871 116.924 45.9871 117.798 45.9871 118.782C45.2276 118.782 44.6851 118.782 43.9257 118.782C43.2747 118.782 42.6237 118.782 41.8643 118.782C41.8643 117.798 41.8643 116.924 41.8643 115.831C42.8407 115.831 43.4917 115.831 44.0342 115.831ZM44.0342 120.313C43.3832 120.313 42.7322 120.422 42.0812 120.422C42.0812 120.204 42.0813 119.985 41.9728 119.876C43.0577 119.766 43.6002 119.657 43.9257 119.766H44.0342C44.3597 119.657 44.7936 119.657 45.9871 119.876C45.9871 120.094 45.9871 120.204 45.8786 120.422C45.3361 120.313 44.6851 120.313 44.0342 120.313ZM44.0342 121.297C44.6851 121.297 45.3361 121.406 46.0956 121.406C46.0956 121.953 46.0956 122.39 46.0956 123.046C45.4446 123.046 44.7936 122.937 44.1427 122.937C43.4917 122.937 42.8407 123.046 42.0812 123.046C42.0812 122.39 42.0812 121.953 42.0812 121.406C42.7322 121.406 43.3832 121.406 44.0342 121.297ZM44.1427 124.467C43.3832 124.467 42.7322 124.577 42.0812 124.577C42.5152 124.139 43.2747 124.03 43.9257 124.139C43.9257 124.139 44.0342 124.03 44.1427 124.139H44.2511H44.3596C45.0106 124.03 45.6616 124.249 46.0956 124.577C45.4446 124.467 44.7936 124.467 44.1427 124.467ZM44.0342 125.561C44.6851 125.561 45.3361 125.67 46.0956 125.67C46.0956 126.107 46.0956 126.544 45.9871 126.982C45.3361 127.091 44.6851 127.091 44.0342 127.2C43.3832 127.091 42.7322 127.091 42.0812 126.982C42.0812 126.435 42.0813 126.107 41.9728 125.67C42.7322 125.67 43.3832 125.561 44.0342 125.561ZM42.0812 128.075C42.7322 128.184 43.3832 128.294 44.0342 128.403C44.6851 128.294 45.2276 128.184 45.9871 128.075C45.9871 128.294 46.0956 128.512 46.0956 128.84C45.3361 128.731 44.6851 128.622 44.0342 128.512C43.3832 128.622 42.7322 128.731 41.9728 128.84C42.0813 128.403 42.0812 128.294 42.0812 128.075ZM41.9728 129.824C42.7322 129.715 43.2747 129.606 44.0342 129.496C44.6851 129.606 45.3361 129.715 46.0956 129.824C46.0956 130.699 46.0956 131.464 46.2041 132.339C45.4446 132.339 44.7936 132.448 44.1427 132.448C43.3832 132.448 42.7322 132.339 42.0812 132.339C41.9728 131.355 41.9728 130.589 41.9728 129.824ZM41.9728 133.213C42.7322 133.323 43.3832 133.323 44.0342 133.432C44.6851 133.323 45.3361 133.323 46.0956 133.213C46.0956 133.651 46.0956 133.869 46.0956 134.197C45.3361 134.197 44.6851 134.307 44.0342 134.307C43.2747 134.307 42.6237 134.197 41.9728 134.197C41.9728 133.869 41.9728 133.651 41.9728 133.213ZM45.6616 114.847C45.2276 114.847 44.6852 114.956 44.1427 114.737C44.0342 114.737 44.0342 114.737 43.9257 114.737H43.8172C43.3832 114.956 42.7322 114.847 42.2983 114.847C42.1898 114.847 41.9728 114.519 41.7558 114.3C42.5152 114.191 43.1662 114.081 43.8172 114.191C44.4681 114.081 45.1191 114.081 45.8786 114.3C45.9871 114.519 45.8786 114.847 45.6616 114.847ZM44.0342 104.133C44.7936 104.023 45.3361 104.023 45.9871 103.914C45.9871 104.242 46.0956 104.461 46.0956 104.679C45.7701 104.898 44.7936 104.789 44.1427 104.351C43.3832 104.789 42.5152 105.007 42.1898 104.679C42.1898 104.461 42.2983 104.242 42.2983 103.914C42.7322 104.023 43.3832 104.023 44.0342 104.133ZM44.0342 107.631C43.3832 107.631 42.7322 107.631 41.9728 107.631C41.9728 106.975 41.9728 106.538 42.0812 105.991C42.7322 105.882 43.3832 105.773 44.0342 105.554C44.6851 105.663 45.2276 105.773 45.9871 105.991C45.9871 106.538 45.9871 106.975 46.0956 107.631C45.3361 107.631 44.7936 107.631 44.0342 107.631ZM42.1898 108.724C42.4067 108.506 43.3832 108.615 44.0342 108.943C44.5767 108.615 45.5531 108.506 45.8786 108.724C45.9871 108.834 45.9871 109.162 46.0956 109.49C45.3361 109.38 44.6852 109.271 44.1427 109.162C43.4917 109.271 42.9492 109.38 42.1898 109.49C42.0813 109.052 42.0813 108.834 42.1898 108.724ZM42.0812 110.474C42.7322 110.474 43.3832 110.364 44.0342 110.364C44.6851 110.364 45.3361 110.474 45.9871 110.474C45.9871 111.348 45.9871 112.113 46.0956 113.097C45.4446 113.097 44.7936 113.097 44.0342 113.097C43.2747 113.097 42.6237 113.097 41.9728 113.097C42.0813 112.113 42.0812 111.348 42.0812 110.474ZM46.0956 100.962C46.0956 101.728 46.0956 102.274 46.2041 102.93C45.5531 102.93 44.9021 103.039 44.0342 103.039C43.2747 102.93 42.6237 102.93 41.8643 102.93C41.8643 102.274 41.8643 101.728 41.9728 100.962C42.7322 101.181 43.2747 100.634 44.0342 100.962C44.0342 100.962 44.0342 100.962 44.1427 100.962C44.7936 100.634 45.4446 101.29 46.0956 100.962ZM44.1427 99.869C44.9021 99.3223 45.6616 99.3223 46.3126 99.9783C45.4446 99.9783 44.7936 99.869 44.1427 99.869ZM41.8643 99.9783C42.5152 99.3223 43.2747 99.3223 44.0342 99.869C43.2747 99.869 42.6237 99.9783 41.8643 99.9783ZM41.8643 135.181C42.6237 135.29 43.3832 135.29 44.0342 135.29C44.6851 135.29 45.4446 135.181 46.2041 135.181C46.2041 135.946 46.2041 136.712 46.3126 137.586C45.5531 137.586 44.7936 137.586 44.0342 137.586C43.2747 137.586 42.5152 137.586 41.7558 137.586C41.7558 136.712 41.8643 135.946 41.8643 135.181ZM46.2041 98.4477C45.5531 98.4477 45.0106 98.4477 44.3596 98.4477C44.1427 98.5571 44.0342 98.5571 43.8172 98.4477C43.1662 98.4477 42.5152 98.4477 41.8643 98.4477C41.8643 97.4638 41.7558 96.5892 41.7558 95.6053C42.4067 95.6053 43.1662 95.4959 44.0342 95.4959C44.9021 95.4959 45.6616 95.6053 46.3126 95.6053C46.3126 96.5892 46.3126 97.4638 46.2041 98.4477ZM41.8643 138.352C42.6237 138.352 43.2747 138.461 44.0342 138.461C44.7936 138.461 45.4446 138.352 46.2041 138.352C46.4211 138.68 46.4211 139.008 45.9871 139.008C45.3361 139.008 44.6851 139.008 44.0342 138.898C43.3832 138.898 42.7322 139.008 42.0812 139.008C41.6473 139.008 41.6473 138.68 41.8643 138.352ZM44.0342 139.992C45.0106 139.882 45.7701 139.882 46.5295 140.101C46.5295 140.975 46.5295 141.741 46.5295 142.615C45.6616 142.615 44.9021 142.725 44.0342 142.834C43.1662 142.725 42.4067 142.725 41.5388 142.615C41.5388 141.741 41.5388 140.975 41.5388 140.101C42.4067 139.773 43.1662 139.882 44.0342 139.992ZM46.0956 94.512C45.4446 94.512 44.7936 94.512 44.0342 94.4027C43.3832 94.4027 42.7322 94.512 41.9728 94.512C41.8643 94.512 41.7558 94.184 41.4303 93.9654C42.4068 93.8561 43.2747 93.6374 43.9257 93.9654C44.6851 93.6374 45.4446 93.8561 46.421 93.9654C46.421 94.2934 46.3126 94.512 46.0956 94.512ZM44.0342 91.2322C44.1427 91.2322 44.1427 91.2322 44.0342 91.2322C44.7936 91.2322 45.5531 91.3416 46.3126 91.3416C46.4211 91.7789 46.4211 92.2162 46.5295 92.7628C45.6616 92.7628 44.9021 92.8721 44.0342 92.8721C43.1662 92.8721 42.4067 92.7628 41.5388 92.7628C41.6473 92.2162 41.6473 91.8882 41.7558 91.3416C42.6237 91.3416 43.2747 91.3416 44.0342 91.2322ZM50.5439 131.792C50.4354 135.072 50.3269 138.242 50.3269 141.522C50.3269 144.365 50.3269 147.207 50.3269 149.94C50.3269 153.657 50.3269 157.265 50.3269 160.982C50.3269 163.278 50.2184 165.464 50.2184 167.76C50.2184 168.525 50.1099 169.4 50.1099 170.165C49.3504 170.603 48.6995 170.384 47.8315 170.165C47.8315 168.963 47.723 167.76 47.723 166.558C47.723 163.387 47.6145 160.217 47.723 157.046C47.723 155.078 48.0485 153.22 48.157 151.252C48.2655 147.426 48.374 143.49 48.2655 139.664C48.157 135.837 47.94 131.901 48.0485 128.075C48.157 125.014 47.94 122.062 47.94 119.001C47.94 115.503 47.8315 111.895 47.8315 108.396C47.8315 104.57 48.0485 100.853 48.157 97.0265C48.157 95.168 48.2655 93.3094 48.374 91.4509C48.9165 91.4509 49.5674 91.5602 50.2184 91.5602C50.2184 93.5281 50.2184 95.2773 50.2184 97.0265C50.2184 99.541 50.2184 102.055 50.3269 104.57C50.3269 107.522 50.5439 110.364 50.4354 113.316C50.3269 118.673 50.4354 124.03 50.7608 129.387C50.5439 130.262 50.5439 131.027 50.5439 131.792ZM54.7752 88.8271C51.1948 88.7178 47.723 88.7178 44.1427 88.6084C40.5623 88.7178 37.0905 88.7178 33.5102 88.8271V88.7178C33.7271 88.6084 33.8356 88.4991 34.0526 88.4991C35.5716 88.2804 37.199 88.1711 38.7179 87.9525C39.6944 87.8431 40.6708 87.7338 41.5388 87.7338C42.4067 87.7338 43.2747 87.7338 44.1427 87.8432C45.0106 87.8432 45.8786 87.7338 46.7466 87.7338C47.723 87.7338 48.6995 87.8431 49.5674 87.9525C51.0864 88.0618 52.7138 88.2804 54.2327 88.4991C54.4497 88.4991 54.5582 88.6084 54.7752 88.7178C54.7752 88.8271 54.7752 88.8271 54.7752 88.8271ZM55.1006 87.1872C52.7138 86.9685 50.4354 86.8592 48.2655 86.6406C46.855 86.5312 45.4446 86.5312 44.1427 86.5312C42.7322 86.4219 41.4303 86.4219 40.0199 86.6406C37.7415 86.8592 35.4631 86.9685 33.1847 87.1872C33.1847 86.8592 33.1847 86.4219 33.0762 85.8753C34.2696 85.6566 35.4631 85.438 36.6565 85.3287C39.1519 85.2193 41.6473 85.2193 44.1427 85.3287C46.6381 85.2193 49.1334 85.2193 51.6288 85.3287C52.8223 85.438 54.0157 85.6566 55.2091 85.8753C55.1006 86.4219 55.1006 86.8592 55.1006 87.1872ZM55.3176 84.4541C54.3412 84.3447 53.5817 84.1261 52.6053 84.0168C50.6524 83.9074 48.591 83.7981 46.6381 83.7981C45.7701 83.7981 44.9021 83.7981 44.0342 83.9074C43.1662 83.9074 42.2983 83.7981 41.4303 83.7981C39.4774 83.7981 37.416 83.9074 35.4631 84.0168C34.5951 84.0168 33.7272 84.2354 32.7507 84.4541C32.6422 84.0168 32.6422 83.6888 32.5337 83.2515C33.4017 83.0328 34.1611 82.7049 35.0291 82.7049C37.3075 82.5955 39.6944 82.4862 42.0812 82.4862C42.7322 82.4862 43.3832 82.4862 44.0342 82.4862C44.6851 82.4862 45.3361 82.4862 45.9871 82.4862C48.374 82.4862 50.6524 82.5955 53.0392 82.7049C53.7987 82.7049 54.6667 83.0328 55.5346 83.2515C55.4262 83.6888 55.3176 84.0168 55.3176 84.4541ZM63.6718 86.3126C67.7946 86.3126 71.9174 86.5312 76.1487 86.7499C76.1487 88.0618 76.2572 89.3737 76.2572 91.0136C72.1344 88.9364 67.7946 87.9525 63.6718 86.3126ZM76.2572 85.5473C70.2899 85.3287 64.3227 85.11 58.3555 84.8914C58.3555 84.6727 58.3555 84.3447 58.3555 84.0168C64.4312 83.7981 70.3984 83.5795 76.4742 83.3608C76.3657 84.1261 76.2572 84.782 76.2572 85.5473ZM76.6912 82.2675C70.6154 82.4862 64.6482 82.7048 58.5725 82.9235C58.247 82.0489 58.681 81.9396 59.115 81.8302C60.4169 81.7209 61.8274 81.5023 63.1293 81.5023C66.8181 81.3929 70.3985 80.9556 73.9788 80.2997C74.9552 80.081 75.9317 79.9717 77.0166 79.7531C76.9081 80.737 76.7997 81.5023 76.6912 82.2675ZM77.2336 78.9878C71.9174 79.7531 66.7096 80.6277 61.3934 80.5183C66.7096 79.2064 72.0259 78.0039 77.5591 76.6919C77.4506 77.5666 77.3421 78.2225 77.2336 78.9878ZM84.3943 89.2644C84.3943 89.9203 84.3943 90.5763 84.3943 91.4509C82.6584 90.795 81.031 90.139 79.295 89.483C79.295 89.0457 79.295 88.4991 79.4035 87.8432C81.031 88.0618 82.5499 88.3898 84.0688 88.6084C84.3943 88.6084 84.3943 88.9364 84.3943 89.2644ZM79.512 85.3287C81.0309 85.11 82.5499 85.0007 84.0688 84.782C84.3943 85.6566 84.5028 85.6566 84.2858 87.0779C82.7669 86.7499 81.1394 86.5312 79.512 86.2033C79.512 85.8753 79.512 85.6566 79.512 85.3287ZM84.2858 83.2515C82.6584 83.3608 81.1394 83.4701 79.6205 83.5794C79.512 83.0328 79.512 82.5955 80.0545 82.3769C81.3564 81.8302 82.6584 81.3929 83.8518 80.9556C83.9603 80.9556 84.1773 80.8463 84.3943 80.8463C84.3943 81.7209 84.3943 82.4862 84.2858 83.2515ZM84.5028 79.0971C83.0923 79.6437 81.5734 80.1904 80.0545 80.737C80.163 80.409 80.163 80.1904 80.38 80.081C82.0074 79.0971 83.4178 78.0038 84.7198 76.2546C84.8283 77.4572 84.6113 78.2225 84.5028 79.0971Z" fill="black"/>
</svg>
