<svg width="113" height="165" viewBox="0 0 113 165" fill="none" xmlns="http://www.w3.org/2000/svg">
<path fill-rule="evenodd" clip-rule="evenodd" d="M108.022 85.5866C108.28 86.525 108.965 87.2075 109.479 87.8899C109.908 88.4871 110.251 89.0842 110.679 89.5961C110.765 89.6814 110.765 89.7667 110.765 89.852C110.936 90.4492 110.936 90.961 110.336 91.3022C109.994 91.5581 109.565 91.7287 109.222 91.9847C109.308 92.07 109.394 92.2406 109.479 92.4112C109.736 92.8377 109.994 93.2643 109.994 93.8614C109.994 93.9467 109.994 94.032 109.994 94.2027C110.251 94.9704 109.908 95.5676 109.137 95.8235C108.451 95.9941 108.194 96.3353 108.194 97.1031C108.194 97.8709 108.28 98.6386 108.708 99.4064C108.794 99.4917 108.794 99.6623 108.794 99.8329C108.794 100.345 108.708 100.942 108.708 101.454C108.708 102.477 108.194 103.33 107.422 103.928C106.223 105.037 104.766 105.548 103.137 105.548C98.5949 105.634 91.1386 104.439 87.7105 108.449C83.9395 112.8 80.597 117.662 79.2257 123.292C77.683 129.776 79.6542 135.918 80.8541 142.231C81.5397 145.899 84.1109 151.188 82.9967 154.856C82.054 157.927 78.1115 158.951 75.2833 159.633C71.6837 160.486 68.5984 161.339 65.2559 162.875C59.5994 165.519 53.0001 165.263 46.9151 164.41C41.0872 163.557 34.8308 162.875 29.0886 161.339C28.8315 161.254 28.5744 161.169 28.3172 160.998C28.0601 160.827 27.8887 160.657 27.803 160.316C25.5747 153.406 29.6885 143.34 33.6309 137.795C41.0872 127.302 49.9148 118.6 55.657 106.913C56.2569 105.634 56.5997 104.354 56.9425 102.989C58.3138 97.1884 56.4283 91.2169 51.7146 87.3781C40.2302 77.9943 29.8599 67.9281 20.4324 56.4969C17.6899 53.17 15.0331 49.843 12.3762 46.516C8.43381 41.3976 4.14858 36.5351 0.720403 31.0754C-1.59362 27.4072 2.17738 26.2129 4.83422 24.0803C6.80542 22.5447 8.69092 20.9239 10.6621 19.4737C14.6902 16.4879 19.0612 13.9287 23.6892 11.9667C37.4019 5.99518 51.886 0.876757 66.97 0.194301C70.741 0.0236869 75.369 -0.317541 79.0543 0.706143C81.7968 1.47391 82.6539 5.90987 83.6823 8.21316C85.225 11.7961 86.682 15.4643 88.139 19.0472C91.3957 26.9807 95.5096 34.9143 98.1664 43.1037C98.5949 44.3833 99.2806 45.4923 99.7948 46.6866C102.966 53.9377 105.708 61.1888 106.223 69.1224C106.48 72.9612 109.137 75.7763 110.936 78.9327C111.536 79.9564 112.136 81.0654 112.736 82.0891C113.25 83.0274 112.993 83.7099 112.136 84.3923C111.622 84.8189 110.936 84.9895 110.251 84.9895C109.651 85.0748 108.794 85.2454 108.022 85.5866ZM81.5397 27.3219C81.6254 26.8954 81.454 26.6395 81.1969 26.3836C81.2826 26.7248 81.454 26.9807 81.5397 27.3219C81.7111 27.7485 81.7969 28.2603 81.9683 28.6868C82.2254 29.5399 82.4825 30.3077 82.7396 31.1608C82.8253 31.502 82.911 31.502 83.2538 31.2461C83.0824 30.7342 82.8253 30.2224 82.6539 29.7958C82.3968 29.0281 82.1397 28.3456 81.7969 27.5779C81.7111 27.4926 81.6254 27.4072 81.5397 27.3219ZM47.4293 37.9853C47.6008 38.3265 47.7722 38.7531 48.0293 39.1796C49.7434 38.1559 51.7146 37.7294 53.3429 36.5351C53.2572 36.2792 53.1716 36.1086 53.0858 35.938C53.0858 35.938 53.0001 35.8526 52.9144 35.7673C51.2003 36.4498 49.4005 37.0469 47.7722 38.0706C47.6865 38.1559 47.515 38.0706 47.4293 37.9853C47.515 37.9 47.6008 37.7294 47.6865 37.6441C48.5435 37.2176 49.3148 36.8763 50.1719 36.5351C51.0289 36.1939 51.886 35.7673 52.743 35.4261C52.5716 35.0849 52.4859 34.829 52.3145 34.573C50.9432 35.1702 49.572 35.682 48.2864 36.2792C47.7722 36.5351 47.2579 36.7057 46.8294 37.2176C47.0865 37.3882 47.2579 37.7294 47.4293 37.9853ZM17.947 50.4401C18.2041 50.1842 18.4612 50.0136 18.6326 49.843C19.8325 48.734 21.1181 47.7103 22.4893 46.8572C23.7749 46.0042 25.0605 45.1511 26.2603 44.3833C27.2031 43.7862 28.2315 43.1037 29.1743 42.5066C30.117 41.9094 31.0598 41.3123 32.0025 40.7151C33.4595 39.7768 34.9165 38.8384 36.4592 37.9853C38.1733 37.0469 39.8873 36.1086 41.6014 35.2555C43.2298 34.4024 44.8582 33.72 46.4866 32.9522C49.0577 31.7579 51.7146 30.8195 54.3714 29.9665C56.7711 29.1987 59.1709 28.5162 61.5706 27.7485C62.9419 27.3219 64.3988 26.9807 65.8558 26.5542C67.9127 25.957 69.9696 25.5305 72.0265 25.104C74.7691 24.5068 77.5973 24.0803 80.3399 23.739C80.9398 23.6537 81.6254 23.5684 82.2254 23.4831C82.6539 23.3978 82.9967 23.2272 83.1681 22.8007C83.6823 21.6064 84.5394 20.7533 85.825 20.2415C86.1678 20.0708 86.2535 19.8149 86.0821 19.4737C85.9107 19.2178 85.825 19.0472 85.7393 18.7912C85.4821 18.1088 85.225 17.341 84.8822 16.6586C83.2538 13.0757 81.8826 9.40746 80.4256 5.82457C79.9113 4.54496 79.3114 3.35066 78.7972 2.07106C78.7115 1.81514 78.5401 1.55921 78.1973 1.55921C77.683 1.47391 77.0831 1.30329 76.5689 1.30329C74.8548 1.04737 73.1407 0.962064 71.5123 0.962064C70.3982 0.962064 69.284 0.962064 68.1698 1.04737C67.2271 1.04737 66.2843 1.04737 65.3416 1.13268C62.599 1.47391 59.9422 1.90044 57.2854 2.32698C55.4856 2.66821 53.7715 3.09474 51.9717 3.43597C51.3718 3.60658 50.7718 3.7772 50.1719 3.94781C48.7149 4.37435 47.1722 4.80088 45.7153 5.14211C43.4012 5.73926 41.1729 6.33641 38.9446 7.18948C37.1448 7.87193 35.2593 8.55439 33.4595 9.23685C31.7454 9.9193 29.9456 10.5165 28.2315 11.1989C25.9175 12.1373 23.6035 13.2463 21.4609 14.4406C20.4324 15.0377 19.404 15.4643 18.4612 16.0614C16.7471 17.0851 15.033 18.1941 13.319 19.3031C11.6049 20.4121 10.0622 21.5211 8.60521 22.9713C7.31965 24.1656 5.94838 25.2746 4.5771 26.2983C3.37724 27.1513 2.5202 28.3456 1.49174 29.3693C1.57745 29.4546 1.57745 29.5399 1.66315 29.6252C1.74886 29.7105 1.83456 29.7958 1.83456 29.8812C2.26309 31.1608 3.12013 32.0991 3.97718 33.1228C4.4914 33.8053 4.91992 34.4877 5.51985 35.1702C6.80542 36.791 8.09099 38.3265 9.29085 39.9474C10.8335 41.9947 12.5476 43.9568 14.2617 45.9189C15.2045 47.0279 16.2329 48.1369 17.2614 49.2458C17.3471 49.6724 17.6042 50.0989 17.947 50.4401ZM102.023 55.7292C100.652 56.0704 99.3663 56.4969 97.995 56.8382C97.3094 57.0088 96.538 57.2647 95.8524 57.5206C94.9953 57.7765 94.0526 58.0325 93.2812 58.3737C91.3957 59.1415 89.6817 60.1651 87.9676 61.1888C87.1105 61.7007 86.2535 62.2978 85.3107 62.8097C83.6823 63.748 82.054 64.6011 80.5113 65.5395C79.4828 66.1366 78.5401 66.7338 77.5973 67.4162C76.9117 67.9281 76.2261 68.3546 75.5404 68.6958C73.1407 69.8048 70.6553 70.6579 68.0841 71.1698C67.7413 71.2551 67.4842 71.3404 67.1414 71.4257C67.5699 71.8522 68.1698 72.1081 68.0841 72.7906C67.6556 72.7053 67.6556 72.7053 67.4842 72.4494C67.1414 72.0228 66.6272 71.6816 66.0272 71.6816C65.4273 71.7669 64.9131 72.0228 64.3131 72.1934C66.6272 72.5347 68.1698 73.729 68.9412 75.7763C68.8555 76.1176 68.8555 76.3735 68.6841 76.5441C68.5126 76.7147 68.2555 76.7147 67.9127 76.8C68.0841 76.9706 68.1698 77.1413 68.3412 77.3119C68.5126 77.5678 68.5126 77.7384 68.2555 77.909C68.1698 77.8237 67.9984 77.7384 67.9127 77.5678C67.7413 77.0559 67.2271 76.9706 66.7986 76.9706C66.37 76.9706 66.1129 76.8 66.0272 76.5441C65.8558 76.2029 65.8558 75.8616 65.7701 75.5204C65.7701 75.4351 65.8558 75.2645 65.9415 75.1792C66.1129 74.9233 66.37 74.7526 66.6271 74.4967C66.97 74.7526 67.3985 75.0086 67.827 75.3498C67.3128 73.8143 65.9415 72.9612 64.4845 73.0465C63.9703 73.0465 63.4561 73.1318 63.0276 73.3877C62.8562 73.473 62.6848 73.5583 62.9419 73.8143C62.9419 73.8143 62.9419 73.9849 63.0276 73.9849C62.7704 74.1555 62.5133 74.0702 62.4276 73.8996C62.3419 73.729 62.3419 73.473 62.4276 73.3024C62.5133 73.0465 62.7705 72.8759 62.8562 72.7053C62.2562 72.8759 61.6563 73.0465 61.2278 73.3877C60.1136 74.1555 59.3423 75.0939 59.5994 76.6294C59.6851 76.8853 59.6851 77.2266 59.7708 77.4825C60.0279 78.6768 60.3707 79.8711 61.2278 80.8094C61.8277 81.4919 62.5133 82.0891 63.199 82.6862C64.6559 84.1364 66.4557 84.9895 68.1698 86.1838C69.1126 86.7809 70.141 87.2075 70.9124 87.9753C70.9981 88.0606 71.1695 88.1459 71.2552 88.0605C71.4266 87.9752 71.598 87.9752 71.7694 88.0605C72.0265 88.1459 72.2837 88.0605 72.3694 87.8899C72.7122 87.4634 73.055 87.1222 73.3121 86.6956C73.3978 86.6103 73.4835 86.4397 73.6549 86.4397C73.912 86.4397 73.912 86.6103 73.912 86.7809C73.9977 87.634 73.5692 88.3165 73.055 88.9136C72.7122 89.2548 72.2836 89.5961 71.7694 89.5108L71.6837 89.5961C71.6837 89.852 71.8551 90.1932 71.7694 90.3638C71.6837 90.5345 71.6837 90.7051 71.7694 90.7904C71.9408 91.1316 72.1122 91.5581 72.2836 91.8994C72.6265 92.5818 73.055 93.2643 73.3978 93.9467C74.1692 95.3116 75.1976 96.4206 76.826 96.8472C78.5401 97.359 80.2542 97.8709 81.9683 98.3827C83.6824 98.8945 85.3964 99.4917 87.1105 100.004C88.996 100.601 90.8815 101.113 92.8527 101.624C93.6241 101.88 94.3954 102.136 95.1667 102.307C96.7951 102.733 98.4235 103.075 100.052 103.501C101.337 103.842 102.623 104.098 103.994 103.586C104.08 103.586 104.166 103.586 104.337 103.501C105.108 103.331 105.794 103.16 106.48 102.733C106.737 102.563 106.908 102.307 106.994 101.966C107.337 100.686 107.337 99.4064 107.251 98.0415C107.165 97.1031 106.994 96.1647 107.337 95.2263C107.251 95.2263 107.165 95.2263 107.165 95.2263C107.08 95.2263 106.994 95.2263 106.908 95.2263C105.708 94.7998 104.594 94.288 103.909 93.179C103.651 92.7524 103.394 92.2406 102.794 92.1553C102.709 92.3259 102.623 92.4965 102.452 92.6671C102.28 92.4965 102.109 92.3259 102.023 92.1553C101.852 91.8994 101.852 91.3022 102.023 91.0463C102.195 90.7051 102.537 90.961 102.794 90.961C102.88 90.961 102.966 90.961 103.052 91.0463C103.651 91.4728 104.337 91.4728 105.108 91.3022C106.48 90.961 107.765 90.6198 109.051 90.0226C109.394 89.852 109.737 89.4255 109.651 89.1695C109.479 88.743 109.394 88.4018 109.137 88.0605C108.451 87.2075 107.937 86.3544 107.422 85.3307C106.737 85.3307 106.051 85.3307 105.366 85.3307C105.108 84.9042 105.108 84.563 105.451 84.307C105.794 84.307 106.223 84.3923 106.565 84.3923C107.08 84.3923 107.68 84.3923 108.194 84.1364C108.879 83.7952 109.565 83.7952 110.336 83.7099C110.594 83.7099 110.851 83.6246 111.108 83.6246C112.222 83.454 112.65 82.5156 112.051 81.5772C111.536 80.8095 110.936 80.0417 110.422 79.1886C109.994 78.5915 109.651 77.9943 109.308 77.3972C108.622 76.2882 108.022 75.0939 107.422 73.9849C107.165 73.5583 106.908 73.1318 106.823 72.62C106.565 71.7669 106.394 70.8285 106.137 69.8902C105.88 68.6105 105.451 67.3309 105.366 66.0513C105.28 65.2836 105.108 64.5158 104.937 63.8334C104.423 62.2125 103.909 60.5064 103.394 58.8855C102.794 58.1178 102.366 57.0088 102.023 55.7292ZM31.3169 66.1366C31.574 66.4779 31.8311 66.7338 32.0882 66.9044C32.9453 67.8428 33.8023 68.6959 34.6594 69.6342C35.6878 70.7432 36.6306 71.9375 37.7447 72.9612C38.0876 73.2171 38.4304 73.5584 38.7732 73.8996C39.5445 74.7527 40.3159 75.6057 41.1729 76.3735C42.2871 77.3972 43.4012 78.3355 44.5154 79.3592C47.0008 81.6625 49.572 83.7952 52.2288 85.8426C52.3145 85.9279 52.4859 86.0132 52.6573 86.0985C52.743 85.416 52.8287 84.7336 53.0001 84.1364C53.343 82.6009 53.7715 81.0654 54.2 79.6152C54.5428 78.5915 54.8856 77.6531 55.3142 76.7147C55.7427 75.7763 56.3426 74.838 57.2854 74.2408C58.0567 73.729 58.828 73.1318 59.5994 72.62C60.6278 71.8522 61.9134 71.5963 63.1133 71.0844C63.6275 70.8285 64.2274 70.6579 64.8274 70.4873C66.1986 70.1461 67.6556 69.8901 69.0269 69.4636C70.741 68.9518 72.455 68.4399 73.912 67.2456C75.0262 66.3073 75.5404 65.1983 75.1976 63.8334C74.8548 62.2978 74.4263 60.8476 73.9977 59.3974C73.5692 57.9472 73.1407 56.5823 73.1407 55.132C73.1407 54.8761 73.1407 54.5349 73.2264 54.3643C73.8263 53.4259 74.4263 52.4875 75.369 51.9757C76.1404 51.5491 76.826 51.0373 77.5973 50.6108C78.7972 49.9283 79.9113 49.2458 81.1112 48.6487C82.1397 48.1369 83.2538 47.625 84.368 47.1985C86.0821 46.3454 87.9676 45.8336 89.7674 45.2364C91.0529 44.8099 92.4242 44.4687 93.6241 43.8715C93.8812 43.7862 94.1383 43.6156 94.3097 43.5303C94.3954 42.7625 94.0526 42.1654 93.7955 41.5682C92.9384 39.3502 91.9957 37.1322 91.1386 34.9143C91.0529 34.6583 90.8815 34.4024 90.7101 34.1465C90.5387 33.8906 90.2816 33.72 89.9388 33.72C88.996 33.5493 88.0533 33.464 87.0248 33.464C86.1678 33.464 85.3964 33.464 84.5394 33.6347C82.3968 33.9759 80.3399 34.3171 78.1973 34.7437C77.5973 34.829 76.9117 34.9996 76.3118 35.1702C75.2833 35.4261 74.2549 35.7673 73.2264 36.1086C71.2552 36.791 69.3697 37.3882 67.4842 38.0706C66.37 38.4972 65.2559 39.009 64.1417 39.3502C62.6847 39.8621 61.1421 40.2886 59.6851 40.8858C58.2281 41.3976 56.8568 41.9094 55.3999 42.5066C53.8572 43.189 52.3145 43.8715 50.7718 44.554C48.972 45.407 47.0865 46.3454 45.2867 47.1985C44.0869 47.7956 42.8013 48.3928 41.6014 48.9899C40.4016 49.5871 39.116 50.2695 37.9161 50.952C36.4592 51.7197 35.0879 52.5728 33.6309 53.4259C32.5168 54.1084 31.3169 54.7908 30.2884 55.5586C29.26 56.241 28.2315 56.9235 27.3745 57.8619C27.5459 57.8619 27.6316 57.8619 27.803 57.8619C28.5744 57.7765 29.26 57.7766 30.0313 57.6912C31.0598 57.6912 32.0882 57.6912 33.1167 57.6912C34.9165 57.6912 36.7163 57.6059 38.5161 57.6059C40.1445 57.6059 41.7729 57.5206 43.4012 57.4353C45.3724 57.2647 47.4293 57.35 49.4005 57.4353C51.1146 57.5206 52.743 57.6059 54.4571 57.6059C56.9425 57.6059 59.3423 57.5206 61.8277 57.4353C63.2847 57.4353 64.7417 57.4353 66.2843 57.4353C66.7986 57.4353 67.3128 57.4353 67.7413 57.5206C68.3412 57.6059 68.4269 57.6912 68.4269 58.2884C68.4269 59.7386 68.4269 61.1035 68.4269 62.5537C68.3412 64.3452 68.2555 66.1366 68.1698 67.9281C67.827 68.4399 67.3128 68.4399 66.7129 68.4399C66.2843 68.3546 65.7701 68.3546 65.3416 68.3546C64.056 68.2693 62.7704 68.2693 61.4849 68.184C60.5421 68.0987 59.6851 68.0134 58.7423 68.0134C57.8853 68.0134 57.0282 68.0134 56.1712 67.9281C54.3714 67.8428 52.5716 67.7575 50.7718 67.5869C49.5719 67.5016 48.3721 67.4162 47.1722 67.3309C46.5723 67.2456 46.0581 67.1603 45.4581 67.1603C43.8298 67.075 42.1157 67.075 40.4873 66.9897C38.5161 66.8191 36.5449 66.6485 34.5737 66.4779C33.2881 66.1366 32.3454 66.1366 31.3169 66.1366ZM47.4293 124.487C49.1434 124.316 50.7718 123.719 52.4002 123.634C53.2573 123.548 54.2 123.378 55.057 123.207C57.0282 122.781 58.6566 123.463 60.1993 124.657C62.0848 126.193 63.6275 127.984 65.0845 129.861C65.6844 130.629 66.1986 131.311 66.8843 131.994C68.1698 133.273 69.5411 134.553 70.8267 135.747C71.3409 136.174 71.8551 136.6 72.4551 137.027C73.912 138.221 75.369 139.33 77.1688 139.927C77.8544 140.183 78.5401 140.439 79.3971 140.439C79.3114 139.415 79.2257 138.477 79.0543 137.539C78.8829 136.6 78.7115 135.662 78.4544 134.724C78.0258 133.103 77.7687 131.482 77.5116 129.776C77.2545 127.899 77.3402 126.107 77.8544 124.316C78.1973 122.951 78.7972 121.672 79.3971 120.392C80.0828 118.942 80.7684 117.577 81.5397 116.212C82.4825 114.42 83.5109 112.629 84.7108 111.008C85.4821 109.984 86.3392 108.875 87.1105 107.852C88.0533 106.572 89.3388 105.634 90.8815 105.207C92.5099 104.781 94.1383 104.354 95.7667 103.928C95.7667 103.928 95.681 103.842 95.5953 103.842C94.7382 103.586 93.9669 103.331 93.1098 103.075C90.2816 102.222 87.4533 101.539 84.7108 100.601C83.3395 100.089 81.8825 99.7476 80.5113 99.3211C79.2257 98.8945 77.9401 98.5533 76.6546 98.1268C75.8832 97.8709 75.1119 97.4443 74.512 96.8472C73.8263 96.1647 73.3121 95.3969 72.8836 94.5439C72.0265 93.0084 71.1695 91.4728 70.6553 89.7667C70.5696 89.5961 70.4838 89.3401 70.3124 89.1695C69.9696 88.9136 69.5411 88.6577 69.1126 88.4018C67.5699 87.5487 66.0272 86.6103 64.656 85.416C63.7132 84.6483 62.7705 83.8805 61.8277 83.0274C60.4564 81.7478 59.5994 80.127 59.1709 78.3355C58.9137 77.3119 58.828 76.2029 59.0852 75.1792C58.6566 75.5204 58.3995 75.8616 57.971 76.2029C56.2569 77.5678 55.4856 79.5298 54.9713 81.5772C54.4571 83.6246 54.7142 85.672 54.7142 87.7193C54.7142 87.8899 54.7999 88.0605 54.8856 88.1459C55.9141 88.9989 56.6854 90.0226 57.3711 91.1316C57.7996 91.8994 58.1424 92.7524 58.5709 93.5202C58.7423 93.8614 58.828 94.1173 58.9137 94.4586C59.3423 95.8235 59.5994 97.2737 59.8565 98.7239C59.9422 99.4917 60.0279 100.259 60.0279 101.113C60.0279 102.307 59.5994 103.331 59.1709 104.354C58.5709 105.719 58.1424 107.169 57.4568 108.449C56.514 110.326 55.4856 112.202 54.4571 113.994C53.5144 115.529 52.5716 117.065 51.6289 118.6C50.8575 119.795 50.0862 120.989 49.3148 122.183C48.6292 122.866 48.0293 123.634 47.4293 124.487ZM66.0272 161.339C65.8558 161.169 65.7701 160.998 65.5987 160.827C64.2274 159.463 63.6275 157.756 63.1133 155.965C62.8562 155.027 62.599 154.003 62.2562 153.065C61.6563 151.358 61.0564 149.738 60.285 148.117C59.5137 146.581 58.828 144.96 57.971 143.425C57.114 142.06 56.3426 140.61 55.1427 139.415C54.6285 138.904 54.1143 138.392 53.6001 137.88C52.4859 136.856 51.286 135.918 49.9148 135.235C47.3436 133.956 44.6868 133.273 41.8586 132.847C41.0015 132.761 40.4016 132.932 39.8873 133.7C39.2874 134.553 38.6875 135.321 37.9161 136.174C36.5449 137.624 35.2593 139.159 34.2309 140.866C33.4595 142.145 32.5168 143.34 31.9168 144.79C31.2312 146.411 30.6313 148.117 29.9456 149.738C29.7742 150.079 29.7742 150.505 29.6885 150.932C29.6028 151.7 29.5171 152.553 29.3457 153.32C29.0029 155.283 28.9172 157.33 29.0029 159.292C29.0029 159.633 29.1743 159.804 29.5171 159.974C30.5456 160.316 31.4883 160.486 32.6025 160.657C34.488 160.913 36.3735 161.169 38.259 161.425C40.0588 161.681 41.8585 162.107 43.744 162.363C45.6295 162.619 47.515 162.875 49.4005 163.045C52.5716 163.387 55.7427 163.472 58.9137 163.131C60.5421 162.96 62.1705 162.704 63.7132 162.363C64.6559 162.107 65.4273 161.851 66.0272 161.339ZM78.283 65.4542C78.7972 65.113 79.14 64.857 79.5685 64.6011C81.454 63.4921 83.3395 62.2978 85.225 61.1888C86.5106 60.4211 87.8819 59.7386 89.2531 58.9709C90.453 58.3737 91.7386 57.7766 92.9384 57.1794C94.8239 56.1557 96.7951 55.3879 98.852 55.0467C99.452 54.9614 100.052 54.6202 100.566 54.3643C100.909 54.1937 101.08 53.5965 100.995 53.2553C100.566 52.4022 100.223 51.5491 99.7948 50.7814C99.3663 49.9283 98.852 49.1605 98.4235 48.3075C98.1664 47.7956 97.9093 47.4544 97.3951 47.1985C95.7667 46.2601 93.9669 46.0895 92.1671 46.2601C91.1386 46.3454 90.0245 46.6866 88.996 47.0279C87.3676 47.4544 85.9107 48.0515 84.368 48.734C82.4825 49.5871 80.597 50.5255 78.7972 51.6344C77.8544 52.2316 76.9117 52.8287 76.0546 53.5965C75.5404 54.1083 75.2833 54.5349 75.369 55.3026C75.4547 56.7529 75.4547 58.2031 75.8832 59.6533C76.2261 60.677 76.5689 61.7007 77.0831 62.7244C77.5116 63.5774 78.1115 64.4305 78.1973 65.3689C78.1973 65.1983 78.283 65.2836 78.283 65.4542ZM67.0557 160.827C68.6841 160.316 70.3124 159.889 71.8551 159.377C72.9693 159.036 73.8263 158.354 74.8548 157.842C74.8548 157.756 74.7691 157.756 74.7691 157.756C74.6834 157.671 74.5977 157.671 74.512 157.671C72.7979 157.074 71.1695 156.136 69.7982 154.941C68.7698 154.088 67.827 153.15 66.8843 152.297C65.4273 150.847 63.9703 149.396 62.5133 147.946C61.8277 147.264 61.1421 146.581 60.4564 145.899C61.0564 147.264 61.6563 148.629 62.1705 150.079C62.599 151.273 63.0276 152.382 63.4561 153.576C63.7989 154.6 64.056 155.624 64.3131 156.647C64.7417 158.268 65.7701 159.633 67.0557 160.827ZM24.5463 58.1178C25.2319 57.5206 26.0032 57.0088 26.6889 56.4116C28.3172 55.132 29.8599 53.9377 31.7454 52.9994C33.2024 52.3169 34.5737 51.7197 35.9449 50.8667C37.1448 50.0989 38.4304 49.4165 39.7159 48.734C41.0015 47.9662 42.2871 47.2838 43.6584 46.6013C45.4581 45.663 47.2579 44.6393 49.1434 43.8715C49.8291 43.6156 50.429 43.2744 51.1146 42.9331C52.5716 42.336 54.0286 41.6535 55.4856 41.0564C57.971 40.0327 60.5421 39.009 63.1133 38.0706C64.4845 37.5588 65.9415 37.1322 67.3985 36.6204C68.5984 36.1939 69.8839 35.7673 71.0838 35.4261C72.7979 34.9143 74.5977 34.573 76.3118 34.1465C78.5401 33.5494 80.7684 32.8669 82.9967 32.2697C82.3111 32.3551 81.6254 32.3551 80.9398 32.5257C78.7972 32.9522 76.6546 33.3787 74.512 33.8906C72.4551 34.4024 70.3981 34.9143 68.3412 35.5114C66.2843 36.1086 64.1417 36.791 62.0848 37.5588C60.4564 38.1559 58.7423 38.8384 57.114 39.4355C56.0855 39.8621 54.9713 40.2033 53.9429 40.7151C51.1146 41.9948 48.2864 43.189 45.5438 44.6393C43.8298 45.5776 42.1157 46.4307 40.4016 47.2838C39.6302 47.7103 38.8589 48.1369 38.1733 48.5634C35.6021 50.0136 33.031 51.4638 30.4599 52.9994C29.8599 53.3406 29.1743 53.5965 28.9172 54.279C28.9172 54.3643 28.8315 54.3643 28.7458 54.3643C28.3172 54.279 28.0601 54.6202 27.803 54.7908C26.946 55.388 26.0889 56.0704 25.3176 56.7529C24.9748 57.0088 24.7177 57.2647 24.3748 57.6059C24.2034 57.7765 24.1177 57.9472 24.5463 58.1178ZM91.91 30.3077C91.6528 30.3077 91.4815 30.3077 91.31 30.2224C91.0529 30.1371 90.8815 30.0518 90.6244 30.0518C90.453 29.9665 90.2816 29.9665 90.1959 29.8812C89.5102 29.6252 88.996 29.1134 88.4818 28.6868C87.1105 27.6632 86.1678 26.2129 85.5678 24.5921C85.5678 24.5068 85.4821 24.3362 85.4821 24.2509C85.4821 24.0803 85.4821 23.9097 85.6535 23.8243C85.9964 23.5684 86.3392 23.2272 86.7677 23.1419C87.3676 23.0566 88.0533 23.2272 88.5675 23.739C89.0817 24.2509 89.6817 24.7627 90.0245 25.4452C90.1102 25.5305 90.1959 25.7011 90.2816 25.7864C90.1102 24.9333 89.7674 23.995 89.5103 23.1419C89.2531 22.4594 88.9103 21.777 88.0533 21.6064C87.9676 21.6064 87.8819 21.4358 87.7105 21.4358C87.539 21.3504 87.4533 21.3504 87.2819 21.2651C85.9964 21.0945 85.3107 21.3504 84.7108 22.5447C84.2823 23.3978 84.1109 24.3362 84.4537 25.2746C84.8822 26.5542 85.6535 27.6632 86.682 28.6015C86.9391 28.8575 87.2819 29.1987 87.539 29.4546C87.9676 29.7958 88.3104 30.2224 88.8246 30.4783C89.7674 30.9048 90.5387 31.4167 91.31 32.0991C91.3957 32.1844 91.4815 32.2697 91.5672 32.355C92.0814 32.4404 92.3385 32.7816 92.4242 33.2934C92.5956 33.8906 92.8527 34.4877 93.0241 35.0849C93.1098 35.2555 93.1098 35.4261 93.1955 35.5114C93.3669 36.1086 93.4527 36.7057 93.7098 37.3029C93.8812 37.9 94.224 38.4972 94.4811 39.0943C94.6525 39.5208 94.7382 39.9474 94.9953 40.2886C95.5096 41.3123 96.1095 42.336 96.8808 43.189C96.9665 43.2744 97.0522 43.3597 97.1379 43.445C97.1379 43.2744 97.1379 43.2744 97.1379 43.189C96.6237 41.9948 96.1095 40.8858 95.5953 39.6915C95.2524 39.009 94.9096 38.3265 94.6525 37.6441C94.3097 36.791 94.1383 35.8526 93.7955 34.9996C93.4527 33.9759 93.1098 33.0375 92.767 32.0138C92.3385 31.4167 92.0814 30.8195 91.91 30.3077ZM72.3694 146.581C72.4551 146.325 72.4551 146.155 72.5408 145.984C72.7122 144.704 72.9693 143.51 73.1407 142.231C73.2264 141.548 73.3978 140.866 73.4835 140.183C73.5692 139.927 73.6549 139.671 73.3978 139.415C72.7979 138.989 72.1979 138.562 71.5123 138.05C70.9981 140.354 70.5695 142.572 70.0553 144.79C70.9124 145.387 71.598 145.984 72.3694 146.581ZM25.3176 58.9709C25.4033 59.0562 25.4033 59.1415 25.4033 59.1415C25.5747 59.1415 25.7461 59.2268 25.9175 59.2268C27.803 59.2268 29.7742 59.3121 31.6597 59.2268C34.1451 59.1415 36.6306 59.0562 39.116 58.9709C40.9158 58.8855 42.7156 58.7149 44.5154 58.7149C46.4866 58.7149 48.4578 58.8855 50.3433 58.8855C52.3145 58.8855 54.2857 58.8855 56.2569 58.8855C58.7423 58.8855 61.1421 58.8002 63.6275 58.8002C64.4845 58.8002 65.3416 58.8855 66.1986 58.8855C66.1986 58.5443 66.0272 58.3737 65.6844 58.3737C65.3416 58.3737 64.9988 58.3737 64.656 58.3737C61.9134 58.5443 59.1709 58.5443 56.514 58.5443C53.4287 58.5443 50.3433 58.5443 47.1722 58.5443C45.4581 58.5443 43.744 58.6296 42.03 58.6296C40.573 58.6296 39.2017 58.5443 37.7447 58.5443C37.2305 58.5443 36.7163 58.7149 36.1164 58.7149C34.8308 58.8002 33.5452 58.8002 32.2597 58.8002C30.2027 58.8002 28.2315 58.8855 26.1746 58.8855C25.9175 58.8002 25.5747 58.8855 25.3176 58.9709ZM75.2833 147.946C75.7975 145.557 75.7975 143.254 76.0546 140.951C75.4547 140.61 74.8548 140.354 74.2549 140.013C73.912 142.401 73.3121 144.619 73.1407 147.008C73.8263 147.349 74.512 147.605 75.2833 147.946ZM69.4554 144.193C69.5411 143.937 69.6268 143.766 69.6268 143.681C69.9696 142.06 70.2267 140.439 70.6553 138.818C70.9124 137.88 70.6553 137.197 69.9696 136.686C69.7125 136.515 69.5411 136.259 69.1983 136.003C68.9412 136.856 68.5984 137.624 68.4269 138.392C68.0841 139.501 67.827 140.61 67.4842 141.719C67.3985 141.975 67.4842 142.145 67.6556 142.316C68.2555 142.828 68.8555 143.51 69.4554 144.193ZM78.4544 148.799C78.4544 148.458 78.5401 148.202 78.5401 147.946C78.5401 146.24 78.5401 144.619 78.5401 142.913C78.5401 141.975 78.5401 141.975 77.683 141.719C77.5116 141.633 77.3402 141.548 77.0831 141.463C76.9974 141.377 76.826 141.377 76.6546 141.377C76.4832 143.681 76.3118 145.984 76.0546 148.287C76.826 148.543 77.5116 148.714 78.4544 148.799ZM60.7135 134.126C61.3135 134.809 61.8277 135.491 62.4276 136.088C63.3704 134.468 64.2274 132.932 65.1702 131.311C64.5702 130.629 64.1417 129.776 63.2847 129.179C62.2562 130.799 61.4849 132.42 60.7135 134.126ZM63.199 59.4827C63.199 59.6533 63.199 59.8239 63.199 59.9092C63.2847 60.9329 63.3704 61.8713 63.5418 62.895C63.6275 63.4068 63.7132 64.004 63.8846 64.5158C64.3131 65.6248 64.056 65.3689 65.1702 65.4542C65.1702 65.4542 65.1702 65.4542 65.2559 65.4542C65.2559 65.3689 65.2559 65.3689 65.2559 65.2836C65.1702 64.6011 64.9988 63.8333 64.9988 63.1509C64.9988 62.2978 64.9988 61.4448 64.9988 60.5064C64.9988 60.2505 65.0845 59.9945 65.513 59.9092C65.513 60.1651 65.513 60.3358 65.513 60.5064C65.3416 62.0419 65.4273 63.4921 65.7701 65.0276C65.8558 65.5395 65.8558 65.5395 66.5415 65.4542C66.4557 63.5774 66.37 61.7007 66.37 59.7386C65.2559 59.568 64.2274 59.4827 63.199 59.4827ZM67.3985 133.785C67.2271 134.212 67.1414 134.468 67.0557 134.638C66.4557 135.918 65.8558 137.283 65.2559 138.562C65.1702 138.733 65.0845 138.989 65.2559 139.159C65.8558 139.842 66.37 140.439 66.97 141.207C67.0557 141.036 67.0557 140.866 67.1414 140.695C67.3128 140.098 67.4842 139.415 67.6556 138.818C67.9984 137.795 68.3412 136.771 68.6841 135.662C68.7698 135.321 68.7698 135.15 68.5127 134.894C68.0841 134.638 67.7413 134.212 67.3985 133.785ZM61.1421 126.705C60.1993 128.325 59.3423 129.861 58.5709 131.482C59.0852 132.164 59.5994 132.761 60.1136 133.359C61.0564 131.738 61.5706 130.032 62.8562 128.581C62.3419 127.984 61.742 127.387 61.1421 126.705ZM72.5408 154.941C74.0834 155.965 75.7118 156.477 77.5116 156.903C76.9117 155.283 76.3118 153.832 75.7118 152.382C75.5404 152.467 75.5404 152.467 75.4547 152.467C74.512 153.235 73.5692 154.003 72.5408 154.941ZM65.7701 131.994C65.1702 132.506 63.3704 135.747 63.1133 136.941C63.5418 137.453 64.056 137.88 64.5702 138.477C64.8274 137.965 64.9988 137.453 65.2559 137.027C65.6844 136.088 66.1129 135.15 66.5415 134.126C66.7986 133.529 66.7986 133.017 66.2843 132.591C66.0272 132.42 65.9415 132.25 65.7701 131.994ZM60.5421 126.107C60.1136 125.681 59.6851 125.254 59.1709 124.828C58.0567 126.363 57.1997 127.899 56.514 129.605C57.0283 129.946 57.5425 130.373 58.0567 130.799C58.828 129.179 59.6851 127.728 60.5421 126.107ZM55.5713 129.093C56.514 127.472 57.3711 125.937 58.3138 124.401C57.7996 124.06 57.1139 123.804 56.3426 123.975C55.5713 125.425 54.7999 126.961 54.0286 128.496C54.5428 128.667 55.057 128.923 55.5713 129.093ZM26.8603 46.1748C27.803 47.625 28.6601 49.0752 29.6028 50.4401C29.9456 50.952 30.2027 51.5491 30.717 51.8904C31.0598 51.6344 31.4026 51.4638 31.8311 51.2079C30.5456 49.2458 29.26 47.3691 27.8887 45.407C27.5459 45.7483 27.2031 45.9189 26.8603 46.1748ZM83.0824 24.9333C83.0824 24.848 83.0824 24.848 83.1681 24.7627C83.0824 24.6774 82.9967 24.5921 82.8253 24.5921C82.3968 24.5921 82.054 24.5921 81.6254 24.6774C80.9398 24.7627 80.1684 24.7627 79.4828 24.848C77.683 25.1893 75.8832 25.5305 73.9977 25.8717C71.3409 26.2983 68.7698 27.066 66.1986 27.7485C63.7989 28.3456 61.3992 29.1134 58.9995 29.8812C58.7423 29.9665 58.5709 30.0518 58.3138 30.2224C59.6851 29.8811 61.0564 29.4546 62.3419 29.1134C63.7132 28.7722 64.9988 28.4309 66.37 28.0897C67.7413 27.7485 69.1126 27.4926 70.4838 27.1513C71.8551 26.8101 73.2264 26.5542 74.5977 26.2983C75.9689 26.0423 77.3402 25.8717 78.7115 25.6158C80.3399 25.1893 81.7968 25.3599 83.0824 24.9333ZM71.4266 154.515C71.4266 154.515 71.5123 154.429 71.598 154.429C71.3409 152.894 71.0838 151.358 70.8267 149.652C69.8839 150.249 69.0269 150.847 68.1698 151.358C67.827 151.614 67.827 151.87 68.1698 152.126C69.284 152.894 70.3981 153.662 71.4266 154.515ZM56.9425 59.568C55.2285 59.568 53.6858 59.568 51.9717 59.568C52.0574 60.1651 52.1431 60.677 52.1431 61.2741C53.7715 61.1035 55.3142 61.5301 56.9425 61.1888C56.9425 60.5917 56.9425 60.0798 56.9425 59.568ZM81.1112 149.055C81.0255 148.458 81.0255 147.861 80.8541 147.264C80.5113 145.728 80.1685 144.278 79.8256 142.742C79.7399 142.486 79.7399 142.316 79.6542 142.06C79.5685 141.889 79.3971 141.804 79.2257 141.889C79.2257 144.193 79.2257 146.581 79.2257 148.884C79.9113 148.97 80.4256 149.055 81.1112 149.055ZM61.9991 138.05C61.9134 137.197 61.9134 137.197 61.4849 136.686C61.2278 136.344 60.8849 136.003 60.6278 135.662C60.3707 135.321 60.0279 134.979 59.7708 134.724C59.5137 134.468 59.3423 134.553 59.2566 134.809C59.1709 134.979 59.0852 135.15 59.0852 135.321C59.1709 136.515 59.2566 137.709 59.3423 138.904C60.1993 138.562 61.0564 138.306 61.9991 138.05ZM37.7447 39.6915C37.0591 40.118 36.5449 40.5445 35.8592 40.9711C35.2593 41.3976 34.6594 41.7388 33.9737 42.0801C33.3738 42.4213 32.6882 42.7625 32.0882 43.1037C32.3454 43.5303 32.5168 43.7862 32.6882 44.1274C34.5737 42.9331 36.6306 42.0801 38.4304 40.8004C38.259 40.3739 38.0876 40.118 37.7447 39.6915ZM39.2874 38.8384C40.573 40.9711 41.8586 43.0184 43.4012 44.8952C43.6583 44.8099 43.8298 44.6393 44.0869 44.554C43.9155 44.2127 43.7441 43.9568 43.5726 43.6156C42.887 42.4213 42.1157 41.1417 41.2586 40.0327C40.8301 39.5208 40.4873 39.009 40.2302 38.3265C39.8874 38.4972 39.6302 38.6678 39.2874 38.8384ZM28.403 45.1511C29.7742 47.1132 30.9741 49.1605 32.3454 50.952C32.6025 50.7814 32.8596 50.6108 33.1167 50.4401C31.8311 48.4781 30.6313 46.516 29.4314 44.4687C29.0029 44.8099 28.7458 44.9805 28.403 45.1511ZM66.1986 66.1366C66.1129 66.0513 66.0272 66.0513 65.9415 66.0513C64.3131 65.966 62.7705 65.7954 61.1421 65.7954C58.5709 65.7954 55.9998 65.8807 53.4287 65.6248C52.0574 65.5395 50.7718 65.4542 49.4005 65.3689C49.0577 65.3689 48.7149 65.3689 48.3721 65.6248C54.3714 65.6248 60.1993 66.3926 66.0272 66.7338C66.1129 66.5632 66.1129 66.4779 66.1986 66.3926C66.1986 66.3926 66.1986 66.2219 66.1986 66.1366ZM73.1407 27.1513C73.7406 29.1134 74.1692 31.0754 74.9405 32.9522C75.1976 32.9522 75.2833 32.8669 75.4547 32.8669C75.6261 32.8669 75.7975 32.7816 75.8832 32.6963C75.4547 30.6489 74.3406 27.4072 73.9977 26.8954C73.7406 27.066 73.4835 27.066 73.1407 27.1513ZM65.9415 142.231C64.9988 141.036 64.056 139.927 63.199 138.818C62.9419 139.074 62.8562 139.33 62.8562 139.671C62.9419 140.439 62.9419 141.207 63.0276 141.975C63.0276 142.316 63.1133 142.742 63.1133 143.169C64.056 142.828 64.9131 142.572 65.9415 142.231ZM40.3159 43.3597C40.0588 43.0184 39.8873 42.7625 39.7159 42.5919C37.659 43.445 35.8592 44.6393 34.0594 45.8336C34.2309 46.0895 34.4023 46.3454 34.6594 46.6013C36.4592 45.4923 38.3447 44.4687 40.3159 43.3597ZM104.251 92.923C104.594 93.179 104.766 93.4349 104.937 93.5202C105.966 93.9467 106.908 94.288 107.937 94.6292C108.108 94.7145 108.365 94.6292 108.451 94.4586C108.794 94.2026 108.879 93.6055 108.708 93.2643C108.537 92.923 108.28 92.5818 108.022 92.3259C107.851 92.07 107.594 92.07 107.251 92.1553C106.394 92.4112 105.537 92.7524 104.594 92.7524C104.509 92.8377 104.423 92.8377 104.251 92.923ZM59.3423 139.501C59.3423 139.671 59.2566 139.757 59.3423 139.757C59.428 140.695 59.5137 141.633 59.5137 142.572C59.5137 142.828 59.5137 143.169 59.8565 143.254C60.3707 142.401 60.7993 141.633 61.2278 140.866C61.4849 140.354 61.742 139.842 61.9991 139.33C62.0848 139.159 62.0848 138.989 62.1705 138.648C61.1421 138.989 60.285 139.245 59.3423 139.501ZM56.4283 139.159C56.514 139.074 56.5997 139.074 56.5997 139.074C57.1997 137.88 57.7139 136.6 58.3138 135.406C58.3995 135.235 58.3995 134.979 58.3995 134.638C57.5425 134.894 56.8568 135.065 56.0855 135.321C55.5713 135.491 55.4856 135.577 55.657 136.088C55.8284 136.941 55.9998 137.795 56.2569 138.648C56.1712 138.904 56.3426 138.989 56.4283 139.159ZM24.7177 49.3312C24.4605 48.9899 24.2891 48.734 24.032 48.3928C22.4893 49.6724 20.861 50.6961 19.404 52.1463C19.6611 52.4022 19.8325 52.6581 20.0896 52.914C21.6323 51.7197 23.175 50.5255 24.7177 49.3312ZM33.7166 45.407C35.6021 44.298 37.4876 43.189 39.3731 41.9947C39.2017 41.8241 39.0303 41.5682 38.7732 41.3123C36.802 42.4213 34.9165 43.445 33.031 44.4687C33.2881 44.8099 33.4595 45.0658 33.7166 45.407ZM76.1404 151.785C76.7403 153.065 77.2545 154.344 77.8544 155.624C78.0258 154.685 78.1115 153.832 78.1973 152.979C78.283 152.126 78.4544 151.188 78.4544 150.164C77.5116 150.591 76.826 151.102 76.1404 151.785ZM54.1143 38.6678C52.3145 39.3502 50.6004 39.9474 49.0577 40.9711C49.2291 41.3123 49.4005 41.5682 49.572 41.9094C51.2003 41.1417 52.8287 40.4592 54.4571 39.6915C54.2857 39.3502 54.2 39.0943 54.1143 38.6678ZM53.2572 128.155C53.9429 126.705 54.7142 125.34 55.3999 123.975C54.4571 123.975 53.6001 123.975 53.2572 125.084C53.2572 125.169 53.1716 125.254 53.0858 125.34C52.6573 126.107 52.4002 126.875 52.2288 127.728C52.4859 127.814 52.8287 127.984 53.2572 128.155ZM81.9683 25.7011C82.6539 27.5779 83.3395 29.4546 84.0252 31.3314C84.2823 31.2461 84.5394 31.2461 84.7965 31.1608C84.4537 30.2224 84.1966 29.284 83.9395 28.3456C83.6823 27.4072 83.6823 26.4689 83.2538 25.4452C82.8253 25.5305 82.3968 25.6158 81.9683 25.7011ZM72.9693 33.464C72.3694 31.502 71.7694 29.6252 71.1695 27.6632C71.1695 27.6632 71.0838 27.6632 70.9981 27.6632C70.4839 27.7485 70.3981 27.8338 70.5696 28.3456C70.8267 29.3693 71.0838 30.4783 71.3409 31.502C71.5123 32.1844 71.6837 32.9522 72.1122 33.5494C72.3694 33.5494 72.6265 33.5494 72.9693 33.464ZM56.0855 31.9285C56.6854 34.0612 57.4568 36.1086 58.3995 38.0706C58.6566 37.9 58.9137 37.8147 59.1709 37.7294C58.0567 35.7673 57.6282 33.72 56.9425 31.5873C56.6854 31.7579 56.4283 31.8432 56.0855 31.9285ZM36.2021 48.8193C38.0876 47.7956 39.8874 46.6866 41.6871 45.6629C41.5157 45.407 41.43 45.1511 41.2586 44.9805C39.8016 45.5776 36.1164 47.7103 35.7735 48.2222C35.9449 48.3928 36.0306 48.5634 36.2021 48.8193ZM21.0324 54.023C21.8037 53.3406 22.575 52.8287 23.3464 52.1463C24.1177 51.5491 24.9748 51.1226 25.5747 50.3548C25.489 50.1842 25.4033 50.0989 25.3176 50.0136C25.2319 49.9283 25.1462 49.843 25.0605 49.7577C23.5178 50.952 21.9751 52.061 20.3467 53.17C20.6038 53.5112 20.7752 53.7671 21.0324 54.023ZM43.1441 60.677C41.43 60.8476 39.7159 60.4211 37.9161 60.7623C37.9161 61.1035 38.0019 61.3594 38.0019 61.6154C39.8016 61.7007 41.5157 61.8713 43.2298 61.6154C43.2298 61.3594 43.2298 61.0182 43.1441 60.677ZM67.5699 31.3314C65.6844 31.9285 63.7989 32.2697 61.9134 33.0375C61.9991 33.3787 62.1705 33.6347 62.2562 33.8906C64.1417 33.2934 65.9415 32.7816 67.827 32.1844C67.7413 31.8432 67.6556 31.6726 67.5699 31.3314ZM54.7999 32.4404C54.7999 33.0375 56.6854 37.9 57.1996 38.5825C57.3711 38.4972 57.6282 38.4119 57.7996 38.3265C57.0283 36.2792 56.2569 34.2318 55.5713 32.1844C55.3142 32.2697 55.057 32.3551 54.7999 32.4404ZM75.369 151.7C75.0262 150.847 74.7691 149.993 74.512 149.226C74.4263 149.055 74.2548 148.97 73.9977 148.714C73.6549 150.42 73.2264 152.041 72.8836 153.747C73.7406 152.979 74.5977 152.297 75.369 151.7ZM21.9751 55.2173C23.5178 54.023 24.9748 52.8287 26.5175 51.5491C26.346 51.2932 26.1746 51.1226 26.0032 50.8667C24.3748 52.061 22.9179 53.2553 21.3752 54.3643C21.3752 54.4496 21.4609 54.5349 21.4609 54.5349C21.6323 54.7908 21.8037 54.9614 21.9751 55.2173ZM71.6837 27.4926C72.1979 29.4546 72.7122 31.4167 73.5692 33.2934C73.8263 33.2081 74.0834 33.2081 74.2549 33.1228C73.6549 31.1608 73.055 29.1987 72.5408 27.2366C72.2836 27.3219 72.0265 27.4072 71.6837 27.4926ZM53.6001 37.2176C51.8003 37.9853 50.0005 38.7531 48.2007 39.6061C48.3721 39.9474 48.5435 40.2033 48.6292 40.3739C50.429 39.6062 52.1431 38.8384 53.9429 38.0706C53.8572 37.8147 53.6858 37.5588 53.6001 37.2176ZM45.3724 43.8715C45.4581 43.7862 45.6296 43.7862 45.7153 43.7009C45.801 43.6156 45.8867 43.6156 45.9724 43.5303C45.8867 43.445 45.8867 43.3597 45.8867 43.2744C44.8582 41.9094 44.0869 40.3739 43.2298 38.8384C42.9727 38.3265 42.5442 37.8147 42.2871 37.3029C42.03 37.4735 41.8586 37.5588 41.6871 37.6441C42.7156 39.8621 44.0012 41.8241 45.3724 43.8715ZM40.573 43.7862C38.6018 44.8952 36.802 45.9189 34.9165 46.9426C35.1736 47.1985 35.2593 47.4544 35.4307 47.7103C37.3162 46.6013 39.116 45.4923 41.0015 44.4687C40.8301 44.2127 40.7444 44.0421 40.573 43.7862ZM29.0886 52.914C27.8887 50.952 26.6032 49.1605 25.2319 47.3691C24.9748 47.625 24.8034 47.7956 24.5463 47.9662C25.7461 49.843 27.5459 51.2932 28.4887 53.2553C28.7458 53.17 28.9172 53.0847 29.0886 52.914ZM61.3135 30.9901C63.199 30.4783 65.0845 30.0518 66.97 29.5399C66.7986 29.1987 66.7128 28.9428 66.6271 28.6868C64.7416 29.1987 62.8562 29.7105 60.9707 30.2224C61.0564 30.4783 61.1421 30.7342 61.3135 30.9901ZM57.0282 61.7007C55.3999 61.8713 53.9429 61.6154 52.3145 61.7007C52.3145 61.8713 52.3145 61.9566 52.3145 62.0419C52.4002 62.7244 52.4002 62.8097 53.0858 62.8097C53.8572 62.8097 54.5428 62.895 55.3142 62.895C55.9141 62.895 56.4283 62.895 57.0282 62.7244C57.0282 62.4684 57.0282 62.1272 57.0282 61.7007ZM58.9137 59.568C59.3423 61.4448 59.5137 63.3215 59.5994 65.113C59.9422 65.113 60.285 65.113 60.6278 65.113C60.4564 63.2362 60.1993 61.3594 60.0279 59.568C59.6851 59.568 59.3423 59.568 58.9137 59.568ZM26.8603 51.8904C25.3176 53.17 23.8606 54.3643 22.3179 55.5586C22.4893 55.8145 22.6608 55.9851 22.8322 56.241C24.3748 55.0467 26.0032 54.023 27.2888 52.4875C27.1174 52.3169 27.0317 52.1463 26.8603 51.8904ZM44.9439 59.3974C45.0296 59.6533 45.1153 59.9092 45.1153 60.0798C45.201 60.9329 45.201 61.8713 45.2867 62.7244C45.2867 63.2362 45.3724 63.8333 45.3724 64.3452C45.3724 64.6864 45.5438 64.857 45.8867 64.7717C46.0581 64.7717 46.2295 64.7717 46.4009 64.7717C46.3152 63.4068 46.2295 62.0419 46.2295 60.7623C46.0581 60.7623 45.801 60.677 45.6295 60.677C46.0581 60.2505 45.8867 59.8239 45.8867 59.3974C45.5438 59.3974 45.2867 59.3974 44.9439 59.3974ZM72.1122 153.491C72.1979 153.491 72.1979 153.491 72.2836 153.491C72.7122 151.785 73.2264 150.164 73.3978 148.202C72.7122 148.543 72.1122 148.799 71.598 149.226C71.5123 149.311 71.5123 149.482 71.5123 149.652C71.6837 150.932 71.9408 152.211 72.1122 153.491ZM63.7989 147.775C64.656 147.605 65.3416 147.178 66.0272 146.837C66.37 146.666 66.4557 146.496 66.37 146.155C66.2843 145.472 66.2843 144.79 66.1986 144.022C66.1986 143.851 66.1129 143.766 66.1129 143.51C65.2559 144.96 64.2274 146.155 63.7989 147.775ZM70.6553 34.0612C70.9124 33.9759 71.2552 33.9759 71.3409 33.8053C70.9981 32.5257 70.6553 31.3314 70.3124 30.2224C70.0553 29.4546 70.0553 28.6869 69.7125 27.9191C69.3697 28.0044 69.1126 28.0897 68.7698 28.0897C69.3697 30.1371 70.0553 32.0991 70.6553 34.0612ZM62.6847 35.4261C64.2274 34.6583 65.7701 34.2318 67.3128 33.8906C67.6556 33.8053 67.9984 33.6347 68.3412 33.464C68.2555 33.1228 68.1698 32.9522 67.9984 32.6963C66.1129 33.2081 64.2274 33.72 62.4276 34.4024C62.5133 34.7436 62.599 35.0849 62.6847 35.4261ZM39.116 37.9853C37.1448 38.4972 28.9172 43.189 27.8887 44.3833C31.4026 42.5066 34.9165 40.7151 38.259 38.4972C38.5161 38.4119 38.7732 38.2412 39.116 37.9853ZM34.3166 49.843C33.4595 48.4781 32.6025 47.1985 31.6597 45.9189C31.2312 45.3217 30.717 44.7246 30.2884 44.1274C30.117 44.2127 30.0313 44.2127 29.9456 44.298C29.9456 44.298 29.9456 44.3833 29.8599 44.4687C31.2312 46.3454 32.0882 48.4781 33.6309 50.2695C33.888 50.0989 34.0594 50.0136 34.3166 49.843ZM61.742 32.4404C63.6275 31.8432 65.513 31.3314 67.3985 30.7342C67.3128 30.4783 67.2271 30.3077 67.1414 30.1371C66.2843 30.1371 62.2562 31.1608 61.4849 31.5873C61.5706 31.8432 61.6563 32.0991 61.742 32.4404ZM57.0282 30.7342C55.5713 30.7342 44.4297 34.9996 43.5726 35.8526C48.0293 34.3171 52.4859 32.611 57.0282 30.7342ZM49.9148 128.24C49.4005 128.155 48.972 128.155 48.5435 128.07C48.115 128.07 47.6008 128.155 47.2579 128.496C47.0865 128.667 46.9151 128.837 47.0008 129.093C47.0865 129.52 47.1722 130.032 47.2579 130.458C48.0293 130.117 48.8006 129.861 49.4862 129.52C49.9148 129.264 50.0862 128.837 49.9148 128.24ZM30.8027 43.7862C32.5168 45.4923 33.3738 47.7956 34.9165 49.5018C35.0879 49.3311 35.345 49.2458 35.5164 49.0752C34.1451 47.1985 32.7739 45.2364 31.4026 43.3597C31.2312 43.5303 31.0598 43.6156 30.8027 43.7862ZM76.826 32.611C76.9974 32.5257 77.2545 32.5257 77.4259 32.4404L77.5116 32.355C76.9974 30.393 76.3975 28.5162 75.6261 26.6395C75.369 26.7248 75.1119 26.7248 74.9405 26.8101C75.5404 28.7722 76.1404 30.6489 76.826 32.611ZM63.5418 65.2836C62.8562 63.4068 62.9419 61.4448 62.599 59.4827C62.4276 59.4827 62.1705 59.4827 61.9991 59.4827C61.9134 60.5917 62.3419 64.3452 62.599 65.1983C62.8562 65.1983 63.199 65.2836 63.5418 65.2836ZM78.3687 156.477C79.4828 156.136 80.4256 155.794 81.454 155.453C81.0255 154.685 80.597 153.918 80.0828 153.065C79.4828 154.088 78.8829 155.197 78.3687 156.477ZM43.3155 63.1509C43.3155 62.7244 43.3155 62.4684 43.2298 62.2125C41.5157 62.2125 39.8016 62.2125 38.0019 62.2125C38.0019 62.4684 38.0876 62.7244 38.0876 62.9803C39.8873 63.0656 41.5157 63.0656 43.3155 63.1509ZM60.7135 59.568C60.7135 59.9092 60.6278 60.1651 60.6278 60.5064C60.7992 61.8713 60.9707 63.2362 61.1421 64.6011C61.2278 65.1983 61.3135 65.2836 61.9134 65.113C61.742 63.2362 61.5706 61.3594 61.3992 59.4827C61.1421 59.4827 60.9707 59.4827 60.7135 59.568ZM67.6556 150.335H67.7413C68.3412 148.97 68.9412 147.52 69.6268 146.155C68.7698 146.325 67.827 146.666 67.2271 147.178C67.3128 148.202 67.4842 149.311 67.6556 150.335ZM67.0557 151.017C66.8843 149.738 66.7129 148.543 66.5415 147.349C65.7701 147.69 65.0845 148.031 64.3988 148.373C65.2559 149.226 66.1129 150.079 67.0557 151.017ZM68.5127 34.0612C66.5415 34.4877 64.5702 34.829 62.7704 35.938C62.8561 36.1086 62.9419 36.2792 63.0276 36.4498C64.9988 35.7673 66.8843 35.1702 68.7698 34.573C68.6841 34.4024 68.5984 34.2318 68.5127 34.0612ZM57.4568 31.4167C58.1424 33.5494 58.5709 35.5967 59.7708 37.5588C59.9422 37.4735 60.1136 37.3882 60.1993 37.3882C59.428 35.3408 58.7423 33.2934 57.971 31.2461C57.8853 31.2461 57.7139 31.3314 57.4568 31.4167ZM38.259 64.2599C39.9731 64.3452 41.6871 64.3452 43.4012 64.4305C43.3155 64.1746 43.3155 63.9187 43.2298 63.5774C41.5157 63.5774 39.8016 63.3215 38.0876 63.4921C38.1733 63.8333 38.1733 64.004 38.259 64.2599ZM46.4009 43.3597C46.658 43.189 46.7437 43.1037 46.9151 43.0184C45.6295 40.9711 44.4297 39.009 43.2298 36.9616C43.0584 37.0469 42.9727 37.0469 42.8013 37.1322C42.8013 37.1322 42.8013 37.2176 42.7156 37.2176C44.0012 39.2649 45.201 41.3123 46.4009 43.3597ZM47.8579 59.568C48.0293 61.3594 47.8579 63.1509 48.4578 64.9423C48.8006 64.9423 49.0577 64.9423 49.2291 64.857C49.0577 63.9187 48.8863 63.0656 48.7149 62.2125C48.6292 61.3594 48.6292 60.4211 48.5435 59.568C48.3721 59.568 48.2007 59.568 47.8579 59.568ZM43.744 36.7057C44.344 38.3265 46.9151 42.336 47.6007 42.7625C46.5723 40.5445 45.6295 38.4119 44.344 36.4498C44.1726 36.5351 44.0012 36.6204 43.744 36.7057ZM50.3433 64.7717C50.1719 63.0656 50.0862 61.2741 49.9148 59.568C49.6577 59.568 49.4006 59.568 49.2291 59.568C49.1434 60.5917 49.2291 62.5537 49.4005 63.4068C49.4863 63.748 49.6577 64.0893 49.7434 64.4305C49.9148 64.6864 50.0862 64.857 50.3433 64.7717ZM25.8318 46.9426C27.2031 48.8193 28.4887 50.6961 29.7742 52.5728C29.9456 52.4875 30.0313 52.4022 30.2027 52.2316C28.8315 50.4401 27.7173 48.3928 26.5175 46.516C26.2603 46.6866 26.0032 46.7719 25.8318 46.9426ZM58.7423 65.113C58.828 63.6627 58.6566 62.2978 58.4852 60.9329C58.3995 60.5917 58.3138 60.1651 58.2281 59.8239C58.1424 59.568 58.1424 59.3121 57.7996 59.4827C57.5425 61.3594 58.0567 63.1509 58.0567 65.0276C58.3138 65.113 58.4852 65.113 58.7423 65.113ZM54.2857 132.079H54.2C53.6858 133.188 53.0858 134.297 52.4859 135.406C52.743 135.491 52.9144 135.577 53.0858 135.577C53.6858 135.406 54.2 135.235 54.7999 135.065C54.6285 134.041 54.4571 133.103 54.2857 132.079ZM47.0008 64.9423C47.3436 64.9423 47.6007 64.857 47.7722 64.857C47.6007 63.0656 47.4293 61.2741 47.2579 59.4827C46.9151 59.4827 46.658 59.4827 46.4009 59.4827C46.7437 59.9092 46.7437 59.9092 46.7437 60.4211C46.7437 60.5917 46.7437 60.8476 46.7437 61.0182C46.8294 61.786 46.8294 62.639 46.9151 63.4068C46.9151 64.004 47.0008 64.4305 47.0008 64.9423ZM63.1133 143.851C63.0276 144.79 63.199 145.643 63.4561 146.581C64.2274 145.387 64.9131 144.278 65.5987 143.084C64.6559 143.254 63.8846 143.595 63.1133 143.851ZM59.5994 30.6489C60.3707 32.6963 61.1421 34.7437 61.9134 36.791C61.9991 36.791 62.0848 36.7057 62.2562 36.7057C61.6563 34.573 61.1421 32.4404 60.1993 30.4783C59.9422 30.4783 59.7708 30.5636 59.5994 30.6489ZM76.826 27.4072C77.5116 27.2366 78.1115 27.1513 78.6258 26.9807C79.2257 26.8101 79.8256 26.8101 80.4256 26.5542C80.3399 26.2983 80.2542 26.0423 80.0828 25.7864C78.7972 25.957 77.5973 26.1276 76.3975 26.4689C76.5689 26.8101 76.6546 27.1513 76.826 27.4072ZM50.1719 129.861C49.4863 130.543 48.4578 132.335 48.2864 133.103C49.1434 133.017 49.9148 132.591 50.6004 132.25C50.5147 131.397 50.3433 130.714 50.1719 129.861ZM81.2826 29.1134C81.1969 28.7722 81.1112 28.4309 80.9398 28.0897C79.7399 28.3456 78.5401 28.6015 77.3402 28.8575C77.4259 29.1134 77.5116 29.3693 77.683 29.7105C78.8829 29.6252 79.997 29.3693 81.2826 29.1134ZM53.6858 32.8669C54.0286 33.8053 54.3714 34.6583 54.7142 35.5114C55.1427 36.5351 55.5713 37.5588 55.9998 38.5825C56.0855 38.8384 56.1712 39.009 56.514 38.7531C55.7427 36.7057 54.9713 34.6583 54.2 32.611C54.0286 32.6963 53.8572 32.7816 53.6858 32.8669ZM62.2562 140.524C61.5706 141.633 60.7992 142.657 60.285 143.937C61.0564 143.766 61.742 143.681 62.4276 143.34C62.3419 142.401 62.3419 141.463 62.2562 140.524ZM46.4866 36.4498C47.515 36.0233 48.3721 35.5114 49.3148 35.1702C50.2576 34.829 51.2003 34.4024 52.0574 33.9759C51.9717 33.464 51.7146 33.6347 51.4575 33.72C50.2576 34.1465 49.1434 34.573 47.9436 34.9996C47.3436 35.2555 46.658 35.5114 45.9724 35.682C46.2295 36.0233 46.4009 36.2792 46.4866 36.4498ZM55.3142 134.382C55.3999 134.382 55.3999 134.382 55.4856 134.468C55.9141 133.529 56.3426 132.676 56.8568 131.738C56.5997 131.567 56.3426 131.397 56.1712 131.141C55.7427 131.311 55.3142 131.397 54.8856 131.567C55.057 132.591 55.1427 133.444 55.3142 134.382ZM67.4842 28.4309C68.1698 30.4783 68.8555 32.4404 69.5411 34.4024C69.7125 34.3171 69.8839 34.3171 69.9696 34.2318C69.284 32.2697 68.6841 30.3077 68.0841 28.3456C67.7413 28.4309 67.6556 28.4309 67.4842 28.4309ZM27.6316 53.0847C26.1746 54.279 24.7177 55.4733 23.2607 56.6676C23.4321 56.8382 23.5178 57.0088 23.6035 57.0941C25.0605 55.8998 26.5175 54.7908 27.9744 53.6818C27.803 53.5112 27.7173 53.3406 27.6316 53.0847ZM67.0557 59.3974C66.6271 59.7386 66.7129 59.9945 66.7129 60.3358C66.7129 61.4448 66.7986 62.6391 66.8843 63.748C66.8843 64.004 66.8843 64.1746 66.8843 64.4305C66.97 64.9423 66.7129 65.4542 67.0557 65.7954C66.8843 66.1366 66.7129 66.4779 66.5415 66.9044C66.7986 66.9044 67.0557 66.9897 67.3128 66.9897C67.1414 64.4305 67.3128 61.9566 67.0557 59.3974ZM45.201 36.1939C46.2295 38.2412 47.2579 40.3739 48.2864 42.4213C48.4578 42.336 48.6292 42.2507 48.8863 42.1654C48.8006 41.9947 48.8006 41.9094 48.7149 41.8241C48.0293 40.6298 47.4293 39.4355 46.7437 38.2412C46.4009 37.6441 46.0581 37.0469 45.7153 36.3645C45.5438 36.1939 45.4581 36.0233 45.201 36.1939ZM67.0557 146.325C67.827 145.984 68.4269 145.728 69.0269 145.472C68.5984 145.131 68.2555 144.79 67.9127 144.449C67.5699 144.107 67.2271 143.766 66.8843 143.34L66.7986 143.425C66.8843 144.363 66.97 145.302 67.0557 146.325ZM86.3392 30.9901C86.1678 30.2224 86.1678 29.4546 85.3964 28.9428C85.1393 28.7722 84.8822 28.4309 84.7108 28.175C84.5394 28.0044 84.368 27.7485 84.1966 27.5779C84.1966 27.5779 84.1109 27.5779 84.1109 27.6632C84.4537 28.8575 84.8822 30.0518 85.3107 31.2461C85.5678 31.0754 85.9107 30.9901 86.3392 30.9901ZM33.1167 59.9092C33.3738 61.3594 33.3738 62.7244 34.0594 64.0893C34.2309 64.0893 34.4023 64.0893 34.488 64.004C34.3166 62.639 34.1451 61.2741 33.888 59.8239C33.6309 59.8239 33.3738 59.8239 33.1167 59.9092ZM51.4575 132.591C51.4575 133.615 51.6289 134.553 51.9717 134.894C52.6573 134.041 53.0001 133.017 53.5144 132.079L53.4287 131.994C52.743 132.164 52.1431 132.42 51.4575 132.591ZM70.2267 146.752C69.6268 147.946 68.9412 149.055 68.5127 150.335C69.1983 149.908 69.7982 149.567 70.3124 149.226C70.4838 149.14 70.6553 148.97 70.5696 148.799C70.5696 148.117 70.3982 147.434 70.2267 146.752ZM52.4859 64.7717C52.4859 64.857 52.4859 64.857 52.5716 64.9423C54.2 65.0276 55.7427 65.113 57.4568 65.1983C57.4568 64.9423 57.3711 64.6864 57.3711 64.5158C57.1997 64.5158 57.0282 64.4305 56.8568 64.4305C55.7427 64.4305 54.5428 64.4305 53.4287 64.4305C53.2572 64.4305 53.0001 64.4305 52.8287 64.5158C52.5716 64.6011 52.5716 64.6864 52.4859 64.7717ZM43.1441 59.3974C41.3443 59.3974 39.6302 59.568 37.9161 59.6533C37.9161 59.8239 37.9161 59.9092 37.9161 60.0798C39.6302 60.0798 41.3443 60.0798 43.1441 60.0798C43.1441 59.9092 43.1441 59.6533 43.1441 59.3974ZM51.7146 64.7717C51.6289 63.748 51.5432 62.7244 51.4575 61.7007C51.3717 61.1035 51.286 60.5064 51.2003 59.9092C51.1146 59.568 51.0289 59.4827 50.6861 59.6533C50.7718 60.5917 50.7718 61.4447 50.8575 62.2978C50.9432 63.0656 51.0289 63.748 51.1146 64.5158C51.2003 64.7717 51.286 64.9423 51.7146 64.7717ZM40.573 38.1559C41.9443 40.2033 43.2298 42.2507 44.5154 44.298C44.6011 44.298 44.6868 44.2127 44.7725 44.2127C43.4869 42.1654 42.2871 40.118 41.0015 38.0706C40.8301 38.0706 40.7444 38.0706 40.573 38.1559ZM93.7955 45.3217C94.9953 45.7483 96.2809 45.5776 97.3951 46.2601C97.3094 45.3217 97.1379 45.0658 96.6237 44.554C95.681 44.8952 94.7382 45.1511 93.7955 45.3217ZM58.2281 134.041C58.3138 133.188 58.0567 132.591 57.3711 132.25C56.9426 133.017 56.514 133.785 56.0855 134.638L56.1712 134.724C56.8568 134.468 57.5425 134.212 58.2281 134.041ZM51.886 131.823C52.6573 131.567 53.2572 131.397 53.7715 131.226C54.1143 131.141 54.2 130.97 54.1143 130.714C54.0286 130.458 54.0286 130.202 53.9429 129.946C53.9429 129.605 53.6858 129.434 53.3429 129.349C52.743 130.032 52.4002 130.885 51.886 131.823ZM78.283 32.2697C79.5685 32.0138 80.7684 31.8432 82.054 31.5873C81.9682 31.3314 81.8826 31.1608 81.7969 30.9048C80.9398 30.9048 78.9686 31.3314 78.1973 31.7579C78.1973 31.8432 78.283 32.0138 78.283 32.2697ZM52.4859 64.004C54.1143 64.004 55.5713 63.9187 57.1996 63.9187C57.1996 63.748 57.1997 63.5774 57.114 63.4068C55.4856 63.4068 54.0286 63.4068 52.4859 63.4068C52.4859 63.5774 52.4859 63.748 52.4859 64.004ZM52.4859 124.487C51.7146 124.572 51.7146 124.572 51.3718 125.169C51.2861 125.425 51.1146 125.596 51.0289 125.852C50.7718 126.363 50.6004 126.79 50.3433 127.387C50.7718 127.387 51.1146 127.472 51.3718 127.472C51.7146 126.363 52.0574 125.425 52.4859 124.487ZM60.9707 37.0469C60.7992 36.3645 60.5421 35.682 60.3707 34.9996C60.1136 34.3171 59.8565 33.6347 59.5994 32.9522C59.3423 32.3551 59.1709 31.5873 58.7423 31.0754C58.6566 32.0991 60.1136 36.0233 60.9707 37.0469ZM88.6532 32.1844C88.6532 32.0991 88.6532 32.0991 88.7389 32.0138C88.4818 31.8432 88.4818 31.502 88.0533 31.502C86.8534 31.5873 85.6535 31.7579 84.4537 31.9285C84.5394 32.1844 84.5394 32.3551 84.5394 32.5257C84.8822 32.4404 85.225 32.4404 85.5678 32.355C86.1678 32.1844 86.7677 32.0991 87.3676 32.1844C87.7962 32.1844 88.2247 32.1844 88.6532 32.1844ZM43.9155 59.3121C43.9155 59.4827 43.8298 59.568 43.8298 59.6533C43.8298 60.5917 43.8298 61.5301 43.9155 62.4684C43.9155 63.0656 44.0012 63.6627 44.0869 64.3452C44.0869 64.6011 44.1726 64.6864 44.4297 64.6011L44.5154 64.5158C44.4297 63.2362 44.4297 61.8713 44.344 60.5917C44.344 60.1651 44.4297 59.7386 43.9155 59.3121ZM81.454 150.761C81.1112 151.273 80.8541 151.7 80.597 152.126C80.5113 152.211 80.5113 152.382 80.597 152.467C80.9398 153.065 81.2826 153.662 81.6254 154.344C81.8825 153.491 81.7968 151.7 81.454 150.761ZM32.0025 59.9092C32.2597 61.2741 32.4311 62.639 32.6882 64.004C32.9453 64.004 33.1167 64.004 33.2881 64.004C33.031 62.639 32.8596 61.2741 32.6025 59.9945C32.4311 59.9092 32.2597 59.9092 32.0025 59.9092ZM50.8575 129.605C50.9432 130.202 51.0289 130.714 51.1146 131.226C51.1146 131.397 51.2003 131.482 51.286 131.652C51.6289 131.311 52.5716 129.69 52.8287 129.008C52.0574 129.179 51.4575 129.349 50.8575 129.605ZM36.4592 64.0893C36.2878 62.639 36.2021 61.1888 36.0306 59.7386C35.9449 59.7386 35.8592 59.7386 35.7735 59.7386C35.6878 59.7386 35.6021 59.7386 35.5164 59.8239C35.6021 61.2741 35.7735 62.639 36.0306 64.0893C36.2021 64.0893 36.3735 64.0893 36.4592 64.0893ZM81.3683 29.6252C80.1685 29.8812 78.9686 30.1371 77.7687 30.393C77.8544 30.6489 77.8544 30.8195 77.9401 30.9901C79.14 30.7342 80.3399 30.4783 81.5397 30.2224C81.5397 30.0518 81.454 29.8812 81.3683 29.6252ZM42.7156 45.1511C41.7728 43.8715 40.9158 42.5919 40.0588 41.3123C39.6302 40.7151 39.2874 40.0327 38.8589 39.3502C38.6875 39.009 38.6018 39.1796 38.4304 39.3502C39.7159 41.3976 41.0015 43.3597 42.3728 45.3217C42.4585 45.3217 42.5442 45.2364 42.7156 45.1511ZM60.7993 144.619C61.5706 145.302 61.9991 146.069 62.7704 146.752C62.599 145.813 62.5133 145.046 62.3419 144.193C61.8277 144.278 61.3992 144.363 60.7993 144.619ZM27.5459 61.8713C27.7173 62.1272 27.8887 62.2978 28.0601 62.4684C28.1458 62.5537 28.3172 62.639 28.4887 62.639C29.0029 62.639 29.5171 62.5537 30.0313 62.5537C30.2027 62.5537 30.3742 62.5537 30.6313 62.5537C30.5456 62.2978 30.5456 62.0419 30.4599 61.786C29.4314 61.8713 28.4887 61.8713 27.5459 61.8713ZM58.4852 136.686H58.3995C57.971 137.624 57.5425 138.562 57.114 139.671C57.6282 139.501 57.971 139.415 58.3138 139.245C58.5709 139.159 58.7423 138.989 58.6566 138.733C58.5709 138.05 58.5709 137.368 58.4852 136.686ZM30.2027 60.9329C29.0029 60.9329 27.803 60.677 26.6032 60.7623C26.7746 61.0182 26.946 61.2741 27.2031 61.3594C28.1458 61.4448 29.0029 61.4448 29.9456 61.4448C30.2027 61.4448 30.2885 61.3594 30.2027 60.9329ZM34.488 59.9092C34.488 60.2505 34.5737 60.5917 34.5737 60.8476C34.7451 61.786 34.9165 62.8097 35.0879 63.748C35.1736 64.004 35.2593 64.0893 35.5164 64.004C35.345 62.639 35.2593 61.2741 35.0879 59.9092C34.8308 59.9092 34.6594 59.9092 34.488 59.9092ZM45.0296 65.5395C42.2014 64.857 39.2874 65.113 36.3735 64.9423C39.2017 65.1983 42.1157 65.4542 45.0296 65.5395ZM41.7728 131.738C42.6299 131.908 43.4012 131.823 43.9155 131.652C43.8298 131.226 43.8298 130.799 43.744 130.288C43.0584 130.799 42.2014 130.97 41.7728 131.738ZM30.8884 59.9945C30.8884 60.0798 30.8027 60.0798 30.8027 60.1651C30.9741 61.3594 31.2312 62.4684 31.4026 63.6627C31.4883 64.004 31.6597 63.9187 31.9168 63.8334C31.7454 62.6391 31.574 61.4448 31.4026 60.2505C31.4026 59.9092 31.1455 59.9092 30.8884 59.9945ZM88.8246 27.3219C88.5675 26.2129 87.8819 25.3599 87.1962 24.5068C87.1105 24.4215 86.9391 24.3362 86.9391 24.4215C86.8534 24.5068 86.7677 24.6774 86.7677 24.7627C86.7677 25.0186 86.8534 25.1893 87.0248 25.3599C87.539 25.957 88.2247 26.6395 88.8246 27.3219ZM44.344 130.032C44.4297 130.543 44.5154 131.055 44.6011 131.567C45.0296 131.311 45.8867 129.69 45.9724 129.093C45.4581 129.434 44.9439 129.69 44.344 130.032ZM77.2545 149.908C76.5689 149.738 75.8832 149.567 75.1119 149.311C75.369 149.908 75.6261 150.42 75.7975 151.017C76.2261 150.676 76.6546 150.335 77.0831 150.079C77.1688 150.079 77.2545 149.993 77.2545 149.908ZM52.8287 33.2081C52.8287 33.2081 52.743 33.2081 52.743 33.2934C53.5144 35.3408 54.6285 37.2176 55.057 39.4355C55.2284 39.3502 55.3142 39.2649 55.3999 39.2649C54.7999 37.8147 54.2857 36.4498 53.6858 35.0849C53.4287 34.573 53.2573 34.0612 53.0001 33.464C53.0001 33.3787 52.9144 33.2934 52.8287 33.2081ZM48.6292 125.51C48.2007 125.681 47.8579 125.681 47.6865 125.937C47.2579 126.449 47.0008 126.961 46.7437 127.643C47.2579 127.643 47.6865 127.643 47.8579 127.131C48.115 126.619 48.3721 126.107 48.6292 125.51ZM58.6566 141.889C58.6566 141.122 58.6566 140.439 58.5709 139.757C58.0567 139.927 57.6282 140.013 57.1996 140.183C57.7139 140.866 58.1424 141.292 58.6566 141.889ZM76.9974 28.0044C77.1688 28.2603 77.1688 28.3456 77.3402 28.2603C78.3687 28.0044 79.4828 27.7485 80.5113 27.4926C80.597 27.4926 80.6827 27.4925 80.7684 27.4072C80.1684 27.2366 78.1973 27.6632 76.9974 28.0044ZM47.6865 132.591C48.115 131.823 48.5435 131.226 48.972 130.458C48.2864 130.714 47.7722 130.885 47.3436 131.226C47.4293 131.652 47.6008 132.079 47.6865 132.591ZM48.8006 127.302C49.1434 127.472 49.3148 127.302 49.4862 126.961C49.7434 126.449 50.0005 125.937 50.1719 125.425C50.2576 125.254 50.2576 125.169 50.3433 124.913C50.0005 125.084 49.7434 125.084 49.6577 125.254C49.3148 125.937 48.8863 126.619 48.8006 127.302ZM37.4019 64.1746C37.4019 64.0893 37.4019 64.004 37.4019 63.9187C37.3162 62.9803 37.3162 62.0419 37.2305 61.1035C37.2305 60.7623 37.2305 60.4211 37.1448 60.0798C37.1448 59.9945 37.0591 59.9092 36.9734 59.7386C36.802 60.5064 37.0591 63.8334 37.4019 64.1746ZM30.117 60.4211C30.2027 60.1651 30.117 59.9945 29.8599 59.9945C28.6601 59.9945 27.3745 59.9945 26.1746 59.9945C27.3745 60.2505 28.7458 60.5064 30.117 60.4211ZM79.8256 152.382C79.6542 151.956 79.3971 151.529 79.14 151.017C79.0543 152.041 78.8829 152.979 78.7972 153.918H78.8829C79.14 153.406 79.4828 152.894 79.8256 152.382ZM70.9981 146.922C71.0838 147.52 70.9981 148.031 71.3409 148.543C71.6837 148.287 72.1122 148.117 72.4551 147.861C71.9408 147.52 71.5123 147.264 70.9981 146.922ZM46.7437 131.397C46.2295 131.652 45.801 131.823 45.3724 132.079C45.9724 132.25 46.4009 132.676 47.0865 132.676C46.9151 132.164 46.8294 131.823 46.7437 131.397ZM80.0828 151.7C80.3399 151.188 80.597 150.847 80.8541 150.42C80.3399 150.42 79.997 150.42 79.5685 150.42C79.7399 150.847 79.9114 151.188 80.0828 151.7ZM46.4866 126.193C46.0581 126.363 45.4581 127.131 45.201 127.814C45.4581 127.814 45.7153 127.899 45.8867 127.643C46.1438 127.131 46.3152 126.619 46.4866 126.193ZM30.6313 63.1509C30.2027 63.2362 29.9456 63.2362 29.6885 63.2362C29.4314 63.2362 29.1743 63.2362 28.8315 63.2362C28.8315 63.3215 28.8315 63.3215 28.8315 63.4068C29.3457 63.6627 30.0313 63.5774 30.6313 63.748C30.6313 63.4921 30.6313 63.3215 30.6313 63.1509ZM54.8856 135.747C54.3714 135.918 54.0286 136.003 53.6001 136.174C53.8572 136.43 54.0286 136.6 54.2857 136.771C54.4571 136.43 54.6285 136.174 54.8856 135.747ZM46.4866 130.032C46.4009 130.032 46.4009 130.032 46.3152 129.946C46.1438 130.288 45.8867 130.629 45.7153 131.055L45.801 131.141C46.0581 131.055 46.3152 130.885 46.4866 130.714C46.5723 130.458 46.4866 130.288 46.4866 130.032ZM45.3724 128.752C45.1153 128.581 44.8582 128.667 44.6868 128.667C44.2583 128.752 44.2583 128.752 44.4297 129.264C44.6868 129.093 45.0296 128.923 45.3724 128.752ZM87.4533 30.8195V30.7342C87.1962 30.5636 86.9391 30.393 86.5963 30.1371C86.682 30.4783 86.7677 30.7342 86.7677 30.9901C87.1105 30.9048 87.2819 30.8195 87.4533 30.8195ZM29.8599 64.3452C29.8599 64.4305 29.8599 64.4305 29.8599 64.5158C30.2884 64.6864 30.8027 64.6011 31.2312 64.6011C30.8027 64.5158 30.3742 64.4305 29.8599 64.3452ZM55.057 136.771C54.7142 137.283 54.7142 137.283 55.2285 137.539C55.1428 137.283 55.1427 137.027 55.057 136.771ZM51.5432 128.581C51.0289 128.411 51.0289 128.411 50.8575 128.923C51.1146 128.837 51.286 128.667 51.5432 128.581ZM50.8575 133.529C50.5147 133.956 50.5147 133.956 50.9432 134.126C50.9432 133.956 50.8575 133.785 50.8575 133.529ZM49.6577 133.529C50.0862 133.615 50.0862 133.615 50.0862 133.188C50.0005 133.273 49.8291 133.359 49.6577 133.529ZM57.8853 30.393C57.6282 30.393 57.3711 30.393 57.0282 30.7342C57.4568 30.6489 57.7139 30.6489 57.8853 30.393ZM51.1146 31.7579L51.0289 31.6726C50.8575 31.7579 50.6861 31.8432 50.5147 31.9285V32.0138C50.7718 31.9285 50.9432 31.8432 51.1146 31.7579ZM39.9731 37.5588C40.1445 37.5588 40.3159 37.4735 40.4873 37.3882C40.4873 37.3882 40.4873 37.3882 40.4873 37.3029C40.2302 37.3882 40.0588 37.4735 39.9731 37.5588ZM55.057 130.799C55.1427 130.714 55.3142 130.629 55.4856 130.543C55.1427 130.373 55.057 130.543 55.057 130.799ZM66.8843 58.3737C66.7986 58.3737 66.7986 58.3737 66.7129 58.3737C66.7129 58.5443 66.7986 58.6296 66.7986 58.8002H66.8843C66.97 58.6296 66.8843 58.5443 66.8843 58.3737ZM47.9436 65.6248C48.0293 65.5395 48.0293 65.6248 47.9436 65.6248C47.8579 65.5395 47.6865 65.5395 47.6007 65.5395C47.6007 65.5395 47.6007 65.5395 47.6007 65.6248C47.7722 65.6248 47.8579 65.6248 47.9436 65.6248Z" fill="black"/>
</svg>
